<svg xmlns="http://www.w3.org/2000/svg" xmlns:xlink="http://www.w3.org/1999/xlink" xmlns:lucid="lucid" width="2220" height="2080"><g transform="translate(420 -300)" lucid:page-tab-id="0_0"><path d="M-1806.4 0h3676.8v2582.4h-3676.8z" fill="#fff"/><path d="M590 320h260v232H590z" fill="#fff"/><path d="M590 320h260v232H590zM590 360h260" stroke="#000" stroke-width="2" fill="none"/><use xlink:href="#a" transform="matrix(1,0,0,1,600,320) translate(96.55 23.6)"/><use xlink:href="#b" transform="matrix(1,0,0,1,595,362.5) translate(0 17.1)"/><use xlink:href="#c" transform="matrix(1,0,0,1,595,394.5) translate(0 17.1)"/><use xlink:href="#d" transform="matrix(1,0,0,1,595,426.5) translate(0 17.1)"/><use xlink:href="#e" transform="matrix(1,0,0,1,595,458.5) translate(0 17.1)"/><use xlink:href="#f" transform="matrix(1,0,0,1,595,490.5) translate(0 17.1)"/><use xlink:href="#g" transform="matrix(1,0,0,1,595,522.5) translate(0 17.1)"/><path d="M660 2155.56h200v168H660z" fill="#fff"/><path d="M660 2155.56h200v168H660zM660 2195.56h200" stroke="#000" stroke-width="2" fill="none"/><use xlink:href="#h" transform="matrix(1,0,0,1,670,2155.5625) translate(21.599999999999994 23.6)"/><use xlink:href="#i" transform="matrix(1,0,0,1,665,2198.0625) translate(0 17.1)"/><use xlink:href="#j" transform="matrix(1,0,0,1,665,2230.0625) translate(0 17.1)"/><use xlink:href="#k" transform="matrix(1,0,0,1,665,2262.0625) translate(0 17.1)"/><use xlink:href="#l" transform="matrix(1,0,0,1,665,2294.0625) translate(0 17.1)"/><path d="M-400 2155.56h200v168h-200z" fill="#fff"/><path d="M-400 2155.56h200v168h-200zM-400 2195.56h200" stroke="#000" stroke-width="2" fill="none"/><use xlink:href="#m" transform="matrix(1,0,0,1,-390,2155.5625) translate(57.074999999999996 23.6)"/><use xlink:href="#n" transform="matrix(1,0,0,1,-395,2198.0625) translate(0 17.1)"/><use xlink:href="#o" transform="matrix(1,0,0,1,-395,2230.0625) translate(0 17.1)"/><use xlink:href="#p" transform="matrix(1,0,0,1,-395,2262.0625) translate(0 17.1)"/><use xlink:href="#q" transform="matrix(1,0,0,1,-395,2294.0625) translate(0 17.1)"/><path d="M360 2160h200v200H360z" fill="#fff"/><path d="M360 2160h200v200H360zM360 2200h200" stroke="#000" stroke-width="2" fill="none"/><use xlink:href="#r" transform="matrix(1,0,0,1,370,2160) translate(69.525 23.6)"/><use xlink:href="#s" transform="matrix(1,0,0,1,365,2202.5) translate(0 17.1)"/><use xlink:href="#t" transform="matrix(1,0,0,1,365,2234.5) translate(0 17.1)"/><use xlink:href="#u" transform="matrix(1,0,0,1,365,2266.5) translate(0 17.1)"/><use xlink:href="#v" transform="matrix(1,0,0,1,365,2298.5) translate(0 17.1)"/><use xlink:href="#w" transform="matrix(1,0,0,1,365,2330.5) translate(0 17.1)"/><path d="M-140 2155.56H60v136h-200z" fill="#fff"/><path d="M-140 2155.56H60v136h-200zM-140 2195.56H60" stroke="#000" stroke-width="2" fill="none"/><use xlink:href="#x" transform="matrix(1,0,0,1,-130,2155.5625) translate(69.05 23.6)"/><use xlink:href="#y" transform="matrix(1,0,0,1,-135,2198.0625) translate(0 17.1)"/><use xlink:href="#z" transform="matrix(1,0,0,1,-135,2230.0625) translate(0 17.1)"/><use xlink:href="#A" transform="matrix(1,0,0,1,-135,2262.0625) translate(0 17.1)"/><path d="M1180 2155.56h200v136h-200z" fill="#fff"/><path d="M1180 2155.56h200v136h-200zM1180 2195.56h200" stroke="#000" stroke-width="2" fill="none"/><use xlink:href="#B" transform="matrix(1,0,0,1,1190,2155.5625) translate(19.07499999999999 23.6)"/><use xlink:href="#C" transform="matrix(1,0,0,1,1190,2155.5625) translate(75.02499999999999 23.6)"/><use xlink:href="#D" transform="matrix(1,0,0,1,1185,2198.0625) translate(0 17.1)"/><use xlink:href="#E" transform="matrix(1,0,0,1,1185,2230.0625) translate(0 17.1)"/><use xlink:href="#F" transform="matrix(1,0,0,1,1185,2262.0625) translate(0 17.1)"/><path d="M930 2155.56h200v136H930z" fill="#fff"/><path d="M930 2155.56h200v136H930zM930 2195.56h200" stroke="#000" stroke-width="2" fill="none"/><use xlink:href="#G" transform="matrix(1,0,0,1,940,2155.5625) translate(72.55 23.6)"/><use xlink:href="#H" transform="matrix(1,0,0,1,935,2198.0625) translate(0 17.1)"/><use xlink:href="#I" transform="matrix(1,0,0,1,935,2230.0625) translate(0 17.1)"/><use xlink:href="#J" transform="matrix(1,0,0,1,935,2262.0625) translate(0 17.1)"/><path d="M120 2160h200v200H120z" fill="#fff"/><path d="M120 2160h200v200H120zM120 2200h200" stroke="#000" stroke-width="2" fill="none"/><use xlink:href="#K" transform="matrix(1,0,0,1,130,2160) translate(64.05 23.6)"/><use xlink:href="#L" transform="matrix(1,0,0,1,125,2202.5) translate(0 17.1)"/><use xlink:href="#M" transform="matrix(1,0,0,1,125,2234.5) translate(0 17.1)"/><use xlink:href="#N" transform="matrix(1,0,0,1,125,2266.5) translate(0 17.1)"/><use xlink:href="#O" transform="matrix(1,0,0,1,125,2298.5) translate(0 17.1)"/><use xlink:href="#P" transform="matrix(1,0,0,1,125,2330.5) translate(0 17.1)"/><path d="M1580 2155.56h200v168h-200z" fill="#fff"/><path d="M1580 2155.56h200v168h-200zM1580 2195.56h200" stroke="#000" stroke-width="2" fill="none"/><use xlink:href="#Q" transform="matrix(1,0,0,1,1590,2155.5625) translate(54.55 23.6)"/><use xlink:href="#R" transform="matrix(1,0,0,1,1585,2198.0625) translate(0 17.1)"/><use xlink:href="#S" transform="matrix(1,0,0,1,1585,2230.0625) translate(0 17.1)"/><use xlink:href="#T" transform="matrix(1,0,0,1,1585,2262.0625) translate(0 17.1)"/><use xlink:href="#U" transform="matrix(1,0,0,1,1585,2294.0625) translate(0 17.1)"/><path d="M960 1521.38l80 60-80 60-80-60z" stroke="#000" stroke-width="2" fill="#fff"/><use xlink:href="#V" transform="matrix(1,0,0,1,885,1526.375) translate(59.505 59.0875)"/><path d="M360 1083.8h200v72H360z" fill="#fff"/><path d="M360 1083.8h200v72H360zM360 1123.8h200" stroke="#000" stroke-width="2" fill="none"/><use xlink:href="#W" transform="matrix(1,0,0,1,370,1083.8125) translate(52.574999999999996 23.6)"/><use xlink:href="#X" transform="matrix(1,0,0,1,365,1126.3125) translate(0 17.1)"/><path d="M460 1299.2l80 60-80 60-80-60z" stroke="#000" stroke-width="2" fill="#fff"/><use xlink:href="#Y" transform="matrix(1,0,0,1,385,1304.1875) translate(40.55499999999999 59.0875)"/><path d="M460 1157.8v139.14" stroke="#000" stroke-width="2" fill="none"/><path d="M461 1157.84h-2v-1.03h2zM461 1298.7l-1-.76-1 .75v-1.8h2z"/><path d="M360 1497.38h200v136H360z" fill="#fff"/><path d="M360 1497.38h200v136H360zM360 1537.38h200" stroke="#000" stroke-width="2" fill="none"/><use xlink:href="#Z" transform="matrix(1,0,0,1,370,1497.375) translate(47.05 23.6)"/><use xlink:href="#aa" transform="matrix(1,0,0,1,365,1539.875) translate(0 17.1)"/><use xlink:href="#ab" transform="matrix(1,0,0,1,365,1571.875) translate(0 17.1)"/><use xlink:href="#ac" transform="matrix(1,0,0,1,365,1603.875) translate(0 17.1)"/><path d="M1080 1060l80 60-80 60-80-60z" stroke="#000" stroke-width="2" fill="#fff"/><use xlink:href="#ad" transform="matrix(1,0,0,1,1005,1065) translate(55.005 59.0875)"/><path d="M460 1157.8v139.14" stroke="#000" stroke-width="2" fill="none"/><path d="M461 1157.84h-2v-1.03h2z"/><path d="M460 1296.9v1.04M438.9 1495.38l.06-89.72" stroke="#000" stroke-width="2" fill="none"/><path d="M439.9 1495.35v1.03h-2v-1.03zM439.96 1405.4v.28h-2v-1.77z"/><path d="M438.96 1495.2v-89.54M438.96 1495.16v1.03M438.96 1405.68v-1.02M484.94 1495.38l-.07-92.6" stroke="#000" stroke-width="2" fill="none"/><path d="M485.94 1496.38h-2v-1.03h2zM485.87 1402.8h-2v-.27l2-1.5z"/><path d="M490 1465.2h20v40h-20z" stroke="#000" stroke-opacity="0" stroke-width="2" fill="#fff" fill-opacity="0"/><use xlink:href="#ae" transform="matrix(1,0,0,1,495,1470.1875) translate(-1.4750000000000005 18.6)"/><path d="M860 1240h200v104H860z" fill="#fff"/><path d="M860 1240h200v104H860zM860 1280h200" stroke="#000" stroke-width="2" fill="none"/><use xlink:href="#af" transform="matrix(1,0,0,1,870,1240) translate(54.525 23.6)"/><use xlink:href="#ag" transform="matrix(1,0,0,1,865,1282.5) translate(0 17.1)"/><use xlink:href="#ah" transform="matrix(1,0,0,1,865,1314.5) translate(0 17.1)"/><path d="M960 1346v173.13" stroke="#000" stroke-width="2" fill="none"/><path d="M961 1346.03h-2V1345h2zM961 1520.87l-1-.74-1 .74v-1.77h2z"/><path d="M1460 1281.38h200v72h-200z" fill="#fff"/><path d="M1460 1281.38h200v72h-200zM1460 1321.38h200" stroke="#000" stroke-width="2" fill="none"/><use xlink:href="#ai" transform="matrix(1,0,0,1,1470,1281.375) translate(42.074999999999996 23.6)"/><use xlink:href="#aj" transform="matrix(1,0,0,1,1465,1323.875) translate(0 17.1)"/><path d="M1300 1054l80 60-80 60-80-60z" stroke="#000" stroke-width="2" fill="#fff"/><use xlink:href="#ak" transform="matrix(1,0,0,1,1225,1059) translate(21.055 59.0875)"/><use xlink:href="#al" transform="matrix(1,0,0,1,1225,1059) translate(69.005 59.0875)"/><path d="M1540 1060l80 60-80 60-80-60z" stroke="#000" stroke-width="2" fill="#fff"/><use xlink:href="#am" transform="matrix(1,0,0,1,1465,1065) translate(53.529999999999994 41.9)"/><use xlink:href="#an" transform="matrix(1,0,0,1,1465,1065) translate(30.579999999999995 63.5)"/><path d="M1299.53 1001.95l.46 49.8M1299.53 1001.98v-1.03" stroke="#000" stroke-width="2" fill="none"/><path d="M1301 1053.5l-1-.75-1 .74v-1.77h2z"/><path d="M961.67 1642.38v218" stroke="#000" stroke-width="2" fill="none"/><path d="M962.67 1642.4h-2v-.28l2-1.5z"/><path d="M961.67 1860.35v1.03" stroke="#000" stroke-width="2" fill="none"/><path d="M1200 1281.38h200v72h-200z" fill="#fff"/><path d="M1200 1281.38h200v72h-200zM1200 1321.38h200" stroke="#000" stroke-width="2" fill="none"/><use xlink:href="#ao" transform="matrix(1,0,0,1,1210,1281.375) translate(56.525 23.6)"/><use xlink:href="#ap" transform="matrix(1,0,0,1,1205,1323.875) translate(0 17.1)"/><path d="M1300 1516.38l80 60-80 60-80-60z" stroke="#000" stroke-width="2" fill="#fff"/><use xlink:href="#aq" transform="matrix(1,0,0,1,1225,1521.375) translate(25.08 59.0875)"/><use xlink:href="#ar" transform="matrix(1,0,0,1,1225,1521.375) translate(58.08 59.0875)"/><use xlink:href="#as" transform="matrix(1,0,0,1,1225,1521.375) translate(84.03 59.0875)"/><path d="M1560 1516.38l80 60-80 60-80-60z" stroke="#000" stroke-width="2" fill="#fff"/><use xlink:href="#at" transform="matrix(1,0,0,1,1485,1521.375) translate(40.029999999999994 59.0875)"/><path d="M1560 1638.63v222.74H961" stroke="#000" stroke-width="2" fill="none"/><path d="M1560 1637.63l1-.75v1.77h-2v-1.77z"/><path d="M961.03 1861.38H960M1560 1514.13v-158.76" stroke="#000" stroke-width="2" fill="none"/><path d="M1561 1515.87l-1-.74-1 .74v-1.77h2zM1561 1355.4h-2v-1.03h2z"/><path d="M1300 1355.38v158.74" stroke="#000" stroke-width="2" fill="none"/><path d="M1301 1355.4h-2v-1.03h2zM1301 1515.87l-1-.74-1 .74v-1.77h2z"/><path d="M1300 1638.62l-.3 221.76" stroke="#000" stroke-width="2" fill="none"/><path d="M1301 1638.65h-2v-1.77l1 .74 1-.75z"/><path d="M1299.7 1860.35v1.03" stroke="#000" stroke-width="2" fill="none"/><path d="M1540 1380h60v20h-60z" stroke="#000" stroke-opacity="0" stroke-width="2" fill="#fff" fill-opacity="0"/><use xlink:href="#ae" transform="matrix(1,0,0,1,1545,1385) translate(18.525 14.4)"/><path d="M1560 1780h60v20h-60z" stroke="#000" stroke-opacity="0" stroke-width="2" fill="#fff" fill-opacity="0"/><use xlink:href="#au" transform="matrix(1,0,0,1,1565,1785) translate(20 14.4)"/><path d="M1090 1002.63h20v20h-20z" stroke="#000" stroke-opacity="0" stroke-width="2" fill="#fff" fill-opacity="0"/><use xlink:href="#au" transform="matrix(1,0,0,1,1095,1007.625) translate(0 14.4)"/><path d="M1530 1002h60v20h-60z" stroke="#000" stroke-opacity="0" stroke-width="2" fill="#fff" fill-opacity="0"/><use xlink:href="#au" transform="matrix(1,0,0,1,1535,1007) translate(20 14.4)"/><path d="M1520 1240h60v20h-60z" stroke="#000" stroke-opacity="0" stroke-width="2" fill="#fff" fill-opacity="0"/><use xlink:href="#ae" transform="matrix(1,0,0,1,1525,1245) translate(18.525 14.4)"/><path d="M980 1780h20v20h-20z" stroke="#000" stroke-opacity="0" stroke-width="2" fill="#fff" fill-opacity="0"/><use xlink:href="#au" transform="matrix(1,0,0,1,985,1785) translate(0 14.4)"/><path d="M1300 1780h60v20h-60z" stroke="#000" stroke-opacity="0" stroke-width="2" fill="#fff" fill-opacity="0"/><use xlink:href="#au" transform="matrix(1,0,0,1,1305,1785) translate(20 14.4)"/><path d="M562 1553.38h198V1859" stroke="#000" stroke-width="2" fill="none"/><path d="M562.03 1554.38H561v-2h1.03z"/><path d="M760 1858.97v1.03M761 1860h198M761.03 1860H760M958.97 1860H960" stroke="#000" stroke-width="2" fill="none"/><path d="M1310 1002.63h20v20h-20z" stroke="#000" stroke-opacity="0" stroke-width="2" fill="#fff" fill-opacity="0"/><use xlink:href="#au" transform="matrix(1,0,0,1,1315,1007.625) translate(0 14.4)"/><path d="M1290 1224h60v20h-60z" stroke="#000" stroke-opacity="0" stroke-width="2" fill="#fff" fill-opacity="0"/><use xlink:href="#ae" transform="matrix(1,0,0,1,1295,1229) translate(18.525 14.4)"/><path d="M920 1204h60v20h-60z" stroke="#000" stroke-opacity="0" stroke-width="2" fill="#fff" fill-opacity="0"/><use xlink:href="#ae" transform="matrix(1,0,0,1,925,1209) translate(18.525 14.4)"/><path d="M1290 1380h60v20h-60z" stroke="#000" stroke-opacity="0" stroke-width="2" fill="#fff" fill-opacity="0"/><use xlink:href="#ae" transform="matrix(1,0,0,1,1295,1385) translate(18.525 14.4)"/><path d="M960 1360h60v20h-60z" stroke="#000" stroke-opacity="0" stroke-width="2" fill="#fff" fill-opacity="0"/><use xlink:href="#ae" transform="matrix(1,0,0,1,965,1365) translate(18.525 14.4)"/><path d="M220 600h200v104H220z" fill="#fff"/><path d="M220 600h200v104H220zM220 640h200" stroke="#000" stroke-width="2" fill="none"/><use xlink:href="#av" transform="matrix(1,0,0,1,230,600) translate(37.12499999999999 23.6)"/><use xlink:href="#aw" transform="matrix(1,0,0,1,225,642.5) translate(0 17.1)"/><use xlink:href="#ax" transform="matrix(1,0,0,1,225,674.5) translate(0 17.1)"/><path d="M460 1204h60v20h-60z" stroke="#000" stroke-opacity="0" stroke-width="2" fill="#fff" fill-opacity="0"/><use xlink:href="#ae" transform="matrix(1,0,0,1,465,1209) translate(18.525 14.4)"/><path d="M-299 2120h1978M-298.97 2120H-300M1678.97 2120h1.03M-300 2153.56V2121" stroke="#000" stroke-width="2" fill="none"/><path d="M-299 2154.56h-2v-1.02h2z"/><path d="M-300 2121.03V2120M-40 2153.56v-16.28h.33V2121" stroke="#000" stroke-width="2" fill="none"/><path d="M-39 2154.56h-2v-1.02h2z"/><path d="M-39.67 2121.03V2120M220 2158v-18.5h.17V2121" stroke="#000" stroke-width="2" fill="none"/><path d="M221 2159h-2v-1.03h2z"/><path d="M220.17 2121.03V2120M460 2158v-505.12" stroke="#000" stroke-width="2" fill="none"/><path d="M461 2159h-2v-1.03h2z"/><path d="M460 1637.6l4.64 14.28h-9.28z" stroke="#000" stroke-width="2"/><path d="M760 2153.56v-16.28h-.38V2121" stroke="#000" stroke-width="2" fill="none"/><path d="M761 2154.56h-2v-1.02h2z"/><path d="M759.62 2121.03V2120M1030 2153.56v-16.28h.43V2121" stroke="#000" stroke-width="2" fill="none"/><path d="M1031 2154.56h-2v-1.02h2z"/><path d="M1030.43 2121.03V2120M1280 2153.56v-16.28h-.06V2121" stroke="#000" stroke-width="2" fill="none"/><path d="M1281 2154.56h-2v-1.02h2z"/><path d="M1279.94 2121.03V2120M1680 2153.56V2121" stroke="#000" stroke-width="2" fill="none"/><path d="M1681 2154.56h-2v-1.02h2z"/><path d="M1680 2121.03V2120" stroke="#000" stroke-width="2" fill="none"/><path d="M1200 720h200v72h-200z" fill="#fff"/><path d="M1200 720h200v72h-200zM1200 760h200" stroke="#000" stroke-width="2" fill="none"/><use xlink:href="#ay" transform="matrix(1,0,0,1,1210,720) translate(51.074999999999996 23.6)"/><use xlink:href="#az" transform="matrix(1,0,0,1,1205,762.5) translate(0 17.1)"/><path d="M1300 794v205.95" stroke="#000" stroke-width="2" fill="none"/><path d="M1301 794.03h-2V793h2z"/><path d="M1300 999.93v1.02M1080 1057.75V1001" stroke="#000" stroke-width="2" fill="none"/><path d="M1081 1059.5l-1-.75-1 .75v-1.78h2z"/><path d="M1080 1001.03V1000M1081 1000l458.9 2M1081.03 1000H1080" stroke="#000" stroke-width="2" fill="none"/><path d="M1543.9 1001v1h-4.03v-1z"/><path d="M1540.9 1003v55.42" stroke="#000" stroke-width="2" fill="none"/><path d="M1541.9 1003.03h-2V1002h2zM1541.9 1060.17l-1.9-1.42-.1.08v-.43h2z"/><path d="M460 1081.8V922.1h260V762.4" stroke="#000" stroke-width="2" fill="none"/><path d="M461 1082.8h-2v-1h2z"/><path d="M720 762.44v-1.03M320 598V440h250.5" stroke="#000" stroke-width="2" fill="none"/><path d="M321 599h-2v-1.03h2z"/><path d="M585.76 440l-14.26 4.64v-9.28z" stroke="#000" stroke-width="2"/><path d="M720 571.5v188.9" stroke="#000" stroke-width="2" fill="none"/><path d="M720 556.24l4.64 14.26h-9.28z" stroke="#000" stroke-width="2"/><path d="M720 760.4v1M869.5 440H1295c2.76 0 5 2.24 5 5v273" stroke="#000" stroke-width="2" fill="none"/><path d="M854.24 440l14.26-4.64v9.28z" stroke="#000" stroke-width="2"/><path d="M1301 719h-2v-1.03h2z"/><path d="M260 1359.2c0 22.08-35.82 40-80 40s-80-17.92-80-40c0-22.1 35.82-40 80-40s80 17.9 80 40z" stroke="#000" stroke-width="2" fill="#fff"/><use xlink:href="#aA" transform="matrix(1,0,0,1,105,1324.1875) translate(54.55 38.4625)"/><path d="M262 1359.2h115.33" stroke="#000" stroke-width="2" fill="none"/><path d="M262.03 1360.2h-1.06l.03-1v-.2l-.03-.8h1.06zM378.33 1359.2l1.34 1h-2.36v-2h2.37z"/><path d="M919.6 1238l.4-138h104" stroke="#000" stroke-width="2" fill="none"/><path d="M920.6 1237.98v1.02h-2v-1.03zM1023.97 1100.77V1099h2.36z"/><path d="M919.6 1238l.4-138h104M919.6 1237.97v1.03M1023.97 1100h1.03" stroke="#000" stroke-width="2" fill="none"/><path d="M977.63 1238l2.37-81.82h65.57" stroke="#000" stroke-width="2" fill="none"/><path d="M978.63 1238l-.03 1h-2l.03-1.05zM1047.9 1157.18h-2.36v-1.77z"/><path d="M1328.44 1154.92v124.45" stroke="#000" stroke-width="2" fill="none"/><path d="M1329.44 1154.95h-2v-.28l2-1.5zM1329.44 1280.38h-2v-1.03h2z"/><path d="M1280.33 1279.38V1161.5" stroke="#000" stroke-width="2" fill="none"/><path d="M1281.33 1280.38h-2v-1.03h2zM1281.33 1161.25v.27h-2v-1.77z"/><path d="M1564.28 1164.04v115.34" stroke="#000" stroke-width="2" fill="none"/><path d="M1565.28 1164.07h-2v-.28l2-1.5zM1565.28 1280.38h-2v-1.03h2z"/><path d="M1512.97 1161.98v117.4" stroke="#000" stroke-width="2" fill="none"/><path d="M1513.97 1161.73v.27h-2v-1.77zM1513.97 1280.38h-2v-1.03h2z"/><defs><path d="M232-93c-1 65-40 97-104 97C67 4 28-28 28-90v-158h33c8 89-33 224 67 224 102 0 64-133 71-224h33v155" id="aB"/><path d="M135-143c-3-34-86-38-87 0 15 53 115 12 119 90S17 21 10-45l28-5c4 36 97 45 98 0-10-56-113-15-118-90-4-57 82-63 122-42 12 7 21 19 24 35" id="aC"/><path d="M100-194c63 0 86 42 84 106H49c0 40 14 67 53 68 26 1 43-12 49-29l28 8c-11 28-37 45-77 45C44 4 14-33 15-96c1-61 26-98 85-98zm52 81c6-60-76-77-97-28-3 7-6 17-6 28h103" id="aD"/><path d="M114-163C36-179 61-72 57 0H25l-1-190h30c1 12-1 29 2 39 6-27 23-49 58-41v29" id="aE"/><g id="a"><use transform="matrix(0.05,0,0,0.05,0,0)" xlink:href="#aB"/><use transform="matrix(0.05,0,0,0.05,12.950000000000001,0)" xlink:href="#aC"/><use transform="matrix(0.05,0,0,0.05,21.950000000000003,0)" xlink:href="#aD"/><use transform="matrix(0.05,0,0,0.05,31.950000000000003,0)" xlink:href="#aE"/><use transform="matrix(0.05,0,0,0.05,37.900000000000006,0)" xlink:href="#aC"/></g><path d="M84 4C-5 8 30-112 23-190h32v120c0 31 7 50 39 49 72-2 45-101 50-169h31l1 190h-30c-1-10 1-25-2-33-11 22-28 36-60 37" id="aF"/><path d="M-5 72V49h209v23H-5" id="aG"/><path d="M24-231v-30h32v30H24zM24 0v-190h32V0H24" id="aH"/><path d="M85-194c31 0 48 13 60 33l-1-100h32l1 261h-30c-2-10 0-23-3-31C134-8 116 4 85 4 32 4 16-35 15-94c0-66 23-100 70-100zm9 24c-40 0-46 34-46 75 0 40 6 74 45 74 42 0 51-32 51-76 0-42-9-74-50-73" id="aI"/><g id="b"><use transform="matrix(0.05,0,0,0.05,0,0)" xlink:href="#aF"/><use transform="matrix(0.05,0,0,0.05,10,0)" xlink:href="#aC"/><use transform="matrix(0.05,0,0,0.05,19,0)" xlink:href="#aD"/><use transform="matrix(0.05,0,0,0.05,29,0)" xlink:href="#aE"/><use transform="matrix(0.05,0,0,0.05,34.95,0)" xlink:href="#aG"/><use transform="matrix(0.05,0,0,0.05,44.95,0)" xlink:href="#aH"/><use transform="matrix(0.05,0,0,0.05,48.900000000000006,0)" xlink:href="#aI"/></g><path d="M101-234c-31-9-42 10-38 44h38v23H63V0H32v-167H5v-23h27c-7-52 17-82 69-68v24" id="aJ"/><path d="M59-47c-2 24 18 29 38 22v24C64 9 27 4 27-40v-127H5v-23h24l9-43h21v43h35v23H59v120" id="aK"/><path d="M117-194c89-4 53 116 60 194h-32v-121c0-31-8-49-39-48C34-167 62-67 57 0H25l-1-190h30c1 10-1 24 2 32 11-22 29-35 61-36" id="aL"/><path d="M141-36C126-15 110 5 73 4 37 3 15-17 15-53c-1-64 63-63 125-63 3-35-9-54-41-54-24 1-41 7-42 31l-33-3c5-37 33-52 76-52 45 0 72 20 72 64v82c-1 20 7 32 28 27v20c-31 9-61-2-59-35zM48-53c0 20 12 33 32 33 41-3 63-29 60-74-43 2-92-5-92 41" id="aM"/><path d="M210-169c-67 3-38 105-44 169h-31v-121c0-29-5-50-35-48C34-165 62-65 56 0H25l-1-190h30c1 10-1 24 2 32 10-44 99-50 107 0 11-21 27-35 58-36 85-2 47 119 55 194h-31v-121c0-29-5-49-35-48" id="aN"/><g id="c"><use transform="matrix(0.05,0,0,0.05,0,0)" xlink:href="#aF"/><use transform="matrix(0.05,0,0,0.05,10,0)" xlink:href="#aC"/><use transform="matrix(0.05,0,0,0.05,19,0)" xlink:href="#aD"/><use transform="matrix(0.05,0,0,0.05,29,0)" xlink:href="#aE"/><use transform="matrix(0.05,0,0,0.05,34.95,0)" xlink:href="#aG"/><use transform="matrix(0.05,0,0,0.05,44.95,0)" xlink:href="#aJ"/><use transform="matrix(0.05,0,0,0.05,49.95,0)" xlink:href="#aH"/><use transform="matrix(0.05,0,0,0.05,53.900000000000006,0)" xlink:href="#aE"/><use transform="matrix(0.05,0,0,0.05,59.85,0)" xlink:href="#aC"/><use transform="matrix(0.05,0,0,0.05,68.85000000000001,0)" xlink:href="#aK"/><use transform="matrix(0.05,0,0,0.05,73.85000000000001,0)" xlink:href="#aG"/><use transform="matrix(0.05,0,0,0.05,83.85000000000001,0)" xlink:href="#aL"/><use transform="matrix(0.05,0,0,0.05,93.85000000000001,0)" xlink:href="#aM"/><use transform="matrix(0.05,0,0,0.05,103.85000000000001,0)" xlink:href="#aN"/><use transform="matrix(0.05,0,0,0.05,118.80000000000001,0)" xlink:href="#aD"/></g><path d="M24 0v-261h32V0H24" id="aO"/><g id="d"><use transform="matrix(0.05,0,0,0.05,0,0)" xlink:href="#aF"/><use transform="matrix(0.05,0,0,0.05,10,0)" xlink:href="#aC"/><use transform="matrix(0.05,0,0,0.05,19,0)" xlink:href="#aD"/><use transform="matrix(0.05,0,0,0.05,29,0)" xlink:href="#aE"/><use transform="matrix(0.05,0,0,0.05,34.95,0)" xlink:href="#aG"/><use transform="matrix(0.05,0,0,0.05,44.95,0)" xlink:href="#aO"/><use transform="matrix(0.05,0,0,0.05,48.900000000000006,0)" xlink:href="#aM"/><use transform="matrix(0.05,0,0,0.05,58.900000000000006,0)" xlink:href="#aC"/><use transform="matrix(0.05,0,0,0.05,67.9,0)" xlink:href="#aK"/><use transform="matrix(0.05,0,0,0.05,72.9,0)" xlink:href="#aG"/><use transform="matrix(0.05,0,0,0.05,82.9,0)" xlink:href="#aL"/><use transform="matrix(0.05,0,0,0.05,92.9,0)" xlink:href="#aM"/><use transform="matrix(0.05,0,0,0.05,102.9,0)" xlink:href="#aN"/><use transform="matrix(0.05,0,0,0.05,117.85000000000001,0)" xlink:href="#aD"/></g><path d="M100-194c62-1 85 37 85 99 1 63-27 99-86 99S16-35 15-95c0-66 28-99 85-99zM99-20c44 1 53-31 53-75 0-43-8-75-51-75s-53 32-53 75 10 74 51 75" id="aP"/><path d="M96-169c-40 0-48 33-48 73s9 75 48 75c24 0 41-14 43-38l32 2c-6 37-31 61-74 61-59 0-76-41-82-99-10-93 101-131 147-64 4 7 5 14 7 22l-32 3c-4-21-16-35-41-35" id="aQ"/><g id="e"><use transform="matrix(0.05,0,0,0.05,0,0)" xlink:href="#aF"/><use transform="matrix(0.05,0,0,0.05,10,0)" xlink:href="#aC"/><use transform="matrix(0.05,0,0,0.05,19,0)" xlink:href="#aD"/><use transform="matrix(0.05,0,0,0.05,29,0)" xlink:href="#aE"/><use transform="matrix(0.05,0,0,0.05,34.95,0)" xlink:href="#aG"/><use transform="matrix(0.05,0,0,0.05,44.95,0)" xlink:href="#aO"/><use transform="matrix(0.05,0,0,0.05,48.900000000000006,0)" xlink:href="#aP"/><use transform="matrix(0.05,0,0,0.05,58.900000000000006,0)" xlink:href="#aQ"/><use transform="matrix(0.05,0,0,0.05,67.9,0)" xlink:href="#aM"/><use transform="matrix(0.05,0,0,0.05,77.9,0)" xlink:href="#aK"/><use transform="matrix(0.05,0,0,0.05,82.9,0)" xlink:href="#aH"/><use transform="matrix(0.05,0,0,0.05,86.85000000000001,0)" xlink:href="#aP"/><use transform="matrix(0.05,0,0,0.05,96.85000000000001,0)" xlink:href="#aL"/></g><g id="f"><use transform="matrix(0.05,0,0,0.05,0,0)" xlink:href="#aF"/><use transform="matrix(0.05,0,0,0.05,10,0)" xlink:href="#aC"/><use transform="matrix(0.05,0,0,0.05,19,0)" xlink:href="#aD"/><use transform="matrix(0.05,0,0,0.05,29,0)" xlink:href="#aE"/><use transform="matrix(0.05,0,0,0.05,34.95,0)" xlink:href="#aG"/><use transform="matrix(0.05,0,0,0.05,44.95,0)" xlink:href="#aL"/><use transform="matrix(0.05,0,0,0.05,54.95,0)" xlink:href="#aM"/><use transform="matrix(0.05,0,0,0.05,64.95,0)" xlink:href="#aN"/><use transform="matrix(0.05,0,0,0.05,79.9,0)" xlink:href="#aD"/></g><path d="M115-194c55 1 70 41 70 98S169 2 115 4C84 4 66-9 55-30l1 105H24l-1-265h31l2 30c10-21 28-34 59-34zm-8 174c40 0 45-34 45-75s-6-73-45-74c-42 0-51 32-51 76 0 43 10 73 51 73" id="aR"/><path d="M206 0h-36l-40-164L89 0H53L-1-190h32L70-26l43-164h34l41 164 42-164h31" id="aS"/><g id="g"><use transform="matrix(0.05,0,0,0.05,0,0)" xlink:href="#aF"/><use transform="matrix(0.05,0,0,0.05,10,0)" xlink:href="#aC"/><use transform="matrix(0.05,0,0,0.05,19,0)" xlink:href="#aD"/><use transform="matrix(0.05,0,0,0.05,29,0)" xlink:href="#aE"/><use transform="matrix(0.05,0,0,0.05,34.95,0)" xlink:href="#aG"/><use transform="matrix(0.05,0,0,0.05,44.95,0)" xlink:href="#aR"/><use transform="matrix(0.05,0,0,0.05,54.95,0)" xlink:href="#aM"/><use transform="matrix(0.05,0,0,0.05,64.95,0)" xlink:href="#aC"/><use transform="matrix(0.05,0,0,0.05,73.95,0)" xlink:href="#aC"/><use transform="matrix(0.05,0,0,0.05,82.95,0)" xlink:href="#aS"/><use transform="matrix(0.05,0,0,0.05,95.9,0)" xlink:href="#aP"/><use transform="matrix(0.05,0,0,0.05,105.9,0)" xlink:href="#aE"/><use transform="matrix(0.05,0,0,0.05,111.85000000000001,0)" xlink:href="#aI"/></g><path d="M30-248c87 1 191-15 191 75 0 78-77 80-158 76V0H30v-248zm33 125c57 0 124 11 124-50 0-59-68-47-124-48v98" id="aT"/><path d="M233-177c-1 41-23 64-60 70L243 0h-38l-65-103H63V0H30v-248c88 3 205-21 203 71zM63-129c60-2 137 13 137-47 0-61-80-42-137-45v92" id="aU"/><g id="h"><use transform="matrix(0.05,0,0,0.05,0,0)" xlink:href="#aT"/><use transform="matrix(0.05,0,0,0.05,12,0)" xlink:href="#aP"/><use transform="matrix(0.05,0,0,0.05,22,0)" xlink:href="#aS"/><use transform="matrix(0.05,0,0,0.05,34.95,0)" xlink:href="#aD"/><use transform="matrix(0.05,0,0,0.05,44.95,0)" xlink:href="#aE"/><use transform="matrix(0.05,0,0,0.05,50.900000000000006,0)" xlink:href="#aU"/><use transform="matrix(0.05,0,0,0.05,63.85,0)" xlink:href="#aD"/><use transform="matrix(0.05,0,0,0.05,73.85000000000001,0)" xlink:href="#aC"/><use transform="matrix(0.05,0,0,0.05,82.85000000000001,0)" xlink:href="#aP"/><use transform="matrix(0.05,0,0,0.05,92.85000000000001,0)" xlink:href="#aF"/><use transform="matrix(0.05,0,0,0.05,102.85000000000001,0)" xlink:href="#aE"/><use transform="matrix(0.05,0,0,0.05,108.80000000000001,0)" xlink:href="#aQ"/><use transform="matrix(0.05,0,0,0.05,117.80000000000001,0)" xlink:href="#aD"/><use transform="matrix(0.05,0,0,0.05,127.80000000000001,0)" xlink:href="#aC"/></g><g id="i"><use transform="matrix(0.05,0,0,0.05,0,0)" xlink:href="#aR"/><use transform="matrix(0.05,0,0,0.05,10,0)" xlink:href="#aP"/><use transform="matrix(0.05,0,0,0.05,20,0)" xlink:href="#aS"/><use transform="matrix(0.05,0,0,0.05,32.95,0)" xlink:href="#aD"/><use transform="matrix(0.05,0,0,0.05,42.95,0)" xlink:href="#aE"/><use transform="matrix(0.05,0,0,0.05,48.900000000000006,0)" xlink:href="#aG"/><use transform="matrix(0.05,0,0,0.05,58.900000000000006,0)" xlink:href="#aH"/><use transform="matrix(0.05,0,0,0.05,62.85,0)" xlink:href="#aI"/></g><path d="M177-190C167-65 218 103 67 71c-23-6-38-20-44-43l32-5c15 47 100 32 89-28v-30C133-14 115 1 83 1 29 1 15-40 15-95c0-56 16-97 71-98 29-1 48 16 59 35 1-10 0-23 2-32h30zM94-22c36 0 50-32 50-73 0-42-14-75-50-75-39 0-46 34-46 75s6 73 46 73" id="aV"/><path d="M179-190L93 31C79 59 56 82 12 73V49c39 6 53-20 64-50L1-190h34L92-34l54-156h33" id="aW"/><g id="j"><use transform="matrix(0.05,0,0,0.05,0,0)" xlink:href="#aR"/><use transform="matrix(0.05,0,0,0.05,10,0)" xlink:href="#aP"/><use transform="matrix(0.05,0,0,0.05,20,0)" xlink:href="#aS"/><use transform="matrix(0.05,0,0,0.05,32.95,0)" xlink:href="#aD"/><use transform="matrix(0.05,0,0,0.05,42.95,0)" xlink:href="#aE"/><use transform="matrix(0.05,0,0,0.05,48.900000000000006,0)" xlink:href="#aG"/><use transform="matrix(0.05,0,0,0.05,58.900000000000006,0)" xlink:href="#aQ"/><use transform="matrix(0.05,0,0,0.05,67.9,0)" xlink:href="#aM"/><use transform="matrix(0.05,0,0,0.05,77.9,0)" xlink:href="#aK"/><use transform="matrix(0.05,0,0,0.05,82.9,0)" xlink:href="#aD"/><use transform="matrix(0.05,0,0,0.05,92.9,0)" xlink:href="#aV"/><use transform="matrix(0.05,0,0,0.05,102.9,0)" xlink:href="#aP"/><use transform="matrix(0.05,0,0,0.05,112.9,0)" xlink:href="#aE"/><use transform="matrix(0.05,0,0,0.05,118.85000000000001,0)" xlink:href="#aW"/></g><g id="k"><use transform="matrix(0.05,0,0,0.05,0,0)" xlink:href="#aR"/><use transform="matrix(0.05,0,0,0.05,10,0)" xlink:href="#aP"/><use transform="matrix(0.05,0,0,0.05,20,0)" xlink:href="#aS"/><use transform="matrix(0.05,0,0,0.05,32.95,0)" xlink:href="#aD"/><use transform="matrix(0.05,0,0,0.05,42.95,0)" xlink:href="#aE"/><use transform="matrix(0.05,0,0,0.05,48.900000000000006,0)" xlink:href="#aG"/><use transform="matrix(0.05,0,0,0.05,58.900000000000006,0)" xlink:href="#aK"/><use transform="matrix(0.05,0,0,0.05,63.900000000000006,0)" xlink:href="#aW"/><use transform="matrix(0.05,0,0,0.05,72.9,0)" xlink:href="#aR"/><use transform="matrix(0.05,0,0,0.05,82.9,0)" xlink:href="#aD"/></g><g id="l"><use transform="matrix(0.05,0,0,0.05,0,0)" xlink:href="#aR"/><use transform="matrix(0.05,0,0,0.05,10,0)" xlink:href="#aP"/><use transform="matrix(0.05,0,0,0.05,20,0)" xlink:href="#aS"/><use transform="matrix(0.05,0,0,0.05,32.95,0)" xlink:href="#aD"/><use transform="matrix(0.05,0,0,0.05,42.95,0)" xlink:href="#aE"/><use transform="matrix(0.05,0,0,0.05,48.900000000000006,0)" xlink:href="#aG"/><use transform="matrix(0.05,0,0,0.05,58.900000000000006,0)" xlink:href="#aI"/><use transform="matrix(0.05,0,0,0.05,68.9,0)" xlink:href="#aD"/><use transform="matrix(0.05,0,0,0.05,78.9,0)" xlink:href="#aC"/><use transform="matrix(0.05,0,0,0.05,87.9,0)" xlink:href="#aQ"/><use transform="matrix(0.05,0,0,0.05,96.9,0)" xlink:href="#aE"/><use transform="matrix(0.05,0,0,0.05,102.85000000000001,0)" xlink:href="#aH"/><use transform="matrix(0.05,0,0,0.05,106.80000000000001,0)" xlink:href="#aR"/><use transform="matrix(0.05,0,0,0.05,116.80000000000001,0)" xlink:href="#aK"/><use transform="matrix(0.05,0,0,0.05,121.80000000000001,0)" xlink:href="#aH"/><use transform="matrix(0.05,0,0,0.05,125.75,0)" xlink:href="#aP"/><use transform="matrix(0.05,0,0,0.05,135.75,0)" xlink:href="#aL"/></g><path d="M212-179c-10-28-35-45-73-45-59 0-87 40-87 99 0 60 29 101 89 101 43 0 62-24 78-52l27 14C228-24 195 4 139 4 59 4 22-46 18-125c-6-104 99-153 187-111 19 9 31 26 39 46" id="aX"/><path d="M106-169C34-169 62-67 57 0H25v-261h32l-1 103c12-21 28-36 61-36 89 0 53 116 60 194h-32v-121c2-32-8-49-39-48" id="aY"/><g id="m"><use transform="matrix(0.05,0,0,0.05,0,0)" xlink:href="#aX"/><use transform="matrix(0.05,0,0,0.05,12.950000000000001,0)" xlink:href="#aO"/><use transform="matrix(0.05,0,0,0.05,16.900000000000002,0)" xlink:href="#aP"/><use transform="matrix(0.05,0,0,0.05,26.900000000000002,0)" xlink:href="#aK"/><use transform="matrix(0.05,0,0,0.05,31.900000000000002,0)" xlink:href="#aY"/><use transform="matrix(0.05,0,0,0.05,41.900000000000006,0)" xlink:href="#aH"/><use transform="matrix(0.05,0,0,0.05,45.85000000000001,0)" xlink:href="#aL"/><use transform="matrix(0.05,0,0,0.05,55.85,0)" xlink:href="#aV"/></g><g id="n"><use transform="matrix(0.05,0,0,0.05,0,0)" xlink:href="#aQ"/><use transform="matrix(0.05,0,0,0.05,9,0)" xlink:href="#aO"/><use transform="matrix(0.05,0,0,0.05,12.949999999999998,0)" xlink:href="#aP"/><use transform="matrix(0.05,0,0,0.05,22.95,0)" xlink:href="#aK"/><use transform="matrix(0.05,0,0,0.05,27.950000000000003,0)" xlink:href="#aY"/><use transform="matrix(0.05,0,0,0.05,37.95,0)" xlink:href="#aD"/><use transform="matrix(0.05,0,0,0.05,47.95,0)" xlink:href="#aG"/><use transform="matrix(0.05,0,0,0.05,57.95,0)" xlink:href="#aH"/><use transform="matrix(0.05,0,0,0.05,61.900000000000006,0)" xlink:href="#aI"/></g><g id="o"><use transform="matrix(0.05,0,0,0.05,0,0)" xlink:href="#aQ"/><use transform="matrix(0.05,0,0,0.05,9,0)" xlink:href="#aO"/><use transform="matrix(0.05,0,0,0.05,12.949999999999998,0)" xlink:href="#aP"/><use transform="matrix(0.05,0,0,0.05,22.95,0)" xlink:href="#aK"/><use transform="matrix(0.05,0,0,0.05,27.950000000000003,0)" xlink:href="#aY"/><use transform="matrix(0.05,0,0,0.05,37.95,0)" xlink:href="#aD"/><use transform="matrix(0.05,0,0,0.05,47.95,0)" xlink:href="#aG"/><use transform="matrix(0.05,0,0,0.05,57.95,0)" xlink:href="#aK"/><use transform="matrix(0.05,0,0,0.05,62.95,0)" xlink:href="#aW"/><use transform="matrix(0.05,0,0,0.05,71.95,0)" xlink:href="#aR"/><use transform="matrix(0.05,0,0,0.05,81.95,0)" xlink:href="#aD"/></g><path d="M9 0v-24l116-142H16v-24h144v24L44-24h123V0H9" id="aZ"/><g id="p"><use transform="matrix(0.05,0,0,0.05,0,0)" xlink:href="#aQ"/><use transform="matrix(0.05,0,0,0.05,9,0)" xlink:href="#aO"/><use transform="matrix(0.05,0,0,0.05,12.949999999999998,0)" xlink:href="#aP"/><use transform="matrix(0.05,0,0,0.05,22.95,0)" xlink:href="#aK"/><use transform="matrix(0.05,0,0,0.05,27.950000000000003,0)" xlink:href="#aY"/><use transform="matrix(0.05,0,0,0.05,37.95,0)" xlink:href="#aD"/><use transform="matrix(0.05,0,0,0.05,47.95,0)" xlink:href="#aG"/><use transform="matrix(0.05,0,0,0.05,57.95,0)" xlink:href="#aC"/><use transform="matrix(0.05,0,0,0.05,66.95,0)" xlink:href="#aH"/><use transform="matrix(0.05,0,0,0.05,70.9,0)" xlink:href="#aZ"/><use transform="matrix(0.05,0,0,0.05,79.9,0)" xlink:href="#aD"/></g><g id="q"><use transform="matrix(0.05,0,0,0.05,0,0)" xlink:href="#aQ"/><use transform="matrix(0.05,0,0,0.05,9,0)" xlink:href="#aO"/><use transform="matrix(0.05,0,0,0.05,12.949999999999998,0)" xlink:href="#aP"/><use transform="matrix(0.05,0,0,0.05,22.95,0)" xlink:href="#aK"/><use transform="matrix(0.05,0,0,0.05,27.950000000000003,0)" xlink:href="#aY"/><use transform="matrix(0.05,0,0,0.05,37.95,0)" xlink:href="#aD"/><use transform="matrix(0.05,0,0,0.05,47.95,0)" xlink:href="#aG"/><use transform="matrix(0.05,0,0,0.05,57.95,0)" xlink:href="#aI"/><use transform="matrix(0.05,0,0,0.05,67.95,0)" xlink:href="#aD"/><use transform="matrix(0.05,0,0,0.05,77.95,0)" xlink:href="#aC"/><use transform="matrix(0.05,0,0,0.05,86.95,0)" xlink:href="#aQ"/><use transform="matrix(0.05,0,0,0.05,95.95,0)" xlink:href="#aE"/><use transform="matrix(0.05,0,0,0.05,101.9,0)" xlink:href="#aH"/><use transform="matrix(0.05,0,0,0.05,105.85000000000001,0)" xlink:href="#aR"/><use transform="matrix(0.05,0,0,0.05,115.85000000000001,0)" xlink:href="#aK"/><use transform="matrix(0.05,0,0,0.05,120.85000000000001,0)" xlink:href="#aH"/><use transform="matrix(0.05,0,0,0.05,124.80000000000001,0)" xlink:href="#aP"/><use transform="matrix(0.05,0,0,0.05,134.8,0)" xlink:href="#aL"/></g><path d="M63-220v92h138v28H63V0H30v-248h175v28H63" id="ba"/><g id="r"><use transform="matrix(0.05,0,0,0.05,0,0)" xlink:href="#ba"/><use transform="matrix(0.05,0,0,0.05,10.950000000000001,0)" xlink:href="#aP"/><use transform="matrix(0.05,0,0,0.05,20.950000000000003,0)" xlink:href="#aP"/><use transform="matrix(0.05,0,0,0.05,30.950000000000003,0)" xlink:href="#aI"/></g><g id="s"><use transform="matrix(0.05,0,0,0.05,0,0)" xlink:href="#aJ"/><use transform="matrix(0.05,0,0,0.05,5,0)" xlink:href="#aP"/><use transform="matrix(0.05,0,0,0.05,15,0)" xlink:href="#aP"/><use transform="matrix(0.05,0,0,0.05,25,0)" xlink:href="#aI"/><use transform="matrix(0.05,0,0,0.05,35,0)" xlink:href="#aG"/><use transform="matrix(0.05,0,0,0.05,45,0)" xlink:href="#aH"/><use transform="matrix(0.05,0,0,0.05,48.95,0)" xlink:href="#aI"/></g><g id="t"><use transform="matrix(0.05,0,0,0.05,0,0)" xlink:href="#aJ"/><use transform="matrix(0.05,0,0,0.05,5,0)" xlink:href="#aP"/><use transform="matrix(0.05,0,0,0.05,15,0)" xlink:href="#aP"/><use transform="matrix(0.05,0,0,0.05,25,0)" xlink:href="#aI"/><use transform="matrix(0.05,0,0,0.05,35,0)" xlink:href="#aG"/><use transform="matrix(0.05,0,0,0.05,45,0)" xlink:href="#aL"/><use transform="matrix(0.05,0,0,0.05,55,0)" xlink:href="#aM"/><use transform="matrix(0.05,0,0,0.05,65,0)" xlink:href="#aN"/><use transform="matrix(0.05,0,0,0.05,79.95,0)" xlink:href="#aD"/></g><path d="M141 0L90-78 38 0H4l68-98-65-92h35l48 74 47-74h35l-64 92 68 98h-35" id="bb"/><g id="u"><use transform="matrix(0.05,0,0,0.05,0,0)" xlink:href="#aJ"/><use transform="matrix(0.05,0,0,0.05,5,0)" xlink:href="#aP"/><use transform="matrix(0.05,0,0,0.05,15,0)" xlink:href="#aP"/><use transform="matrix(0.05,0,0,0.05,25,0)" xlink:href="#aI"/><use transform="matrix(0.05,0,0,0.05,35,0)" xlink:href="#aG"/><use transform="matrix(0.05,0,0,0.05,45,0)" xlink:href="#aD"/><use transform="matrix(0.05,0,0,0.05,55,0)" xlink:href="#bb"/><use transform="matrix(0.05,0,0,0.05,64,0)" xlink:href="#aR"/><use transform="matrix(0.05,0,0,0.05,74,0)" xlink:href="#aG"/><use transform="matrix(0.05,0,0,0.05,84,0)" xlink:href="#aI"/><use transform="matrix(0.05,0,0,0.05,94,0)" xlink:href="#aM"/><use transform="matrix(0.05,0,0,0.05,104,0)" xlink:href="#aK"/><use transform="matrix(0.05,0,0,0.05,109,0)" xlink:href="#aD"/></g><g id="v"><use transform="matrix(0.05,0,0,0.05,0,0)" xlink:href="#aJ"/><use transform="matrix(0.05,0,0,0.05,5,0)" xlink:href="#aP"/><use transform="matrix(0.05,0,0,0.05,15,0)" xlink:href="#aP"/><use transform="matrix(0.05,0,0,0.05,25,0)" xlink:href="#aI"/><use transform="matrix(0.05,0,0,0.05,35,0)" xlink:href="#aG"/><use transform="matrix(0.05,0,0,0.05,45,0)" xlink:href="#aK"/><use transform="matrix(0.05,0,0,0.05,50,0)" xlink:href="#aW"/><use transform="matrix(0.05,0,0,0.05,59,0)" xlink:href="#aR"/><use transform="matrix(0.05,0,0,0.05,69,0)" xlink:href="#aD"/></g><g id="w"><use transform="matrix(0.05,0,0,0.05,0,0)" xlink:href="#aJ"/><use transform="matrix(0.05,0,0,0.05,5,0)" xlink:href="#aP"/><use transform="matrix(0.05,0,0,0.05,15,0)" xlink:href="#aP"/><use transform="matrix(0.05,0,0,0.05,25,0)" xlink:href="#aI"/><use transform="matrix(0.05,0,0,0.05,35,0)" xlink:href="#aG"/><use transform="matrix(0.05,0,0,0.05,45,0)" xlink:href="#aI"/><use transform="matrix(0.05,0,0,0.05,55,0)" xlink:href="#aD"/><use transform="matrix(0.05,0,0,0.05,65,0)" xlink:href="#aC"/><use transform="matrix(0.05,0,0,0.05,74,0)" xlink:href="#aQ"/><use transform="matrix(0.05,0,0,0.05,83,0)" xlink:href="#aE"/><use transform="matrix(0.05,0,0,0.05,88.95,0)" xlink:href="#aH"/><use transform="matrix(0.05,0,0,0.05,92.9,0)" xlink:href="#aR"/><use transform="matrix(0.05,0,0,0.05,102.9,0)" xlink:href="#aK"/><use transform="matrix(0.05,0,0,0.05,107.9,0)" xlink:href="#aH"/><use transform="matrix(0.05,0,0,0.05,111.85000000000001,0)" xlink:href="#aP"/><use transform="matrix(0.05,0,0,0.05,121.85000000000001,0)" xlink:href="#aL"/></g><path d="M127-220V0H93v-220H8v-28h204v28h-85" id="bc"/><g id="x"><use transform="matrix(0.05,0,0,0.05,0,0)" xlink:href="#bc"/><use transform="matrix(0.05,0,0,0.05,8.950000000000001,0)" xlink:href="#aP"/><use transform="matrix(0.05,0,0,0.05,18.950000000000003,0)" xlink:href="#aP"/><use transform="matrix(0.05,0,0,0.05,28.950000000000003,0)" xlink:href="#aO"/><use transform="matrix(0.05,0,0,0.05,32.900000000000006,0)" xlink:href="#aC"/></g><g id="y"><use transform="matrix(0.05,0,0,0.05,0,0)" xlink:href="#aK"/><use transform="matrix(0.05,0,0,0.05,5,0)" xlink:href="#aP"/><use transform="matrix(0.05,0,0,0.05,15,0)" xlink:href="#aP"/><use transform="matrix(0.05,0,0,0.05,25,0)" xlink:href="#aO"/><use transform="matrix(0.05,0,0,0.05,28.950000000000003,0)" xlink:href="#aG"/><use transform="matrix(0.05,0,0,0.05,38.95,0)" xlink:href="#aH"/><use transform="matrix(0.05,0,0,0.05,42.900000000000006,0)" xlink:href="#aI"/></g><g id="z"><use transform="matrix(0.05,0,0,0.05,0,0)" xlink:href="#aK"/><use transform="matrix(0.05,0,0,0.05,5,0)" xlink:href="#aP"/><use transform="matrix(0.05,0,0,0.05,15,0)" xlink:href="#aP"/><use transform="matrix(0.05,0,0,0.05,25,0)" xlink:href="#aO"/><use transform="matrix(0.05,0,0,0.05,28.950000000000003,0)" xlink:href="#aG"/><use transform="matrix(0.05,0,0,0.05,38.95,0)" xlink:href="#aL"/><use transform="matrix(0.05,0,0,0.05,48.95,0)" xlink:href="#aM"/><use transform="matrix(0.05,0,0,0.05,58.95,0)" xlink:href="#aN"/><use transform="matrix(0.05,0,0,0.05,73.9,0)" xlink:href="#aD"/></g><g id="A"><use transform="matrix(0.05,0,0,0.05,0,0)" xlink:href="#aK"/><use transform="matrix(0.05,0,0,0.05,5,0)" xlink:href="#aP"/><use transform="matrix(0.05,0,0,0.05,15,0)" xlink:href="#aP"/><use transform="matrix(0.05,0,0,0.05,25,0)" xlink:href="#aO"/><use transform="matrix(0.05,0,0,0.05,28.950000000000003,0)" xlink:href="#aG"/><use transform="matrix(0.05,0,0,0.05,38.95,0)" xlink:href="#aI"/><use transform="matrix(0.05,0,0,0.05,48.95,0)" xlink:href="#aD"/><use transform="matrix(0.05,0,0,0.05,58.95,0)" xlink:href="#aC"/><use transform="matrix(0.05,0,0,0.05,67.95,0)" xlink:href="#aQ"/><use transform="matrix(0.05,0,0,0.05,76.95,0)" xlink:href="#aE"/><use transform="matrix(0.05,0,0,0.05,82.9,0)" xlink:href="#aH"/><use transform="matrix(0.05,0,0,0.05,86.85000000000001,0)" xlink:href="#aR"/><use transform="matrix(0.05,0,0,0.05,96.85000000000001,0)" xlink:href="#aK"/><use transform="matrix(0.05,0,0,0.05,101.85000000000001,0)" xlink:href="#aH"/><use transform="matrix(0.05,0,0,0.05,105.80000000000001,0)" xlink:href="#aP"/><use transform="matrix(0.05,0,0,0.05,115.80000000000001,0)" xlink:href="#aL"/></g><path d="M197 0v-115H63V0H30v-248h33v105h134v-105h34V0h-34" id="bd"/><path d="M108 0H70L1-190h34L89-25l56-165h34" id="be"/><g id="B"><use transform="matrix(0.05,0,0,0.05,0,0)" xlink:href="#bd"/><use transform="matrix(0.05,0,0,0.05,12.950000000000001,0)" xlink:href="#aD"/><use transform="matrix(0.05,0,0,0.05,22.950000000000003,0)" xlink:href="#aM"/><use transform="matrix(0.05,0,0,0.05,32.95,0)" xlink:href="#be"/><use transform="matrix(0.05,0,0,0.05,41.95,0)" xlink:href="#aW"/></g><path d="M30 0v-248h187v28H63v79h144v27H63v87h162V0H30" id="bf"/><path d="M145-31C134-9 116 4 85 4 32 4 16-35 15-94c0-59 17-99 70-100 32-1 48 14 60 33 0-11-1-24 2-32h30l-1 268h-32zM93-21c41 0 51-33 51-76s-8-73-50-73c-40 0-46 35-46 75s5 74 45 74" id="bg"/><g id="C"><use transform="matrix(0.05,0,0,0.05,0,0)" xlink:href="#bf"/><use transform="matrix(0.05,0,0,0.05,12,0)" xlink:href="#bg"/><use transform="matrix(0.05,0,0,0.05,22,0)" xlink:href="#aF"/><use transform="matrix(0.05,0,0,0.05,32,0)" xlink:href="#aH"/><use transform="matrix(0.05,0,0,0.05,35.95,0)" xlink:href="#aR"/><use transform="matrix(0.05,0,0,0.05,45.95,0)" xlink:href="#aN"/><use transform="matrix(0.05,0,0,0.05,60.900000000000006,0)" xlink:href="#aD"/><use transform="matrix(0.05,0,0,0.05,70.9,0)" xlink:href="#aL"/><use transform="matrix(0.05,0,0,0.05,80.9,0)" xlink:href="#aK"/></g><g id="D"><use transform="matrix(0.05,0,0,0.05,0,0)" xlink:href="#aY"/><use transform="matrix(0.05,0,0,0.05,10,0)" xlink:href="#aD"/><use transform="matrix(0.05,0,0,0.05,20,0)" xlink:href="#aM"/><use transform="matrix(0.05,0,0,0.05,30,0)" xlink:href="#be"/><use transform="matrix(0.05,0,0,0.05,39,0)" xlink:href="#aW"/><use transform="matrix(0.05,0,0,0.05,48,0)" xlink:href="#aG"/><use transform="matrix(0.05,0,0,0.05,58,0)" xlink:href="#aH"/><use transform="matrix(0.05,0,0,0.05,61.95,0)" xlink:href="#aI"/></g><g id="E"><use transform="matrix(0.05,0,0,0.05,0,0)" xlink:href="#aY"/><use transform="matrix(0.05,0,0,0.05,10,0)" xlink:href="#aD"/><use transform="matrix(0.05,0,0,0.05,20,0)" xlink:href="#aM"/><use transform="matrix(0.05,0,0,0.05,30,0)" xlink:href="#be"/><use transform="matrix(0.05,0,0,0.05,39,0)" xlink:href="#aW"/><use transform="matrix(0.05,0,0,0.05,48,0)" xlink:href="#aG"/><use transform="matrix(0.05,0,0,0.05,58,0)" xlink:href="#aL"/><use transform="matrix(0.05,0,0,0.05,68,0)" xlink:href="#aM"/><use transform="matrix(0.05,0,0,0.05,78,0)" xlink:href="#aN"/><use transform="matrix(0.05,0,0,0.05,92.95,0)" xlink:href="#aD"/></g><g id="F"><use transform="matrix(0.05,0,0,0.05,0,0)" xlink:href="#aY"/><use transform="matrix(0.05,0,0,0.05,10,0)" xlink:href="#aD"/><use transform="matrix(0.05,0,0,0.05,20,0)" xlink:href="#aM"/><use transform="matrix(0.05,0,0,0.05,30,0)" xlink:href="#be"/><use transform="matrix(0.05,0,0,0.05,39,0)" xlink:href="#aW"/><use transform="matrix(0.05,0,0,0.05,48,0)" xlink:href="#aG"/><use transform="matrix(0.05,0,0,0.05,58,0)" xlink:href="#aI"/><use transform="matrix(0.05,0,0,0.05,68,0)" xlink:href="#aD"/><use transform="matrix(0.05,0,0,0.05,78,0)" xlink:href="#aC"/><use transform="matrix(0.05,0,0,0.05,87,0)" xlink:href="#aQ"/><use transform="matrix(0.05,0,0,0.05,96,0)" xlink:href="#aE"/><use transform="matrix(0.05,0,0,0.05,101.95,0)" xlink:href="#aH"/><use transform="matrix(0.05,0,0,0.05,105.9,0)" xlink:href="#aR"/><use transform="matrix(0.05,0,0,0.05,115.9,0)" xlink:href="#aK"/><use transform="matrix(0.05,0,0,0.05,120.9,0)" xlink:href="#aH"/><use transform="matrix(0.05,0,0,0.05,124.85000000000001,0)" xlink:href="#aP"/><use transform="matrix(0.05,0,0,0.05,134.85000000000002,0)" xlink:href="#aL"/></g><g id="G"><use transform="matrix(0.05,0,0,0.05,0,0)" xlink:href="#ba"/><use transform="matrix(0.05,0,0,0.05,10.950000000000001,0)" xlink:href="#aF"/><use transform="matrix(0.05,0,0,0.05,20.950000000000003,0)" xlink:href="#aD"/><use transform="matrix(0.05,0,0,0.05,30.950000000000003,0)" xlink:href="#aO"/></g><g id="H"><use transform="matrix(0.05,0,0,0.05,0,0)" xlink:href="#aJ"/><use transform="matrix(0.05,0,0,0.05,5,0)" xlink:href="#aF"/><use transform="matrix(0.05,0,0,0.05,15,0)" xlink:href="#aD"/><use transform="matrix(0.05,0,0,0.05,25,0)" xlink:href="#aO"/><use transform="matrix(0.05,0,0,0.05,28.950000000000003,0)" xlink:href="#aG"/><use transform="matrix(0.05,0,0,0.05,38.95,0)" xlink:href="#aH"/><use transform="matrix(0.05,0,0,0.05,42.900000000000006,0)" xlink:href="#aI"/></g><g id="I"><use transform="matrix(0.05,0,0,0.05,0,0)" xlink:href="#aJ"/><use transform="matrix(0.05,0,0,0.05,5,0)" xlink:href="#aF"/><use transform="matrix(0.05,0,0,0.05,15,0)" xlink:href="#aD"/><use transform="matrix(0.05,0,0,0.05,25,0)" xlink:href="#aO"/><use transform="matrix(0.05,0,0,0.05,28.950000000000003,0)" xlink:href="#aG"/><use transform="matrix(0.05,0,0,0.05,38.95,0)" xlink:href="#aK"/><use transform="matrix(0.05,0,0,0.05,43.95,0)" xlink:href="#aW"/><use transform="matrix(0.05,0,0,0.05,52.95,0)" xlink:href="#aR"/><use transform="matrix(0.05,0,0,0.05,62.95,0)" xlink:href="#aD"/></g><g id="J"><use transform="matrix(0.05,0,0,0.05,0,0)" xlink:href="#aJ"/><use transform="matrix(0.05,0,0,0.05,5,0)" xlink:href="#aF"/><use transform="matrix(0.05,0,0,0.05,15,0)" xlink:href="#aD"/><use transform="matrix(0.05,0,0,0.05,25,0)" xlink:href="#aO"/><use transform="matrix(0.05,0,0,0.05,28.950000000000003,0)" xlink:href="#aG"/><use transform="matrix(0.05,0,0,0.05,38.95,0)" xlink:href="#aO"/><use transform="matrix(0.05,0,0,0.05,42.900000000000006,0)" xlink:href="#aH"/><use transform="matrix(0.05,0,0,0.05,46.85000000000001,0)" xlink:href="#aK"/><use transform="matrix(0.05,0,0,0.05,51.85,0)" xlink:href="#aD"/><use transform="matrix(0.05,0,0,0.05,61.85,0)" xlink:href="#aE"/><use transform="matrix(0.05,0,0,0.05,67.80000000000001,0)" xlink:href="#aC"/></g><g id="K"><use transform="matrix(0.05,0,0,0.05,0,0)" xlink:href="#bd"/><use transform="matrix(0.05,0,0,0.05,12.950000000000001,0)" xlink:href="#aD"/><use transform="matrix(0.05,0,0,0.05,22.950000000000003,0)" xlink:href="#aM"/><use transform="matrix(0.05,0,0,0.05,32.95,0)" xlink:href="#aO"/><use transform="matrix(0.05,0,0,0.05,36.900000000000006,0)" xlink:href="#aK"/><use transform="matrix(0.05,0,0,0.05,41.900000000000006,0)" xlink:href="#aY"/></g><g id="L"><use transform="matrix(0.05,0,0,0.05,0,0)" xlink:href="#aY"/><use transform="matrix(0.05,0,0,0.05,10,0)" xlink:href="#aD"/><use transform="matrix(0.05,0,0,0.05,20,0)" xlink:href="#aM"/><use transform="matrix(0.05,0,0,0.05,30,0)" xlink:href="#aO"/><use transform="matrix(0.05,0,0,0.05,33.95,0)" xlink:href="#aK"/><use transform="matrix(0.05,0,0,0.05,38.95,0)" xlink:href="#aY"/><use transform="matrix(0.05,0,0,0.05,48.95,0)" xlink:href="#aG"/><use transform="matrix(0.05,0,0,0.05,58.95,0)" xlink:href="#aH"/><use transform="matrix(0.05,0,0,0.05,62.900000000000006,0)" xlink:href="#aI"/></g><g id="M"><use transform="matrix(0.05,0,0,0.05,0,0)" xlink:href="#aY"/><use transform="matrix(0.05,0,0,0.05,10,0)" xlink:href="#aD"/><use transform="matrix(0.05,0,0,0.05,20,0)" xlink:href="#aM"/><use transform="matrix(0.05,0,0,0.05,30,0)" xlink:href="#aO"/><use transform="matrix(0.05,0,0,0.05,33.95,0)" xlink:href="#aK"/><use transform="matrix(0.05,0,0,0.05,38.95,0)" xlink:href="#aY"/><use transform="matrix(0.05,0,0,0.05,48.95,0)" xlink:href="#aG"/><use transform="matrix(0.05,0,0,0.05,58.95,0)" xlink:href="#aL"/><use transform="matrix(0.05,0,0,0.05,68.95,0)" xlink:href="#aM"/><use transform="matrix(0.05,0,0,0.05,78.95,0)" xlink:href="#aN"/><use transform="matrix(0.05,0,0,0.05,93.9,0)" xlink:href="#aD"/></g><g id="N"><use transform="matrix(0.05,0,0,0.05,0,0)" xlink:href="#aY"/><use transform="matrix(0.05,0,0,0.05,10,0)" xlink:href="#aD"/><use transform="matrix(0.05,0,0,0.05,20,0)" xlink:href="#aM"/><use transform="matrix(0.05,0,0,0.05,30,0)" xlink:href="#aO"/><use transform="matrix(0.05,0,0,0.05,33.95,0)" xlink:href="#aK"/><use transform="matrix(0.05,0,0,0.05,38.95,0)" xlink:href="#aY"/><use transform="matrix(0.05,0,0,0.05,48.95,0)" xlink:href="#aG"/><use transform="matrix(0.05,0,0,0.05,58.95,0)" xlink:href="#aK"/><use transform="matrix(0.05,0,0,0.05,63.95,0)" xlink:href="#aW"/><use transform="matrix(0.05,0,0,0.05,72.95,0)" xlink:href="#aR"/><use transform="matrix(0.05,0,0,0.05,82.95,0)" xlink:href="#aD"/></g><g id="O"><use transform="matrix(0.05,0,0,0.05,0,0)" xlink:href="#aY"/><use transform="matrix(0.05,0,0,0.05,10,0)" xlink:href="#aD"/><use transform="matrix(0.05,0,0,0.05,20,0)" xlink:href="#aM"/><use transform="matrix(0.05,0,0,0.05,30,0)" xlink:href="#aO"/><use transform="matrix(0.05,0,0,0.05,33.95,0)" xlink:href="#aK"/><use transform="matrix(0.05,0,0,0.05,38.95,0)" xlink:href="#aY"/><use transform="matrix(0.05,0,0,0.05,48.95,0)" xlink:href="#aG"/><use transform="matrix(0.05,0,0,0.05,58.95,0)" xlink:href="#aD"/><use transform="matrix(0.05,0,0,0.05,68.95,0)" xlink:href="#bb"/><use transform="matrix(0.05,0,0,0.05,77.95,0)" xlink:href="#aR"/><use transform="matrix(0.05,0,0,0.05,87.95,0)" xlink:href="#aG"/><use transform="matrix(0.05,0,0,0.05,97.95,0)" xlink:href="#aI"/><use transform="matrix(0.05,0,0,0.05,107.95,0)" xlink:href="#aM"/><use transform="matrix(0.05,0,0,0.05,117.95,0)" xlink:href="#aK"/><use transform="matrix(0.05,0,0,0.05,122.95,0)" xlink:href="#aD"/></g><g id="P"><use transform="matrix(0.05,0,0,0.05,0,0)" xlink:href="#aY"/><use transform="matrix(0.05,0,0,0.05,10,0)" xlink:href="#aD"/><use transform="matrix(0.05,0,0,0.05,20,0)" xlink:href="#aM"/><use transform="matrix(0.05,0,0,0.05,30,0)" xlink:href="#aO"/><use transform="matrix(0.05,0,0,0.05,33.95,0)" xlink:href="#aK"/><use transform="matrix(0.05,0,0,0.05,38.95,0)" xlink:href="#aY"/><use transform="matrix(0.05,0,0,0.05,48.95,0)" xlink:href="#aG"/><use transform="matrix(0.05,0,0,0.05,58.95,0)" xlink:href="#aI"/><use transform="matrix(0.05,0,0,0.05,68.95,0)" xlink:href="#aD"/><use transform="matrix(0.05,0,0,0.05,78.95,0)" xlink:href="#aC"/><use transform="matrix(0.05,0,0,0.05,87.95,0)" xlink:href="#aQ"/><use transform="matrix(0.05,0,0,0.05,96.95,0)" xlink:href="#aE"/><use transform="matrix(0.05,0,0,0.05,102.9,0)" xlink:href="#aH"/><use transform="matrix(0.05,0,0,0.05,106.85000000000001,0)" xlink:href="#aR"/><use transform="matrix(0.05,0,0,0.05,116.85000000000001,0)" xlink:href="#aK"/><use transform="matrix(0.05,0,0,0.05,121.85000000000001,0)" xlink:href="#aH"/><use transform="matrix(0.05,0,0,0.05,125.80000000000001,0)" xlink:href="#aP"/><use transform="matrix(0.05,0,0,0.05,135.8,0)" xlink:href="#aL"/></g><path d="M160-131c35 5 61 23 61 61C221 17 115-2 30 0v-248c76 3 177-17 177 60 0 33-19 50-47 57zm-97-11c50-1 110 9 110-42 0-47-63-36-110-37v79zm0 115c55-2 124 14 124-45 0-56-70-42-124-44v89" id="bh"/><g id="Q"><use transform="matrix(0.05,0,0,0.05,0,0)" xlink:href="#bh"/><use transform="matrix(0.05,0,0,0.05,12,0)" xlink:href="#aM"/><use transform="matrix(0.05,0,0,0.05,22,0)" xlink:href="#aK"/><use transform="matrix(0.05,0,0,0.05,27,0)" xlink:href="#aK"/><use transform="matrix(0.05,0,0,0.05,32,0)" xlink:href="#aD"/><use transform="matrix(0.05,0,0,0.05,42,0)" xlink:href="#aE"/><use transform="matrix(0.05,0,0,0.05,47.95,0)" xlink:href="#aH"/><use transform="matrix(0.05,0,0,0.05,51.900000000000006,0)" xlink:href="#aD"/><use transform="matrix(0.05,0,0,0.05,61.900000000000006,0)" xlink:href="#aC"/></g><path d="M115-194c53 0 69 39 70 98 0 66-23 100-70 100C84 3 66-7 56-30L54 0H23l1-261h32v101c10-23 28-34 59-34zm-8 174c40 0 45-34 45-75 0-40-5-75-45-74-42 0-51 32-51 76 0 43 10 73 51 73" id="bi"/><g id="R"><use transform="matrix(0.05,0,0,0.05,0,0)" xlink:href="#bi"/><use transform="matrix(0.05,0,0,0.05,10,0)" xlink:href="#aM"/><use transform="matrix(0.05,0,0,0.05,20,0)" xlink:href="#aK"/><use transform="matrix(0.05,0,0,0.05,25,0)" xlink:href="#aK"/><use transform="matrix(0.05,0,0,0.05,30,0)" xlink:href="#aD"/><use transform="matrix(0.05,0,0,0.05,40,0)" xlink:href="#aE"/><use transform="matrix(0.05,0,0,0.05,45.95,0)" xlink:href="#aH"/><use transform="matrix(0.05,0,0,0.05,49.900000000000006,0)" xlink:href="#aD"/><use transform="matrix(0.05,0,0,0.05,59.900000000000006,0)" xlink:href="#aC"/><use transform="matrix(0.05,0,0,0.05,68.9,0)" xlink:href="#aG"/><use transform="matrix(0.05,0,0,0.05,78.9,0)" xlink:href="#aH"/><use transform="matrix(0.05,0,0,0.05,82.85000000000001,0)" xlink:href="#aI"/></g><g id="S"><use transform="matrix(0.05,0,0,0.05,0,0)" xlink:href="#bi"/><use transform="matrix(0.05,0,0,0.05,10,0)" xlink:href="#aM"/><use transform="matrix(0.05,0,0,0.05,20,0)" xlink:href="#aK"/><use transform="matrix(0.05,0,0,0.05,25,0)" xlink:href="#aK"/><use transform="matrix(0.05,0,0,0.05,30,0)" xlink:href="#aD"/><use transform="matrix(0.05,0,0,0.05,40,0)" xlink:href="#aE"/><use transform="matrix(0.05,0,0,0.05,45.95,0)" xlink:href="#aH"/><use transform="matrix(0.05,0,0,0.05,49.900000000000006,0)" xlink:href="#aD"/><use transform="matrix(0.05,0,0,0.05,59.900000000000006,0)" xlink:href="#aC"/><use transform="matrix(0.05,0,0,0.05,68.9,0)" xlink:href="#aG"/><use transform="matrix(0.05,0,0,0.05,78.9,0)" xlink:href="#aK"/><use transform="matrix(0.05,0,0,0.05,83.9,0)" xlink:href="#aW"/><use transform="matrix(0.05,0,0,0.05,92.9,0)" xlink:href="#aR"/><use transform="matrix(0.05,0,0,0.05,102.9,0)" xlink:href="#aD"/></g><g id="T"><use transform="matrix(0.05,0,0,0.05,0,0)" xlink:href="#bi"/><use transform="matrix(0.05,0,0,0.05,10,0)" xlink:href="#aM"/><use transform="matrix(0.05,0,0,0.05,20,0)" xlink:href="#aK"/><use transform="matrix(0.05,0,0,0.05,25,0)" xlink:href="#aK"/><use transform="matrix(0.05,0,0,0.05,30,0)" xlink:href="#aD"/><use transform="matrix(0.05,0,0,0.05,40,0)" xlink:href="#aE"/><use transform="matrix(0.05,0,0,0.05,45.95,0)" xlink:href="#aH"/><use transform="matrix(0.05,0,0,0.05,49.900000000000006,0)" xlink:href="#aD"/><use transform="matrix(0.05,0,0,0.05,59.900000000000006,0)" xlink:href="#aC"/><use transform="matrix(0.05,0,0,0.05,68.9,0)" xlink:href="#aG"/><use transform="matrix(0.05,0,0,0.05,78.9,0)" xlink:href="#be"/><use transform="matrix(0.05,0,0,0.05,87.9,0)" xlink:href="#aP"/><use transform="matrix(0.05,0,0,0.05,97.9,0)" xlink:href="#aO"/><use transform="matrix(0.05,0,0,0.05,101.85000000000001,0)" xlink:href="#aK"/><use transform="matrix(0.05,0,0,0.05,106.85000000000001,0)" xlink:href="#aM"/><use transform="matrix(0.05,0,0,0.05,116.85000000000001,0)" xlink:href="#aV"/><use transform="matrix(0.05,0,0,0.05,126.85000000000001,0)" xlink:href="#aD"/></g><g id="U"><use transform="matrix(0.05,0,0,0.05,0,0)" xlink:href="#bi"/><use transform="matrix(0.05,0,0,0.05,10,0)" xlink:href="#aM"/><use transform="matrix(0.05,0,0,0.05,20,0)" xlink:href="#aK"/><use transform="matrix(0.05,0,0,0.05,25,0)" xlink:href="#aK"/><use transform="matrix(0.05,0,0,0.05,30,0)" xlink:href="#aD"/><use transform="matrix(0.05,0,0,0.05,40,0)" xlink:href="#aE"/><use transform="matrix(0.05,0,0,0.05,45.95,0)" xlink:href="#aH"/><use transform="matrix(0.05,0,0,0.05,49.900000000000006,0)" xlink:href="#aD"/><use transform="matrix(0.05,0,0,0.05,59.900000000000006,0)" xlink:href="#aC"/><use transform="matrix(0.05,0,0,0.05,68.9,0)" xlink:href="#aG"/><use transform="matrix(0.05,0,0,0.05,78.9,0)" xlink:href="#aI"/><use transform="matrix(0.05,0,0,0.05,88.9,0)" xlink:href="#aD"/><use transform="matrix(0.05,0,0,0.05,98.9,0)" xlink:href="#aC"/><use transform="matrix(0.05,0,0,0.05,107.9,0)" xlink:href="#aQ"/><use transform="matrix(0.05,0,0,0.05,116.9,0)" xlink:href="#aE"/><use transform="matrix(0.05,0,0,0.05,122.85000000000001,0)" xlink:href="#aH"/><use transform="matrix(0.05,0,0,0.05,126.80000000000001,0)" xlink:href="#aR"/><use transform="matrix(0.05,0,0,0.05,136.8,0)" xlink:href="#aK"/><use transform="matrix(0.05,0,0,0.05,141.8,0)" xlink:href="#aH"/><use transform="matrix(0.05,0,0,0.05,145.75,0)" xlink:href="#aP"/><use transform="matrix(0.05,0,0,0.05,155.75,0)" xlink:href="#aL"/></g><g id="V"><use transform="matrix(0.05,0,0,0.05,0,0)" xlink:href="#bh"/><use transform="matrix(0.05,0,0,0.05,12,0)" xlink:href="#aF"/><use transform="matrix(0.05,0,0,0.05,22,0)" xlink:href="#aW"/></g><path d="M185-189c-5-48-123-54-124 2 14 75 158 14 163 119 3 78-121 87-175 55-17-10-28-26-33-46l33-7c5 56 141 63 141-1 0-78-155-14-162-118-5-82 145-84 179-34 5 7 8 16 11 25" id="bj"/><g id="W"><use transform="matrix(0.05,0,0,0.05,0,0)" xlink:href="#bj"/><use transform="matrix(0.05,0,0,0.05,12,0)" xlink:href="#aF"/><use transform="matrix(0.05,0,0,0.05,22,0)" xlink:href="#aR"/><use transform="matrix(0.05,0,0,0.05,32,0)" xlink:href="#aR"/><use transform="matrix(0.05,0,0,0.05,42,0)" xlink:href="#aO"/><use transform="matrix(0.05,0,0,0.05,45.95,0)" xlink:href="#aH"/><use transform="matrix(0.05,0,0,0.05,49.900000000000006,0)" xlink:href="#aD"/><use transform="matrix(0.05,0,0,0.05,59.900000000000006,0)" xlink:href="#aE"/><use transform="matrix(0.05,0,0,0.05,65.85000000000001,0)" xlink:href="#aC"/></g><g id="X"><use transform="matrix(0.05,0,0,0.05,0,0)" xlink:href="#aC"/><use transform="matrix(0.05,0,0,0.05,9,0)" xlink:href="#aF"/><use transform="matrix(0.05,0,0,0.05,19,0)" xlink:href="#aR"/><use transform="matrix(0.05,0,0,0.05,29,0)" xlink:href="#aR"/><use transform="matrix(0.05,0,0,0.05,39,0)" xlink:href="#aO"/><use transform="matrix(0.05,0,0,0.05,42.95,0)" xlink:href="#aH"/><use transform="matrix(0.05,0,0,0.05,46.900000000000006,0)" xlink:href="#aD"/><use transform="matrix(0.05,0,0,0.05,56.900000000000006,0)" xlink:href="#aE"/><use transform="matrix(0.05,0,0,0.05,62.85,0)" xlink:href="#aG"/><use transform="matrix(0.05,0,0,0.05,72.85000000000001,0)" xlink:href="#aH"/><use transform="matrix(0.05,0,0,0.05,76.80000000000001,0)" xlink:href="#aI"/></g><g id="Y"><use transform="matrix(0.05,0,0,0.05,0,0)" xlink:href="#bj"/><use transform="matrix(0.05,0,0,0.05,12,0)" xlink:href="#aF"/><use transform="matrix(0.05,0,0,0.05,22,0)" xlink:href="#aR"/><use transform="matrix(0.05,0,0,0.05,32,0)" xlink:href="#aR"/><use transform="matrix(0.05,0,0,0.05,42,0)" xlink:href="#aO"/><use transform="matrix(0.05,0,0,0.05,45.95,0)" xlink:href="#aH"/><use transform="matrix(0.05,0,0,0.05,49.900000000000006,0)" xlink:href="#aD"/><use transform="matrix(0.05,0,0,0.05,59.900000000000006,0)" xlink:href="#aC"/></g><g id="Z"><use transform="matrix(0.05,0,0,0.05,0,0)" xlink:href="#aU"/><use transform="matrix(0.05,0,0,0.05,12.950000000000001,0)" xlink:href="#aD"/><use transform="matrix(0.05,0,0,0.05,22.950000000000003,0)" xlink:href="#aC"/><use transform="matrix(0.05,0,0,0.05,31.950000000000003,0)" xlink:href="#aP"/><use transform="matrix(0.05,0,0,0.05,41.95,0)" xlink:href="#aF"/><use transform="matrix(0.05,0,0,0.05,51.95,0)" xlink:href="#aE"/><use transform="matrix(0.05,0,0,0.05,57.900000000000006,0)" xlink:href="#aQ"/><use transform="matrix(0.05,0,0,0.05,66.9,0)" xlink:href="#aD"/><use transform="matrix(0.05,0,0,0.05,76.9,0)" xlink:href="#aC"/></g><g id="aa"><use transform="matrix(0.05,0,0,0.05,0,0)" xlink:href="#aE"/><use transform="matrix(0.05,0,0,0.05,5.95,0)" xlink:href="#aD"/><use transform="matrix(0.05,0,0,0.05,15.949999999999998,0)" xlink:href="#aC"/><use transform="matrix(0.05,0,0,0.05,24.95,0)" xlink:href="#aP"/><use transform="matrix(0.05,0,0,0.05,34.95,0)" xlink:href="#aF"/><use transform="matrix(0.05,0,0,0.05,44.95,0)" xlink:href="#aE"/><use transform="matrix(0.05,0,0,0.05,50.900000000000006,0)" xlink:href="#aQ"/><use transform="matrix(0.05,0,0,0.05,59.900000000000006,0)" xlink:href="#aD"/><use transform="matrix(0.05,0,0,0.05,69.9,0)" xlink:href="#aG"/><use transform="matrix(0.05,0,0,0.05,79.9,0)" xlink:href="#aH"/><use transform="matrix(0.05,0,0,0.05,83.85000000000001,0)" xlink:href="#aI"/></g><g id="ab"><use transform="matrix(0.05,0,0,0.05,0,0)" xlink:href="#aE"/><use transform="matrix(0.05,0,0,0.05,5.95,0)" xlink:href="#aD"/><use transform="matrix(0.05,0,0,0.05,15.949999999999998,0)" xlink:href="#aC"/><use transform="matrix(0.05,0,0,0.05,24.95,0)" xlink:href="#aP"/><use transform="matrix(0.05,0,0,0.05,34.95,0)" xlink:href="#aF"/><use transform="matrix(0.05,0,0,0.05,44.95,0)" xlink:href="#aE"/><use transform="matrix(0.05,0,0,0.05,50.900000000000006,0)" xlink:href="#aQ"/><use transform="matrix(0.05,0,0,0.05,59.900000000000006,0)" xlink:href="#aD"/><use transform="matrix(0.05,0,0,0.05,69.9,0)" xlink:href="#aG"/><use transform="matrix(0.05,0,0,0.05,79.9,0)" xlink:href="#aQ"/><use transform="matrix(0.05,0,0,0.05,88.9,0)" xlink:href="#aM"/><use transform="matrix(0.05,0,0,0.05,98.9,0)" xlink:href="#aK"/><use transform="matrix(0.05,0,0,0.05,103.9,0)" xlink:href="#aD"/><use transform="matrix(0.05,0,0,0.05,113.9,0)" xlink:href="#aV"/><use transform="matrix(0.05,0,0,0.05,123.9,0)" xlink:href="#aP"/><use transform="matrix(0.05,0,0,0.05,133.9,0)" xlink:href="#aE"/><use transform="matrix(0.05,0,0,0.05,139.85,0)" xlink:href="#aW"/></g><g id="ac"><use transform="matrix(0.05,0,0,0.05,0,0)" xlink:href="#aM"/><use transform="matrix(0.05,0,0,0.05,10,0)" xlink:href="#be"/><use transform="matrix(0.05,0,0,0.05,19,0)" xlink:href="#aM"/><use transform="matrix(0.05,0,0,0.05,29,0)" xlink:href="#aH"/><use transform="matrix(0.05,0,0,0.05,32.95,0)" xlink:href="#aO"/><use transform="matrix(0.05,0,0,0.05,36.900000000000006,0)" xlink:href="#aM"/><use transform="matrix(0.05,0,0,0.05,46.900000000000006,0)" xlink:href="#bi"/><use transform="matrix(0.05,0,0,0.05,56.900000000000006,0)" xlink:href="#aH"/><use transform="matrix(0.05,0,0,0.05,60.85,0)" xlink:href="#aO"/><use transform="matrix(0.05,0,0,0.05,64.80000000000001,0)" xlink:href="#aH"/><use transform="matrix(0.05,0,0,0.05,68.75000000000001,0)" xlink:href="#aK"/><use transform="matrix(0.05,0,0,0.05,73.75000000000001,0)" xlink:href="#aW"/></g><g id="ad"><use transform="matrix(0.05,0,0,0.05,0,0)" xlink:href="#aT"/><use transform="matrix(0.05,0,0,0.05,12,0)" xlink:href="#aM"/><use transform="matrix(0.05,0,0,0.05,22,0)" xlink:href="#aW"/><use transform="matrix(0.05,0,0,0.05,31,0)" xlink:href="#aC"/></g><path d="M190 0L58-211 59 0H30v-248h39L202-35l-2-213h31V0h-41" id="bk"/><use transform="matrix(0.05,0,0,0.05,0,0)" xlink:href="#bk" id="ae"/><g id="af"><use transform="matrix(0.05,0,0,0.05,0,0)" xlink:href="#aT"/><use transform="matrix(0.05,0,0,0.05,12,0)" xlink:href="#aM"/><use transform="matrix(0.05,0,0,0.05,22,0)" xlink:href="#aW"/><use transform="matrix(0.05,0,0,0.05,31,0)" xlink:href="#aN"/><use transform="matrix(0.05,0,0,0.05,45.95,0)" xlink:href="#aD"/><use transform="matrix(0.05,0,0,0.05,55.95,0)" xlink:href="#aL"/><use transform="matrix(0.05,0,0,0.05,65.95,0)" xlink:href="#aK"/></g><g id="ag"><use transform="matrix(0.05,0,0,0.05,0,0)" xlink:href="#aR"/><use transform="matrix(0.05,0,0,0.05,10,0)" xlink:href="#aM"/><use transform="matrix(0.05,0,0,0.05,20,0)" xlink:href="#aW"/><use transform="matrix(0.05,0,0,0.05,29,0)" xlink:href="#aN"/><use transform="matrix(0.05,0,0,0.05,43.95,0)" xlink:href="#aD"/><use transform="matrix(0.05,0,0,0.05,53.95,0)" xlink:href="#aL"/><use transform="matrix(0.05,0,0,0.05,63.95,0)" xlink:href="#aK"/><use transform="matrix(0.05,0,0,0.05,68.95,0)" xlink:href="#aG"/><use transform="matrix(0.05,0,0,0.05,78.95,0)" xlink:href="#aH"/><use transform="matrix(0.05,0,0,0.05,82.9,0)" xlink:href="#aI"/></g><g id="ah"><use transform="matrix(0.05,0,0,0.05,0,0)" xlink:href="#aR"/><use transform="matrix(0.05,0,0,0.05,10,0)" xlink:href="#aM"/><use transform="matrix(0.05,0,0,0.05,20,0)" xlink:href="#aW"/><use transform="matrix(0.05,0,0,0.05,29,0)" xlink:href="#aN"/><use transform="matrix(0.05,0,0,0.05,43.95,0)" xlink:href="#aD"/><use transform="matrix(0.05,0,0,0.05,53.95,0)" xlink:href="#aL"/><use transform="matrix(0.05,0,0,0.05,63.95,0)" xlink:href="#aK"/><use transform="matrix(0.05,0,0,0.05,68.95,0)" xlink:href="#aG"/><use transform="matrix(0.05,0,0,0.05,78.95,0)" xlink:href="#aN"/><use transform="matrix(0.05,0,0,0.05,93.9,0)" xlink:href="#aD"/><use transform="matrix(0.05,0,0,0.05,103.9,0)" xlink:href="#aK"/><use transform="matrix(0.05,0,0,0.05,108.9,0)" xlink:href="#aY"/><use transform="matrix(0.05,0,0,0.05,118.9,0)" xlink:href="#aP"/><use transform="matrix(0.05,0,0,0.05,128.9,0)" xlink:href="#aI"/></g><g id="ai"><use transform="matrix(0.05,0,0,0.05,0,0)" xlink:href="#aU"/><use transform="matrix(0.05,0,0,0.05,12.950000000000001,0)" xlink:href="#aD"/><use transform="matrix(0.05,0,0,0.05,22.950000000000003,0)" xlink:href="#aC"/><use transform="matrix(0.05,0,0,0.05,31.950000000000003,0)" xlink:href="#aD"/><use transform="matrix(0.05,0,0,0.05,41.95,0)" xlink:href="#aE"/><use transform="matrix(0.05,0,0,0.05,47.900000000000006,0)" xlink:href="#be"/><use transform="matrix(0.05,0,0,0.05,56.900000000000006,0)" xlink:href="#aM"/><use transform="matrix(0.05,0,0,0.05,66.9,0)" xlink:href="#aK"/><use transform="matrix(0.05,0,0,0.05,71.9,0)" xlink:href="#aH"/><use transform="matrix(0.05,0,0,0.05,75.85000000000001,0)" xlink:href="#aP"/><use transform="matrix(0.05,0,0,0.05,85.85000000000001,0)" xlink:href="#aL"/></g><g id="aj"><use transform="matrix(0.05,0,0,0.05,0,0)" xlink:href="#aE"/><use transform="matrix(0.05,0,0,0.05,5.95,0)" xlink:href="#aD"/><use transform="matrix(0.05,0,0,0.05,15.949999999999998,0)" xlink:href="#aC"/><use transform="matrix(0.05,0,0,0.05,24.95,0)" xlink:href="#aD"/><use transform="matrix(0.05,0,0,0.05,34.95,0)" xlink:href="#aE"/><use transform="matrix(0.05,0,0,0.05,40.900000000000006,0)" xlink:href="#be"/><use transform="matrix(0.05,0,0,0.05,49.900000000000006,0)" xlink:href="#aM"/><use transform="matrix(0.05,0,0,0.05,59.900000000000006,0)" xlink:href="#aK"/><use transform="matrix(0.05,0,0,0.05,64.9,0)" xlink:href="#aH"/><use transform="matrix(0.05,0,0,0.05,68.85000000000001,0)" xlink:href="#aP"/><use transform="matrix(0.05,0,0,0.05,78.85000000000001,0)" xlink:href="#aL"/><use transform="matrix(0.05,0,0,0.05,88.85000000000001,0)" xlink:href="#aG"/><use transform="matrix(0.05,0,0,0.05,98.85000000000001,0)" xlink:href="#aH"/><use transform="matrix(0.05,0,0,0.05,102.80000000000001,0)" xlink:href="#aI"/></g><g id="ak"><use transform="matrix(0.05,0,0,0.05,0,0)" xlink:href="#aR"/><use transform="matrix(0.05,0,0,0.05,10,0)" xlink:href="#aO"/><use transform="matrix(0.05,0,0,0.05,13.949999999999998,0)" xlink:href="#aM"/><use transform="matrix(0.05,0,0,0.05,23.95,0)" xlink:href="#aQ"/><use transform="matrix(0.05,0,0,0.05,32.95,0)" xlink:href="#aD"/></g><g id="al"><use transform="matrix(0.05,0,0,0.05,0,0)" xlink:href="#aE"/><use transform="matrix(0.05,0,0,0.05,5.95,0)" xlink:href="#aD"/><use transform="matrix(0.05,0,0,0.05,15.949999999999998,0)" xlink:href="#bg"/><use transform="matrix(0.05,0,0,0.05,25.950000000000003,0)" xlink:href="#aF"/><use transform="matrix(0.05,0,0,0.05,35.95,0)" xlink:href="#aD"/><use transform="matrix(0.05,0,0,0.05,45.95,0)" xlink:href="#aC"/><use transform="matrix(0.05,0,0,0.05,54.95,0)" xlink:href="#aK"/></g><g id="am"><use transform="matrix(0.05,0,0,0.05,0,0)" xlink:href="#aR"/><use transform="matrix(0.05,0,0,0.05,10,0)" xlink:href="#aO"/><use transform="matrix(0.05,0,0,0.05,13.949999999999998,0)" xlink:href="#aM"/><use transform="matrix(0.05,0,0,0.05,23.95,0)" xlink:href="#aQ"/><use transform="matrix(0.05,0,0,0.05,32.95,0)" xlink:href="#aD"/></g><g id="an"><use transform="matrix(0.05,0,0,0.05,0,0)" xlink:href="#aE"/><use transform="matrix(0.05,0,0,0.05,5.95,0)" xlink:href="#aD"/><use transform="matrix(0.05,0,0,0.05,15.949999999999998,0)" xlink:href="#aC"/><use transform="matrix(0.05,0,0,0.05,24.95,0)" xlink:href="#aD"/><use transform="matrix(0.05,0,0,0.05,34.95,0)" xlink:href="#aE"/><use transform="matrix(0.05,0,0,0.05,40.900000000000006,0)" xlink:href="#be"/><use transform="matrix(0.05,0,0,0.05,49.900000000000006,0)" xlink:href="#aM"/><use transform="matrix(0.05,0,0,0.05,59.900000000000006,0)" xlink:href="#aK"/><use transform="matrix(0.05,0,0,0.05,64.9,0)" xlink:href="#aH"/><use transform="matrix(0.05,0,0,0.05,68.85000000000001,0)" xlink:href="#aP"/><use transform="matrix(0.05,0,0,0.05,78.85000000000001,0)" xlink:href="#aL"/></g><g id="ao"><use transform="matrix(0.05,0,0,0.05,0,0)" xlink:href="#aU"/><use transform="matrix(0.05,0,0,0.05,12.950000000000001,0)" xlink:href="#aD"/><use transform="matrix(0.05,0,0,0.05,22.950000000000003,0)" xlink:href="#bg"/><use transform="matrix(0.05,0,0,0.05,32.95,0)" xlink:href="#aF"/><use transform="matrix(0.05,0,0,0.05,42.95,0)" xlink:href="#aD"/><use transform="matrix(0.05,0,0,0.05,52.95,0)" xlink:href="#aC"/><use transform="matrix(0.05,0,0,0.05,61.95,0)" xlink:href="#aK"/></g><g id="ap"><use transform="matrix(0.05,0,0,0.05,0,0)" xlink:href="#aE"/><use transform="matrix(0.05,0,0,0.05,5.95,0)" xlink:href="#aD"/><use transform="matrix(0.05,0,0,0.05,15.949999999999998,0)" xlink:href="#bg"/><use transform="matrix(0.05,0,0,0.05,25.950000000000003,0)" xlink:href="#aF"/><use transform="matrix(0.05,0,0,0.05,35.95,0)" xlink:href="#aD"/><use transform="matrix(0.05,0,0,0.05,45.95,0)" xlink:href="#aC"/><use transform="matrix(0.05,0,0,0.05,54.95,0)" xlink:href="#aK"/><use transform="matrix(0.05,0,0,0.05,59.95,0)" xlink:href="#aG"/><use transform="matrix(0.05,0,0,0.05,69.95,0)" xlink:href="#aH"/><use transform="matrix(0.05,0,0,0.05,73.9,0)" xlink:href="#aI"/></g><path d="M143 0L79-87 56-68V0H24v-261h32v163l83-92h37l-77 82L181 0h-38" id="bl"/><g id="aq"><use transform="matrix(0.05,0,0,0.05,0,0)" xlink:href="#aM"/><use transform="matrix(0.05,0,0,0.05,10,0)" xlink:href="#aC"/><use transform="matrix(0.05,0,0,0.05,19,0)" xlink:href="#bl"/></g><g id="ar"><use transform="matrix(0.05,0,0,0.05,0,0)" xlink:href="#aJ"/><use transform="matrix(0.05,0,0,0.05,5,0)" xlink:href="#aP"/><use transform="matrix(0.05,0,0,0.05,15,0)" xlink:href="#aE"/></g><g id="as"><use transform="matrix(0.05,0,0,0.05,0,0)" xlink:href="#aN"/><use transform="matrix(0.05,0,0,0.05,14.950000000000001,0)" xlink:href="#aP"/><use transform="matrix(0.05,0,0,0.05,24.950000000000003,0)" xlink:href="#aE"/><use transform="matrix(0.05,0,0,0.05,30.900000000000002,0)" xlink:href="#aD"/></g><g id="at"><use transform="matrix(0.05,0,0,0.05,0,0)" xlink:href="#aC"/><use transform="matrix(0.05,0,0,0.05,9,0)" xlink:href="#aD"/><use transform="matrix(0.05,0,0,0.05,19,0)" xlink:href="#aR"/><use transform="matrix(0.05,0,0,0.05,29,0)" xlink:href="#aM"/><use transform="matrix(0.05,0,0,0.05,39,0)" xlink:href="#aE"/><use transform="matrix(0.05,0,0,0.05,44.95,0)" xlink:href="#aD"/><use transform="matrix(0.05,0,0,0.05,54.95,0)" xlink:href="#aK"/><use transform="matrix(0.05,0,0,0.05,59.95,0)" xlink:href="#aD"/></g><path d="M27 0v-27h64v-190l-56 39v-29l58-41h29v221h61V0H27" id="bm"/><use transform="matrix(0.05,0,0,0.05,0,0)" xlink:href="#bm" id="au"/><path d="M205 0l-28-72H64L36 0H1l101-248h38L239 0h-34zm-38-99l-47-123c-12 45-31 82-46 123h93" id="bn"/><g id="av"><use transform="matrix(0.05,0,0,0.05,0,0)" xlink:href="#bn"/><use transform="matrix(0.05,0,0,0.05,12,0)" xlink:href="#aI"/><use transform="matrix(0.05,0,0,0.05,22,0)" xlink:href="#aN"/><use transform="matrix(0.05,0,0,0.05,36.95,0)" xlink:href="#aH"/><use transform="matrix(0.05,0,0,0.05,40.900000000000006,0)" xlink:href="#aL"/><use transform="matrix(0.05,0,0,0.05,50.900000000000006,0)" xlink:href="#aH"/><use transform="matrix(0.05,0,0,0.05,54.85,0)" xlink:href="#aC"/><use transform="matrix(0.05,0,0,0.05,63.85,0)" xlink:href="#aK"/><use transform="matrix(0.05,0,0,0.05,68.85000000000001,0)" xlink:href="#aE"/><use transform="matrix(0.05,0,0,0.05,74.80000000000001,0)" xlink:href="#aM"/><use transform="matrix(0.05,0,0,0.05,84.80000000000001,0)" xlink:href="#aK"/><use transform="matrix(0.05,0,0,0.05,89.80000000000001,0)" xlink:href="#aP"/><use transform="matrix(0.05,0,0,0.05,99.80000000000001,0)" xlink:href="#aE"/></g><g id="aw"><use transform="matrix(0.05,0,0,0.05,0,0)" xlink:href="#aM"/><use transform="matrix(0.05,0,0,0.05,10,0)" xlink:href="#aI"/><use transform="matrix(0.05,0,0,0.05,20,0)" xlink:href="#aN"/><use transform="matrix(0.05,0,0,0.05,34.95,0)" xlink:href="#aH"/><use transform="matrix(0.05,0,0,0.05,38.900000000000006,0)" xlink:href="#aL"/><use transform="matrix(0.05,0,0,0.05,48.900000000000006,0)" xlink:href="#aG"/><use transform="matrix(0.05,0,0,0.05,58.900000000000006,0)" xlink:href="#aH"/><use transform="matrix(0.05,0,0,0.05,62.85,0)" xlink:href="#aI"/></g><g id="ax"><use transform="matrix(0.05,0,0,0.05,0,0)" xlink:href="#aM"/><use transform="matrix(0.05,0,0,0.05,10,0)" xlink:href="#aI"/><use transform="matrix(0.05,0,0,0.05,20,0)" xlink:href="#aN"/><use transform="matrix(0.05,0,0,0.05,34.95,0)" xlink:href="#aH"/><use transform="matrix(0.05,0,0,0.05,38.900000000000006,0)" xlink:href="#aL"/><use transform="matrix(0.05,0,0,0.05,48.900000000000006,0)" xlink:href="#aG"/><use transform="matrix(0.05,0,0,0.05,58.900000000000006,0)" xlink:href="#aL"/><use transform="matrix(0.05,0,0,0.05,68.9,0)" xlink:href="#aM"/><use transform="matrix(0.05,0,0,0.05,78.9,0)" xlink:href="#aN"/><use transform="matrix(0.05,0,0,0.05,93.85000000000001,0)" xlink:href="#aD"/></g><g id="ay"><use transform="matrix(0.05,0,0,0.05,0,0)" xlink:href="#aX"/><use transform="matrix(0.05,0,0,0.05,12.950000000000001,0)" xlink:href="#aF"/><use transform="matrix(0.05,0,0,0.05,22.950000000000003,0)" xlink:href="#aC"/><use transform="matrix(0.05,0,0,0.05,31.950000000000003,0)" xlink:href="#aK"/><use transform="matrix(0.05,0,0,0.05,36.95,0)" xlink:href="#aP"/><use transform="matrix(0.05,0,0,0.05,46.95,0)" xlink:href="#aN"/><use transform="matrix(0.05,0,0,0.05,61.900000000000006,0)" xlink:href="#aD"/><use transform="matrix(0.05,0,0,0.05,71.9,0)" xlink:href="#aE"/></g><g id="az"><use transform="matrix(0.05,0,0,0.05,0,0)" xlink:href="#aQ"/><use transform="matrix(0.05,0,0,0.05,9,0)" xlink:href="#aF"/><use transform="matrix(0.05,0,0,0.05,19,0)" xlink:href="#aC"/><use transform="matrix(0.05,0,0,0.05,28,0)" xlink:href="#aK"/><use transform="matrix(0.05,0,0,0.05,33,0)" xlink:href="#aP"/><use transform="matrix(0.05,0,0,0.05,43,0)" xlink:href="#aN"/><use transform="matrix(0.05,0,0,0.05,57.95,0)" xlink:href="#aD"/><use transform="matrix(0.05,0,0,0.05,67.95,0)" xlink:href="#aE"/><use transform="matrix(0.05,0,0,0.05,73.9,0)" xlink:href="#aG"/><use transform="matrix(0.05,0,0,0.05,83.9,0)" xlink:href="#aH"/><use transform="matrix(0.05,0,0,0.05,87.85000000000001,0)" xlink:href="#aI"/></g><g id="aA"><use transform="matrix(0.05,0,0,0.05,0,0)" xlink:href="#aT"/><use transform="matrix(0.05,0,0,0.05,12,0)" xlink:href="#aE"/><use transform="matrix(0.05,0,0,0.05,17.95,0)" xlink:href="#aH"/><use transform="matrix(0.05,0,0,0.05,21.9,0)" xlink:href="#aQ"/><use transform="matrix(0.05,0,0,0.05,30.899999999999995,0)" xlink:href="#aD"/></g></defs></g></svg>