<svg xmlns="http://www.w3.org/2000/svg" xmlns:xlink="http://www.w3.org/1999/xlink" xmlns:lucid="lucid" width="3340" height="1949.19"><g transform="translate(-2060 -380)" lucid:page-tab-id="CO_VIS0FF-NI"><path d="M1806.4 0h3676.8v2582.4H1806.4z" fill="#fff"/><path d="M3650 432h260v200h-260z" fill="#fff"/><path d="M3650 432h260v200h-260zM3650 472h260" stroke="#000" stroke-width="2" fill="none"/><use xlink:href="#a" transform="matrix(1,0,0,1,3660,432) translate(96.55 23.6)"/><use xlink:href="#b" transform="matrix(1,0,0,1,3655,474.5) translate(0 17.1)"/><use xlink:href="#c" transform="matrix(1,0,0,1,3655,506.5) translate(0 17.1)"/><use xlink:href="#d" transform="matrix(1,0,0,1,3655,538.5) translate(0 17.1)"/><use xlink:href="#e" transform="matrix(1,0,0,1,3655,570.5) translate(0 17.1)"/><use xlink:href="#f" transform="matrix(1,0,0,1,3655,602.5) translate(0 17.1)"/><path d="M3720 2109.2h200v136h-200z" fill="#fff"/><path d="M3720 2109.2h200v136h-200zM3720 2149.2h200" stroke="#000" stroke-width="2" fill="none"/><use xlink:href="#g" transform="matrix(1,0,0,1,3730,2109.1875) translate(21.599999999999994 23.6)"/><use xlink:href="#h" transform="matrix(1,0,0,1,3725,2151.6875) translate(0 17.1)"/><use xlink:href="#i" transform="matrix(1,0,0,1,3725,2183.6875) translate(0 17.1)"/><use xlink:href="#j" transform="matrix(1,0,0,1,3725,2215.6875) translate(0 17.1)"/><path d="M2660 2109.2h200v168h-200z" fill="#fff"/><path d="M2660 2109.2h200v168h-200zM2660 2149.2h200" stroke="#000" stroke-width="2" fill="none"/><use xlink:href="#k" transform="matrix(1,0,0,1,2670,2109.1875) translate(57.074999999999996 23.6)"/><use xlink:href="#l" transform="matrix(1,0,0,1,2665,2151.6875) translate(0 17.1)"/><use xlink:href="#m" transform="matrix(1,0,0,1,2665,2183.6875) translate(0 17.1)"/><use xlink:href="#n" transform="matrix(1,0,0,1,2665,2215.6875) translate(0 17.1)"/><use xlink:href="#o" transform="matrix(1,0,0,1,2665,2247.6875) translate(0 17.1)"/><path d="M3420 2113.63h200v168h-200z" fill="#fff"/><path d="M3420 2113.63h200v168h-200zM3420 2153.63h200" stroke="#000" stroke-width="2" fill="none"/><use xlink:href="#p" transform="matrix(1,0,0,1,3430,2113.625) translate(69.525 23.6)"/><use xlink:href="#q" transform="matrix(1,0,0,1,3425,2156.125) translate(0 17.1)"/><use xlink:href="#r" transform="matrix(1,0,0,1,3425,2188.125) translate(0 17.1)"/><use xlink:href="#s" transform="matrix(1,0,0,1,3425,2220.125) translate(0 17.1)"/><use xlink:href="#t" transform="matrix(1,0,0,1,3425,2252.125) translate(0 17.1)"/><path d="M2920 2109.2h200v104h-200z" fill="#fff"/><path d="M2920 2109.2h200v104h-200zM2920 2149.2h200" stroke="#000" stroke-width="2" fill="none"/><use xlink:href="#u" transform="matrix(1,0,0,1,2930,2109.1875) translate(69.05 23.6)"/><use xlink:href="#v" transform="matrix(1,0,0,1,2925,2151.6875) translate(0 17.1)"/><use xlink:href="#w" transform="matrix(1,0,0,1,2925,2183.6875) translate(0 17.1)"/><path d="M4240 2109.2h200v104h-200z" fill="#fff"/><path d="M4240 2109.2h200v104h-200zM4240 2149.2h200" stroke="#000" stroke-width="2" fill="none"/><use xlink:href="#x" transform="matrix(1,0,0,1,4250,2109.1875) translate(19.07499999999999 23.6)"/><use xlink:href="#y" transform="matrix(1,0,0,1,4250,2109.1875) translate(75.02499999999999 23.6)"/><use xlink:href="#z" transform="matrix(1,0,0,1,4245,2151.6875) translate(0 17.1)"/><use xlink:href="#A" transform="matrix(1,0,0,1,4245,2183.6875) translate(0 17.1)"/><path d="M3990 2109.2h200v136h-200z" fill="#fff"/><path d="M3990 2109.2h200v136h-200zM3990 2149.2h200" stroke="#000" stroke-width="2" fill="none"/><use xlink:href="#B" transform="matrix(1,0,0,1,4000,2109.1875) translate(72.55 23.6)"/><use xlink:href="#C" transform="matrix(1,0,0,1,3995,2151.6875) translate(0 17.1)"/><use xlink:href="#D" transform="matrix(1,0,0,1,3995,2183.6875) translate(0 17.1)"/><use xlink:href="#E" transform="matrix(1,0,0,1,3995,2215.6875) translate(0 17.1)"/><path d="M3180 2113.63h200v168h-200z" fill="#fff"/><path d="M3180 2113.63h200v168h-200zM3180 2153.63h200" stroke="#000" stroke-width="2" fill="none"/><use xlink:href="#F" transform="matrix(1,0,0,1,3190,2113.625) translate(64.05 23.6)"/><use xlink:href="#G" transform="matrix(1,0,0,1,3185,2156.125) translate(0 17.1)"/><use xlink:href="#H" transform="matrix(1,0,0,1,3185,2188.125) translate(0 17.1)"/><use xlink:href="#I" transform="matrix(1,0,0,1,3185,2220.125) translate(0 17.1)"/><use xlink:href="#J" transform="matrix(1,0,0,1,3185,2252.125) translate(0 17.1)"/><path d="M4640 2109.2h200v200h-200z" fill="#fff"/><path d="M4640 2109.2h200v200h-200zM4640 2149.2h200" stroke="#000" stroke-width="2" fill="none"/><use xlink:href="#K" transform="matrix(1,0,0,1,4650,2109.1875) translate(54.55 23.6)"/><use xlink:href="#L" transform="matrix(1,0,0,1,4645,2151.6875) translate(0 17.1)"/><use xlink:href="#M" transform="matrix(1,0,0,1,4645,2183.6875) translate(0 17.1)"/><use xlink:href="#N" transform="matrix(1,0,0,1,4645,2215.6875) translate(0 17.1)"/><use xlink:href="#O" transform="matrix(1,0,0,1,4645,2247.6875) translate(0 17.1)"/><use xlink:href="#P" transform="matrix(1,0,0,1,4645,2279.6875) translate(0 17.1)"/><path d="M3420 1171.8h200v72h-200z" fill="#fff"/><path d="M3420 1171.8h200v72h-200zM3420 1211.8h200" stroke="#000" stroke-width="2" fill="none"/><use xlink:href="#Q" transform="matrix(1,0,0,1,3430,1171.8125) translate(52.574999999999996 23.6)"/><use xlink:href="#R" transform="matrix(1,0,0,1,3425,1214.3125) translate(0 17.1)"/><path d="M3520 1387.2l80 60-80 60-80-60z" stroke="#000" stroke-width="2" fill="#fff"/><use xlink:href="#S" transform="matrix(1,0,0,1,3445,1392.1875) translate(40.55499999999999 59.0875)"/><path d="M3520 1245.8v139.14" stroke="#000" stroke-width="2" fill="none"/><path d="M3521 1245.84h-2v-1.03h2zM3521 1386.7l-1-.76-1 .75v-1.8h2z"/><path d="M3420 1585.38h200v136h-200z" fill="#fff"/><path d="M3420 1585.38h200v136h-200zM3420 1625.38h200" stroke="#000" stroke-width="2" fill="none"/><use xlink:href="#T" transform="matrix(1,0,0,1,3430,1585.375) translate(47.05 23.6)"/><use xlink:href="#U" transform="matrix(1,0,0,1,3425,1627.875) translate(0 17.1)"/><use xlink:href="#V" transform="matrix(1,0,0,1,3425,1659.875) translate(0 17.1)"/><use xlink:href="#W" transform="matrix(1,0,0,1,3425,1691.875) translate(0 17.1)"/><path d="M4900 1148l70 60-70 60-70-60z" stroke="#000" stroke-width="2" fill="#fff"/><use xlink:href="#X" transform="matrix(1,0,0,1,4835,1153) translate(45.005 59.0875)"/><path d="M3520 1245.8v139.14" stroke="#000" stroke-width="2" fill="none"/><path d="M3521 1245.84h-2v-1.03h2zM3521 1386.7l-1-.76-1 .75v-1.8h2z"/><path d="M3520 1583.38v-73.94" stroke="#000" stroke-width="2" fill="none"/><path d="M3521 1584.38h-2v-1.03h2zM3521 1509.46h-2v-1.77l1 .74 1-.75z"/><path d="M3550 1553.2h20v40h-20z" stroke="#000" stroke-opacity="0" stroke-width="2" fill="#fff" fill-opacity="0"/><use xlink:href="#Y" transform="matrix(1,0,0,1,3555,1558.1875) translate(-1.4750000000000005 18.6)"/><path d="M4800 1376h200v136h-200z" fill="#fff"/><path d="M4800 1376h200v136h-200zM4800 1416h200" stroke="#000" stroke-width="2" fill="none"/><use xlink:href="#Z" transform="matrix(1,0,0,1,4810,1376) translate(54.525 23.6)"/><use xlink:href="#aa" transform="matrix(1,0,0,1,4805,1418.5) translate(0 17.1)"/><use xlink:href="#ab" transform="matrix(1,0,0,1,4805,1450.5) translate(0 17.1)"/><use xlink:href="#ac" transform="matrix(1,0,0,1,4805,1482.5) translate(0 17.1)"/><path d="M4900 1514v430.38c0 2.76-2.24 5-5 5h-440.15" stroke="#000" stroke-width="2" fill="none"/><path d="M4901 1514.03h-2V1513h2z"/><path d="M4454.87 1949.38h-1.02" stroke="#000" stroke-width="2" fill="none"/><path d="M4520 1369.38h200v72h-200z" fill="#fff"/><path d="M4520 1369.38h200v72h-200zM4520 1409.38h200" stroke="#000" stroke-width="2" fill="none"/><use xlink:href="#ad" transform="matrix(1,0,0,1,4530,1369.375) translate(42.074999999999996 23.6)"/><use xlink:href="#ae" transform="matrix(1,0,0,1,4525,1411.875) translate(0 17.1)"/><path d="M4360 1142l80 60-80 60-80-60z" stroke="#000" stroke-width="2" fill="#fff"/><use xlink:href="#af" transform="matrix(1,0,0,1,4285,1147) translate(21.055 59.0875)"/><use xlink:href="#ag" transform="matrix(1,0,0,1,4285,1147) translate(69.005 59.0875)"/><path d="M4600 1148l80 60-80 60-80-60z" stroke="#000" stroke-width="2" fill="#fff"/><use xlink:href="#ah" transform="matrix(1,0,0,1,4525,1153) translate(53.529999999999994 41.9)"/><use xlink:href="#ai" transform="matrix(1,0,0,1,4525,1153) translate(30.579999999999995 63.5)"/><path d="M4360 930.15v209.6M4360 930.18v-1.03" stroke="#000" stroke-width="2" fill="none"/><path d="M4361 1141.5l-1-.75-1 .75v-1.78h2z"/><path d="M4260 1369.38h200v72h-200z" fill="#fff"/><path d="M4260 1369.38h200v72h-200zM4260 1409.38h200" stroke="#000" stroke-width="2" fill="none"/><use xlink:href="#aj" transform="matrix(1,0,0,1,4270,1369.375) translate(56.525 23.6)"/><use xlink:href="#ak" transform="matrix(1,0,0,1,4265,1411.875) translate(0 17.1)"/><path d="M4630.12 1949.38H3821M4630.1 1949.38h1.02M3821.03 1949.38H3820M4621.5 1948.38l-1.5-505M4621.5 1948.35v1.03" stroke="#000" stroke-width="2" fill="none"/><path d="M4621 1443.4h-2v-1.03h2z"/><path d="M4360 1443.38V1657c0 1.66-1.34 3-3 3h-274.33" stroke="#000" stroke-width="2" fill="none"/><path d="M4361 1443.4h-2v-1.03h2zM4082.7 1661h-2.37l1.34-1-1.34-1h2.36z"/><path d="M4600 1468h60v20h-60z" stroke="#000" stroke-opacity="0" stroke-width="2" fill="#fff" fill-opacity="0"/><use xlink:href="#al" transform="matrix(1,0,0,1,4605,1473) translate(20 14.4)"/><path d="M4570 1322.75h60v20h-60z" stroke="#000" stroke-opacity="0" stroke-width="2" fill="#fff" fill-opacity="0"/><use xlink:href="#Y" transform="matrix(1,0,0,1,4575,1327.75) translate(18.525 14.4)"/><path d="M3600 1452.2h20v20h-20z" stroke="#000" stroke-opacity="0" stroke-width="2" fill="#fff" fill-opacity="0"/><use xlink:href="#al" transform="matrix(1,0,0,1,3605,1457.1875) translate(0 14.4)"/><path d="M3602.67 1447.2H3815c2.76 0 5 2.23 5 5V1947" stroke="#000" stroke-width="2" fill="none"/><path d="M3602.7 1448.2h-2.37l1.34-1-1.34-1h2.36z"/><path d="M3820 1946.97v1.03" stroke="#000" stroke-width="2" fill="none"/><path d="M4330 1312h60v20h-60z" stroke="#000" stroke-opacity="0" stroke-width="2" fill="#fff" fill-opacity="0"/><use xlink:href="#Y" transform="matrix(1,0,0,1,4335,1317) translate(18.525 14.4)"/><path d="M4350 1468h60v20h-60z" stroke="#000" stroke-opacity="0" stroke-width="2" fill="#fff" fill-opacity="0"/><use xlink:href="#al" transform="matrix(1,0,0,1,4355,1473) translate(20 14.4)"/><path d="M4880 1312h40v20h-40z" stroke="#000" stroke-opacity="0" stroke-width="2" fill="#fff" fill-opacity="0"/><use xlink:href="#Y" transform="matrix(1,0,0,1,4885,1317) translate(8.524999999999999 14.4)"/><path d="M3240 840h200v72h-200z" fill="#fff"/><path d="M3240 840h200v72h-200zM3240 880h200" stroke="#000" stroke-width="2" fill="none"/><use xlink:href="#am" transform="matrix(1,0,0,1,3250,840) translate(37.12499999999999 23.6)"/><use xlink:href="#an" transform="matrix(1,0,0,1,3245,882.5) translate(0 17.1)"/><path d="M3520 1292h60v20h-60z" stroke="#000" stroke-opacity="0" stroke-width="2" fill="#fff" fill-opacity="0"/><use xlink:href="#Y" transform="matrix(1,0,0,1,3525,1297) translate(18.525 14.4)"/><path d="M2760 2107.2V2061" stroke="#000" stroke-width="2" fill="none"/><path d="M2761 2108.2h-2v-1.04h2z"/><path d="M2760 2061.03V2060M3020 2107.2V2061" stroke="#000" stroke-width="2" fill="none"/><path d="M3021 2108.2h-2v-1.04h2z"/><path d="M3020 2061.03V2060M3280 2111.63V2061" stroke="#000" stroke-width="2" fill="none"/><path d="M3281 2112.63h-2v-1.03h2z"/><path d="M3280 2061.03V2060M3520 2111.63v-370.75" stroke="#000" stroke-width="2" fill="none"/><path d="M3521 2112.63h-2v-1.03h2z"/><path d="M3520 1725.6l4.64 14.28h-9.28z" stroke="#000" stroke-width="2"/><path d="M3820 2107.2V2061" stroke="#000" stroke-width="2" fill="none"/><path d="M3821 2108.2h-2v-1.04h2z"/><path d="M3820 2061.03V2060M4090 2107.2V2061" stroke="#000" stroke-width="2" fill="none"/><path d="M4091 2108.2h-2v-1.04h2z"/><path d="M4090 2061.03V2060M4340 2107.2V2061" stroke="#000" stroke-width="2" fill="none"/><path d="M4341 2108.2h-2v-1.04h2z"/><path d="M4340 2061.03V2060" stroke="#000" stroke-width="2" fill="none"/><path d="M4260 808h200v72h-200z" fill="#fff"/><path d="M4260 808h200v72h-200zM4260 848h200" stroke="#000" stroke-width="2" fill="none"/><use xlink:href="#ao" transform="matrix(1,0,0,1,4270,808) translate(51.074999999999996 23.6)"/><use xlink:href="#ap" transform="matrix(1,0,0,1,4265,850.5) translate(0 17.1)"/><path d="M4360 882v206h239" stroke="#000" stroke-width="2" fill="none"/><path d="M4361 882.03h-2V881h2z"/><path d="M4598.97 1088h1.03M4900 1145.68V1089" stroke="#000" stroke-width="2" fill="none"/><path d="M4901 1147.54l-1-.86-1 .86v-1.88h2z"/><path d="M4900 1089.03V1088M4899 1088h-298M4898.97 1088h1.03M4601.03 1088H4600M4600.9 1091v55.42M4600.9 1091.03V1090" stroke="#000" stroke-width="2" fill="none"/><path d="M4601.9 1148.17l-1.9-1.42-.1.08v-.43h2z"/><path d="M3520 1169.8v-154.7c0-2.75 2.24-5 5-5h250c2.76 0 5-2.23 5-5V850.4" stroke="#000" stroke-width="2" fill="none"/><path d="M3521 1170.8h-2v-1h2z"/><path d="M3780 850.44v-1.03M3340 838V692c0-2.76 2.24-5 5-5h434" stroke="#000" stroke-width="2" fill="none"/><path d="M3341 839h-2v-1.03h2z"/><path d="M3778.97 687h1.03M3780 651.5v196.9" stroke="#000" stroke-width="2" fill="none"/><path d="M3780 636.24l4.64 14.26h-9.28z" stroke="#000" stroke-width="2"/><path d="M3780 848.4v1M3781 687.4h574c2.76 0 5 2.24 5 5V806M3781.03 687.4H3780" stroke="#000" stroke-width="2" fill="none"/><path d="M4361 807h-2v-1.03h2z"/><path d="M3320 1447.2c0 22.08-35.82 40-80 40s-80-17.92-80-40c0-22.1 35.82-40 80-40s80 17.9 80 40z" stroke="#000" stroke-width="2" fill="#fff"/><use xlink:href="#aq" transform="matrix(1,0,0,1,3165,1412.1875) translate(54.55 38.4625)"/><path d="M3322 1447.2h115.33" stroke="#000" stroke-width="2" fill="none"/><path d="M3322.03 1448.2h-1.06l.03-1v-.2l-.03-.8h1.06zM3438.33 1447.2l1.34 1h-2.36v-2h2.37z"/><path d="M4875.24 1374l.1-124.8" stroke="#000" stroke-width="2" fill="none"/><path d="M4876.24 1373.98v1.02h-2v-1.03zM4876.35 1249.05v.17h-2v-1.88z"/><path d="M4388.44 1242.92v124.45" stroke="#000" stroke-width="2" fill="none"/><path d="M4389.44 1242.95h-2v-.28l2-1.5zM4389.44 1368.38h-2v-1.03h2z"/><path d="M4340.33 1367.38V1249.5" stroke="#000" stroke-width="2" fill="none"/><path d="M4341.33 1368.38h-2v-1.03h2zM4341.33 1249.25v.27h-2v-1.77z"/><path d="M4624.28 1252.04v115.34" stroke="#000" stroke-width="2" fill="none"/><path d="M4625.28 1252.07h-2v-.28l2-1.5zM4625.28 1368.38h-2v-1.03h2z"/><path d="M4572.97 1249.98v117.4" stroke="#000" stroke-width="2" fill="none"/><path d="M4573.97 1249.73v.27h-2v-1.77zM4573.97 1368.38h-2v-1.03h2z"/><path d="M2400 2109.2h200v136h-200z" fill="#fff"/><path d="M2400 2109.2h200v136h-200zM2400 2149.2h200" stroke="#000" stroke-width="2" fill="none"/><use xlink:href="#ar" transform="matrix(1,0,0,1,2410,2109.1875) translate(66.375 23.6)"/><use xlink:href="#as" transform="matrix(1,0,0,1,2405,2151.6875) translate(0 17.1)"/><use xlink:href="#at" transform="matrix(1,0,0,1,2405,2183.6875) translate(0 17.1)"/><use xlink:href="#au" transform="matrix(1,0,0,1,2405,2215.6875) translate(0 17.1)"/><path d="M2080 2109.2h200v104h-200z" fill="#fff"/><path d="M2080 2109.2h200v104h-200zM2080 2149.2h200" stroke="#000" stroke-width="2" fill="none"/><use xlink:href="#av" transform="matrix(1,0,0,1,2090,2109.1875) translate(78 23.6)"/><use xlink:href="#aw" transform="matrix(1,0,0,1,2085,2151.6875) translate(0 17.1)"/><use xlink:href="#ax" transform="matrix(1,0,0,1,2085,2183.6875) translate(0 17.1)"/><path d="M3820 1348c0 33.14-44.77 60-100 60s-100-26.86-100-60 44.77-60 100-60 100 26.86 100 60z" stroke="#000" stroke-width="2" fill="#fff"/><use xlink:href="#ay" transform="matrix(1,0,0,1,3625,1293) translate(74 59.0875)"/><path d="M3602.62 1446.88l116.43-37.57" stroke="#000" stroke-width="2" fill="none"/><path d="M3602.95 1447.82l-3.74 1.2 2.47-1.83-.98-.75 1.64-.53zM3723.16 1409.03l-3.83 1.24-.42-1.3 1.1.03 3.14-.03z"/><path d="M4340 888h60v20h-60z" stroke="#000" stroke-opacity="0" stroke-width="2" fill="#fff" fill-opacity="0"/><use xlink:href="#al" transform="matrix(1,0,0,1,4345,893) translate(20 14.4)"/><path d="M4921.98 1374v-61.22h-.1v-61.2" stroke="#000" stroke-width="2" fill="none"/><path d="M4922.98 1375h-2v-1.03h2zM4922.88 1251.6h-2v-.18l2-1.7z"/><path d="M5160 1488h220v168h-220z" fill="#fff"/><path d="M5160 1488h220v168h-220zM5160 1528h220" stroke="#000" stroke-width="2" fill="none"/><use xlink:href="#az" transform="matrix(1,0,0,1,5170,1488) translate(80.55 23.6)"/><use xlink:href="#aA" transform="matrix(1,0,0,1,5165,1530.5) translate(0 17.1)"/><use xlink:href="#aB" transform="matrix(1,0,0,1,5165,1562.5) translate(0 17.1)"/><use xlink:href="#aC" transform="matrix(1,0,0,1,5165,1594.5) translate(0 17.1)"/><use xlink:href="#aD" transform="matrix(1,0,0,1,5165,1626.5) translate(0 17.1)"/><path d="M5002 1466h73c2.76 0 5 2.24 5 5v100c0 2.76 2.24 5 5 5h73" stroke="#000" stroke-width="2" fill="none"/><path d="M5002.03 1467H5001v-2h1.03zM5159 1577h-1.03v-2h1.03z"/><path d="M4470 400h260v200h-260z" fill="#fff"/><path d="M4470 400h260v200h-260zM4470 440h260" stroke="#000" stroke-width="2" fill="none"/><use xlink:href="#aE" transform="matrix(1,0,0,1,4480,400) translate(87.025 23.6)"/><use xlink:href="#aF" transform="matrix(1,0,0,1,4475,442.5) translate(0 17.1)"/><use xlink:href="#aG" transform="matrix(1,0,0,1,4475,474.5) translate(0 17.1)"/><use xlink:href="#aH" transform="matrix(1,0,0,1,4475,506.5) translate(0 17.1)"/><use xlink:href="#aI" transform="matrix(1,0,0,1,4475,538.5) translate(0 17.1)"/><use xlink:href="#aJ" transform="matrix(1,0,0,1,4475,570.5) translate(0 17.1)"/><path d="M5160 1270h220v136h-220z" fill="#fff"/><path d="M5160 1270h220v136h-220zM5160 1310h220" stroke="#000" stroke-width="2" fill="none"/><use xlink:href="#aK" transform="matrix(1,0,0,1,5170,1270) translate(65.07499999999999 23.6)"/><use xlink:href="#aL" transform="matrix(1,0,0,1,5165,1312.5) translate(0 17.1)"/><use xlink:href="#aM" transform="matrix(1,0,0,1,5165,1344.5) translate(0 17.1)"/><use xlink:href="#aN" transform="matrix(1,0,0,1,5165,1376.5) translate(0 17.1)"/><path d="M5158 1358h-73c-2.76 0-5 2.24-5 5v27.52c0 2.76-2.24 5-5 5h-73" stroke="#000" stroke-width="2" fill="none"/><path d="M5159 1359h-1.03v-2h1.03zM5002.03 1396.52H5001v-2h1.03z"/><path d="M4468 488h-556" stroke="#000" stroke-width="2" fill="none"/><path d="M4469 489h-1.03v-2h1.03zM3912.03 489H3911v-2h1.03z"/><path d="M4000 1600l80 60-80 60-80-60z" stroke="#000" stroke-width="2" fill="#fff"/><use xlink:href="#aO" transform="matrix(1,0,0,1,3925,1605) translate(31.529999999999994 59.0875)"/><path d="M3917.33 1660H3622" stroke="#000" stroke-width="2" fill="none"/><path d="M3918.33 1660l1.34 1h-2.36v-2h2.37zM3622.03 1661H3621v-2h1.03z"/><path d="M2601 2060h2138M2601.03 2060H2600M4738.97 2060h1.03M4740 2107.2V2061" stroke="#000" stroke-width="2" fill="none"/><path d="M4741 2108.2h-2v-1.04h2z"/><path d="M4740 2061.03V2060M2500 2107.2V2060h99" stroke="#000" stroke-width="2" fill="none"/><path d="M2501 2108.2h-2v-1.04h2z"/><path d="M2598.97 2060h1.03M2180 2107.2v-45.4h319" stroke="#000" stroke-width="2" fill="none"/><path d="M2181 2108.2h-2v-1.04h2z"/><path d="M2498.97 2061.8h1.03" stroke="#000" stroke-width="2" fill="none"/><defs><path d="M232-93c-1 65-40 97-104 97C67 4 28-28 28-90v-158h33c8 89-33 224 67 224 102 0 64-133 71-224h33v155" id="aP"/><path d="M135-143c-3-34-86-38-87 0 15 53 115 12 119 90S17 21 10-45l28-5c4 36 97 45 98 0-10-56-113-15-118-90-4-57 82-63 122-42 12 7 21 19 24 35" id="aQ"/><path d="M100-194c63 0 86 42 84 106H49c0 40 14 67 53 68 26 1 43-12 49-29l28 8c-11 28-37 45-77 45C44 4 14-33 15-96c1-61 26-98 85-98zm52 81c6-60-76-77-97-28-3 7-6 17-6 28h103" id="aR"/><path d="M114-163C36-179 61-72 57 0H25l-1-190h30c1 12-1 29 2 39 6-27 23-49 58-41v29" id="aS"/><g id="a"><use transform="matrix(0.05,0,0,0.05,0,0)" xlink:href="#aP"/><use transform="matrix(0.05,0,0,0.05,12.950000000000001,0)" xlink:href="#aQ"/><use transform="matrix(0.05,0,0,0.05,21.950000000000003,0)" xlink:href="#aR"/><use transform="matrix(0.05,0,0,0.05,31.950000000000003,0)" xlink:href="#aS"/><use transform="matrix(0.05,0,0,0.05,37.900000000000006,0)" xlink:href="#aQ"/></g><path d="M84 4C-5 8 30-112 23-190h32v120c0 31 7 50 39 49 72-2 45-101 50-169h31l1 190h-30c-1-10 1-25-2-33-11 22-28 36-60 37" id="aT"/><path d="M-5 72V49h209v23H-5" id="aU"/><path d="M24-231v-30h32v30H24zM24 0v-190h32V0H24" id="aV"/><path d="M85-194c31 0 48 13 60 33l-1-100h32l1 261h-30c-2-10 0-23-3-31C134-8 116 4 85 4 32 4 16-35 15-94c0-66 23-100 70-100zm9 24c-40 0-46 34-46 75 0 40 6 74 45 74 42 0 51-32 51-76 0-42-9-74-50-73" id="aW"/><g id="b"><use transform="matrix(0.05,0,0,0.05,0,0)" xlink:href="#aT"/><use transform="matrix(0.05,0,0,0.05,10,0)" xlink:href="#aQ"/><use transform="matrix(0.05,0,0,0.05,19,0)" xlink:href="#aR"/><use transform="matrix(0.05,0,0,0.05,29,0)" xlink:href="#aS"/><use transform="matrix(0.05,0,0,0.05,34.95,0)" xlink:href="#aU"/><use transform="matrix(0.05,0,0,0.05,44.95,0)" xlink:href="#aV"/><use transform="matrix(0.05,0,0,0.05,48.900000000000006,0)" xlink:href="#aW"/></g><path d="M101-234c-31-9-42 10-38 44h38v23H63V0H32v-167H5v-23h27c-7-52 17-82 69-68v24" id="aX"/><path d="M59-47c-2 24 18 29 38 22v24C64 9 27 4 27-40v-127H5v-23h24l9-43h21v43h35v23H59v120" id="aY"/><path d="M117-194c89-4 53 116 60 194h-32v-121c0-31-8-49-39-48C34-167 62-67 57 0H25l-1-190h30c1 10-1 24 2 32 11-22 29-35 61-36" id="aZ"/><path d="M141-36C126-15 110 5 73 4 37 3 15-17 15-53c-1-64 63-63 125-63 3-35-9-54-41-54-24 1-41 7-42 31l-33-3c5-37 33-52 76-52 45 0 72 20 72 64v82c-1 20 7 32 28 27v20c-31 9-61-2-59-35zM48-53c0 20 12 33 32 33 41-3 63-29 60-74-43 2-92-5-92 41" id="ba"/><path d="M210-169c-67 3-38 105-44 169h-31v-121c0-29-5-50-35-48C34-165 62-65 56 0H25l-1-190h30c1 10-1 24 2 32 10-44 99-50 107 0 11-21 27-35 58-36 85-2 47 119 55 194h-31v-121c0-29-5-49-35-48" id="bb"/><g id="c"><use transform="matrix(0.05,0,0,0.05,0,0)" xlink:href="#aT"/><use transform="matrix(0.05,0,0,0.05,10,0)" xlink:href="#aQ"/><use transform="matrix(0.05,0,0,0.05,19,0)" xlink:href="#aR"/><use transform="matrix(0.05,0,0,0.05,29,0)" xlink:href="#aS"/><use transform="matrix(0.05,0,0,0.05,34.95,0)" xlink:href="#aU"/><use transform="matrix(0.05,0,0,0.05,44.95,0)" xlink:href="#aX"/><use transform="matrix(0.05,0,0,0.05,49.95,0)" xlink:href="#aV"/><use transform="matrix(0.05,0,0,0.05,53.900000000000006,0)" xlink:href="#aS"/><use transform="matrix(0.05,0,0,0.05,59.85,0)" xlink:href="#aQ"/><use transform="matrix(0.05,0,0,0.05,68.85000000000001,0)" xlink:href="#aY"/><use transform="matrix(0.05,0,0,0.05,73.85000000000001,0)" xlink:href="#aU"/><use transform="matrix(0.05,0,0,0.05,83.85000000000001,0)" xlink:href="#aZ"/><use transform="matrix(0.05,0,0,0.05,93.85000000000001,0)" xlink:href="#ba"/><use transform="matrix(0.05,0,0,0.05,103.85000000000001,0)" xlink:href="#bb"/><use transform="matrix(0.05,0,0,0.05,118.80000000000001,0)" xlink:href="#aR"/></g><path d="M24 0v-261h32V0H24" id="bc"/><g id="d"><use transform="matrix(0.05,0,0,0.05,0,0)" xlink:href="#aT"/><use transform="matrix(0.05,0,0,0.05,10,0)" xlink:href="#aQ"/><use transform="matrix(0.05,0,0,0.05,19,0)" xlink:href="#aR"/><use transform="matrix(0.05,0,0,0.05,29,0)" xlink:href="#aS"/><use transform="matrix(0.05,0,0,0.05,34.95,0)" xlink:href="#aU"/><use transform="matrix(0.05,0,0,0.05,44.95,0)" xlink:href="#bc"/><use transform="matrix(0.05,0,0,0.05,48.900000000000006,0)" xlink:href="#ba"/><use transform="matrix(0.05,0,0,0.05,58.900000000000006,0)" xlink:href="#aQ"/><use transform="matrix(0.05,0,0,0.05,67.9,0)" xlink:href="#aY"/><use transform="matrix(0.05,0,0,0.05,72.9,0)" xlink:href="#aU"/><use transform="matrix(0.05,0,0,0.05,82.9,0)" xlink:href="#aZ"/><use transform="matrix(0.05,0,0,0.05,92.9,0)" xlink:href="#ba"/><use transform="matrix(0.05,0,0,0.05,102.9,0)" xlink:href="#bb"/><use transform="matrix(0.05,0,0,0.05,117.85000000000001,0)" xlink:href="#aR"/></g><g id="e"><use transform="matrix(0.05,0,0,0.05,0,0)" xlink:href="#aT"/><use transform="matrix(0.05,0,0,0.05,10,0)" xlink:href="#aQ"/><use transform="matrix(0.05,0,0,0.05,19,0)" xlink:href="#aR"/><use transform="matrix(0.05,0,0,0.05,29,0)" xlink:href="#aS"/><use transform="matrix(0.05,0,0,0.05,34.95,0)" xlink:href="#aU"/><use transform="matrix(0.05,0,0,0.05,44.95,0)" xlink:href="#aT"/><use transform="matrix(0.05,0,0,0.05,54.95,0)" xlink:href="#aZ"/><use transform="matrix(0.05,0,0,0.05,64.95,0)" xlink:href="#ba"/><use transform="matrix(0.05,0,0,0.05,74.95,0)" xlink:href="#bb"/><use transform="matrix(0.05,0,0,0.05,89.9,0)" xlink:href="#aR"/></g><path d="M115-194c55 1 70 41 70 98S169 2 115 4C84 4 66-9 55-30l1 105H24l-1-265h31l2 30c10-21 28-34 59-34zm-8 174c40 0 45-34 45-75s-6-73-45-74c-42 0-51 32-51 76 0 43 10 73 51 73" id="bd"/><path d="M206 0h-36l-40-164L89 0H53L-1-190h32L70-26l43-164h34l41 164 42-164h31" id="be"/><path d="M100-194c62-1 85 37 85 99 1 63-27 99-86 99S16-35 15-95c0-66 28-99 85-99zM99-20c44 1 53-31 53-75 0-43-8-75-51-75s-53 32-53 75 10 74 51 75" id="bf"/><g id="f"><use transform="matrix(0.05,0,0,0.05,0,0)" xlink:href="#aT"/><use transform="matrix(0.05,0,0,0.05,10,0)" xlink:href="#aQ"/><use transform="matrix(0.05,0,0,0.05,19,0)" xlink:href="#aR"/><use transform="matrix(0.05,0,0,0.05,29,0)" xlink:href="#aS"/><use transform="matrix(0.05,0,0,0.05,34.95,0)" xlink:href="#aU"/><use transform="matrix(0.05,0,0,0.05,44.95,0)" xlink:href="#bd"/><use transform="matrix(0.05,0,0,0.05,54.95,0)" xlink:href="#ba"/><use transform="matrix(0.05,0,0,0.05,64.95,0)" xlink:href="#aQ"/><use transform="matrix(0.05,0,0,0.05,73.95,0)" xlink:href="#aQ"/><use transform="matrix(0.05,0,0,0.05,82.95,0)" xlink:href="#be"/><use transform="matrix(0.05,0,0,0.05,95.9,0)" xlink:href="#bf"/><use transform="matrix(0.05,0,0,0.05,105.9,0)" xlink:href="#aS"/><use transform="matrix(0.05,0,0,0.05,111.85000000000001,0)" xlink:href="#aW"/></g><path d="M30-248c87 1 191-15 191 75 0 78-77 80-158 76V0H30v-248zm33 125c57 0 124 11 124-50 0-59-68-47-124-48v98" id="bg"/><path d="M233-177c-1 41-23 64-60 70L243 0h-38l-65-103H63V0H30v-248c88 3 205-21 203 71zM63-129c60-2 137 13 137-47 0-61-80-42-137-45v92" id="bh"/><path d="M96-169c-40 0-48 33-48 73s9 75 48 75c24 0 41-14 43-38l32 2c-6 37-31 61-74 61-59 0-76-41-82-99-10-93 101-131 147-64 4 7 5 14 7 22l-32 3c-4-21-16-35-41-35" id="bi"/><g id="g"><use transform="matrix(0.05,0,0,0.05,0,0)" xlink:href="#bg"/><use transform="matrix(0.05,0,0,0.05,12,0)" xlink:href="#bf"/><use transform="matrix(0.05,0,0,0.05,22,0)" xlink:href="#be"/><use transform="matrix(0.05,0,0,0.05,34.95,0)" xlink:href="#aR"/><use transform="matrix(0.05,0,0,0.05,44.95,0)" xlink:href="#aS"/><use transform="matrix(0.05,0,0,0.05,50.900000000000006,0)" xlink:href="#bh"/><use transform="matrix(0.05,0,0,0.05,63.85,0)" xlink:href="#aR"/><use transform="matrix(0.05,0,0,0.05,73.85000000000001,0)" xlink:href="#aQ"/><use transform="matrix(0.05,0,0,0.05,82.85000000000001,0)" xlink:href="#bf"/><use transform="matrix(0.05,0,0,0.05,92.85000000000001,0)" xlink:href="#aT"/><use transform="matrix(0.05,0,0,0.05,102.85000000000001,0)" xlink:href="#aS"/><use transform="matrix(0.05,0,0,0.05,108.80000000000001,0)" xlink:href="#bi"/><use transform="matrix(0.05,0,0,0.05,117.80000000000001,0)" xlink:href="#aR"/><use transform="matrix(0.05,0,0,0.05,127.80000000000001,0)" xlink:href="#aQ"/></g><g id="h"><use transform="matrix(0.05,0,0,0.05,0,0)" xlink:href="#bd"/><use transform="matrix(0.05,0,0,0.05,10,0)" xlink:href="#bf"/><use transform="matrix(0.05,0,0,0.05,20,0)" xlink:href="#be"/><use transform="matrix(0.05,0,0,0.05,32.95,0)" xlink:href="#aR"/><use transform="matrix(0.05,0,0,0.05,42.95,0)" xlink:href="#aS"/><use transform="matrix(0.05,0,0,0.05,48.900000000000006,0)" xlink:href="#aU"/><use transform="matrix(0.05,0,0,0.05,58.900000000000006,0)" xlink:href="#aV"/><use transform="matrix(0.05,0,0,0.05,62.85,0)" xlink:href="#aW"/></g><path d="M179-190L93 31C79 59 56 82 12 73V49c39 6 53-20 64-50L1-190h34L92-34l54-156h33" id="bj"/><g id="i"><use transform="matrix(0.05,0,0,0.05,0,0)" xlink:href="#bd"/><use transform="matrix(0.05,0,0,0.05,10,0)" xlink:href="#bf"/><use transform="matrix(0.05,0,0,0.05,20,0)" xlink:href="#be"/><use transform="matrix(0.05,0,0,0.05,32.95,0)" xlink:href="#aR"/><use transform="matrix(0.05,0,0,0.05,42.95,0)" xlink:href="#aS"/><use transform="matrix(0.05,0,0,0.05,48.900000000000006,0)" xlink:href="#aU"/><use transform="matrix(0.05,0,0,0.05,58.900000000000006,0)" xlink:href="#aY"/><use transform="matrix(0.05,0,0,0.05,63.900000000000006,0)" xlink:href="#bj"/><use transform="matrix(0.05,0,0,0.05,72.9,0)" xlink:href="#bd"/><use transform="matrix(0.05,0,0,0.05,82.9,0)" xlink:href="#aR"/></g><g id="j"><use transform="matrix(0.05,0,0,0.05,0,0)" xlink:href="#bd"/><use transform="matrix(0.05,0,0,0.05,10,0)" xlink:href="#bf"/><use transform="matrix(0.05,0,0,0.05,20,0)" xlink:href="#be"/><use transform="matrix(0.05,0,0,0.05,32.95,0)" xlink:href="#aR"/><use transform="matrix(0.05,0,0,0.05,42.95,0)" xlink:href="#aS"/><use transform="matrix(0.05,0,0,0.05,48.900000000000006,0)" xlink:href="#aU"/><use transform="matrix(0.05,0,0,0.05,58.900000000000006,0)" xlink:href="#aW"/><use transform="matrix(0.05,0,0,0.05,68.9,0)" xlink:href="#aR"/><use transform="matrix(0.05,0,0,0.05,78.9,0)" xlink:href="#aQ"/><use transform="matrix(0.05,0,0,0.05,87.9,0)" xlink:href="#bi"/><use transform="matrix(0.05,0,0,0.05,96.9,0)" xlink:href="#aS"/><use transform="matrix(0.05,0,0,0.05,102.85000000000001,0)" xlink:href="#aV"/><use transform="matrix(0.05,0,0,0.05,106.80000000000001,0)" xlink:href="#bd"/><use transform="matrix(0.05,0,0,0.05,116.80000000000001,0)" xlink:href="#aY"/><use transform="matrix(0.05,0,0,0.05,121.80000000000001,0)" xlink:href="#aV"/><use transform="matrix(0.05,0,0,0.05,125.75,0)" xlink:href="#bf"/><use transform="matrix(0.05,0,0,0.05,135.75,0)" xlink:href="#aZ"/></g><path d="M212-179c-10-28-35-45-73-45-59 0-87 40-87 99 0 60 29 101 89 101 43 0 62-24 78-52l27 14C228-24 195 4 139 4 59 4 22-46 18-125c-6-104 99-153 187-111 19 9 31 26 39 46" id="bk"/><path d="M106-169C34-169 62-67 57 0H25v-261h32l-1 103c12-21 28-36 61-36 89 0 53 116 60 194h-32v-121c2-32-8-49-39-48" id="bl"/><path d="M177-190C167-65 218 103 67 71c-23-6-38-20-44-43l32-5c15 47 100 32 89-28v-30C133-14 115 1 83 1 29 1 15-40 15-95c0-56 16-97 71-98 29-1 48 16 59 35 1-10 0-23 2-32h30zM94-22c36 0 50-32 50-73 0-42-14-75-50-75-39 0-46 34-46 75s6 73 46 73" id="bm"/><g id="k"><use transform="matrix(0.05,0,0,0.05,0,0)" xlink:href="#bk"/><use transform="matrix(0.05,0,0,0.05,12.950000000000001,0)" xlink:href="#bc"/><use transform="matrix(0.05,0,0,0.05,16.900000000000002,0)" xlink:href="#bf"/><use transform="matrix(0.05,0,0,0.05,26.900000000000002,0)" xlink:href="#aY"/><use transform="matrix(0.05,0,0,0.05,31.900000000000002,0)" xlink:href="#bl"/><use transform="matrix(0.05,0,0,0.05,41.900000000000006,0)" xlink:href="#aV"/><use transform="matrix(0.05,0,0,0.05,45.85000000000001,0)" xlink:href="#aZ"/><use transform="matrix(0.05,0,0,0.05,55.85,0)" xlink:href="#bm"/></g><g id="l"><use transform="matrix(0.05,0,0,0.05,0,0)" xlink:href="#bi"/><use transform="matrix(0.05,0,0,0.05,9,0)" xlink:href="#bc"/><use transform="matrix(0.05,0,0,0.05,12.949999999999998,0)" xlink:href="#bf"/><use transform="matrix(0.05,0,0,0.05,22.95,0)" xlink:href="#aY"/><use transform="matrix(0.05,0,0,0.05,27.950000000000003,0)" xlink:href="#bl"/><use transform="matrix(0.05,0,0,0.05,37.95,0)" xlink:href="#aR"/><use transform="matrix(0.05,0,0,0.05,47.95,0)" xlink:href="#aU"/><use transform="matrix(0.05,0,0,0.05,57.95,0)" xlink:href="#aV"/><use transform="matrix(0.05,0,0,0.05,61.900000000000006,0)" xlink:href="#aW"/></g><g id="m"><use transform="matrix(0.05,0,0,0.05,0,0)" xlink:href="#bi"/><use transform="matrix(0.05,0,0,0.05,9,0)" xlink:href="#bc"/><use transform="matrix(0.05,0,0,0.05,12.949999999999998,0)" xlink:href="#bf"/><use transform="matrix(0.05,0,0,0.05,22.95,0)" xlink:href="#aY"/><use transform="matrix(0.05,0,0,0.05,27.950000000000003,0)" xlink:href="#bl"/><use transform="matrix(0.05,0,0,0.05,37.95,0)" xlink:href="#aR"/><use transform="matrix(0.05,0,0,0.05,47.95,0)" xlink:href="#aU"/><use transform="matrix(0.05,0,0,0.05,57.95,0)" xlink:href="#aY"/><use transform="matrix(0.05,0,0,0.05,62.95,0)" xlink:href="#bj"/><use transform="matrix(0.05,0,0,0.05,71.95,0)" xlink:href="#bd"/><use transform="matrix(0.05,0,0,0.05,81.95,0)" xlink:href="#aR"/></g><path d="M9 0v-24l116-142H16v-24h144v24L44-24h123V0H9" id="bn"/><g id="n"><use transform="matrix(0.05,0,0,0.05,0,0)" xlink:href="#bi"/><use transform="matrix(0.05,0,0,0.05,9,0)" xlink:href="#bc"/><use transform="matrix(0.05,0,0,0.05,12.949999999999998,0)" xlink:href="#bf"/><use transform="matrix(0.05,0,0,0.05,22.95,0)" xlink:href="#aY"/><use transform="matrix(0.05,0,0,0.05,27.950000000000003,0)" xlink:href="#bl"/><use transform="matrix(0.05,0,0,0.05,37.95,0)" xlink:href="#aR"/><use transform="matrix(0.05,0,0,0.05,47.95,0)" xlink:href="#aU"/><use transform="matrix(0.05,0,0,0.05,57.95,0)" xlink:href="#aQ"/><use transform="matrix(0.05,0,0,0.05,66.95,0)" xlink:href="#aV"/><use transform="matrix(0.05,0,0,0.05,70.9,0)" xlink:href="#bn"/><use transform="matrix(0.05,0,0,0.05,79.9,0)" xlink:href="#aR"/></g><g id="o"><use transform="matrix(0.05,0,0,0.05,0,0)" xlink:href="#bi"/><use transform="matrix(0.05,0,0,0.05,9,0)" xlink:href="#bc"/><use transform="matrix(0.05,0,0,0.05,12.949999999999998,0)" xlink:href="#bf"/><use transform="matrix(0.05,0,0,0.05,22.95,0)" xlink:href="#aY"/><use transform="matrix(0.05,0,0,0.05,27.950000000000003,0)" xlink:href="#bl"/><use transform="matrix(0.05,0,0,0.05,37.95,0)" xlink:href="#aR"/><use transform="matrix(0.05,0,0,0.05,47.95,0)" xlink:href="#aU"/><use transform="matrix(0.05,0,0,0.05,57.95,0)" xlink:href="#aW"/><use transform="matrix(0.05,0,0,0.05,67.95,0)" xlink:href="#aR"/><use transform="matrix(0.05,0,0,0.05,77.95,0)" xlink:href="#aQ"/><use transform="matrix(0.05,0,0,0.05,86.95,0)" xlink:href="#bi"/><use transform="matrix(0.05,0,0,0.05,95.95,0)" xlink:href="#aS"/><use transform="matrix(0.05,0,0,0.05,101.9,0)" xlink:href="#aV"/><use transform="matrix(0.05,0,0,0.05,105.85000000000001,0)" xlink:href="#bd"/><use transform="matrix(0.05,0,0,0.05,115.85000000000001,0)" xlink:href="#aY"/><use transform="matrix(0.05,0,0,0.05,120.85000000000001,0)" xlink:href="#aV"/><use transform="matrix(0.05,0,0,0.05,124.80000000000001,0)" xlink:href="#bf"/><use transform="matrix(0.05,0,0,0.05,134.8,0)" xlink:href="#aZ"/></g><path d="M63-220v92h138v28H63V0H30v-248h175v28H63" id="bo"/><g id="p"><use transform="matrix(0.05,0,0,0.05,0,0)" xlink:href="#bo"/><use transform="matrix(0.05,0,0,0.05,10.950000000000001,0)" xlink:href="#bf"/><use transform="matrix(0.05,0,0,0.05,20.950000000000003,0)" xlink:href="#bf"/><use transform="matrix(0.05,0,0,0.05,30.950000000000003,0)" xlink:href="#aW"/></g><g id="q"><use transform="matrix(0.05,0,0,0.05,0,0)" xlink:href="#aX"/><use transform="matrix(0.05,0,0,0.05,5,0)" xlink:href="#bf"/><use transform="matrix(0.05,0,0,0.05,15,0)" xlink:href="#bf"/><use transform="matrix(0.05,0,0,0.05,25,0)" xlink:href="#aW"/><use transform="matrix(0.05,0,0,0.05,35,0)" xlink:href="#aU"/><use transform="matrix(0.05,0,0,0.05,45,0)" xlink:href="#aV"/><use transform="matrix(0.05,0,0,0.05,48.95,0)" xlink:href="#aW"/></g><path d="M141 0L90-78 38 0H4l68-98-65-92h35l48 74 47-74h35l-64 92 68 98h-35" id="bp"/><g id="r"><use transform="matrix(0.05,0,0,0.05,0,0)" xlink:href="#aX"/><use transform="matrix(0.05,0,0,0.05,5,0)" xlink:href="#bf"/><use transform="matrix(0.05,0,0,0.05,15,0)" xlink:href="#bf"/><use transform="matrix(0.05,0,0,0.05,25,0)" xlink:href="#aW"/><use transform="matrix(0.05,0,0,0.05,35,0)" xlink:href="#aU"/><use transform="matrix(0.05,0,0,0.05,45,0)" xlink:href="#aR"/><use transform="matrix(0.05,0,0,0.05,55,0)" xlink:href="#bp"/><use transform="matrix(0.05,0,0,0.05,64,0)" xlink:href="#bd"/><use transform="matrix(0.05,0,0,0.05,74,0)" xlink:href="#aU"/><use transform="matrix(0.05,0,0,0.05,84,0)" xlink:href="#aW"/><use transform="matrix(0.05,0,0,0.05,94,0)" xlink:href="#ba"/><use transform="matrix(0.05,0,0,0.05,104,0)" xlink:href="#aY"/><use transform="matrix(0.05,0,0,0.05,109,0)" xlink:href="#aR"/></g><g id="s"><use transform="matrix(0.05,0,0,0.05,0,0)" xlink:href="#aX"/><use transform="matrix(0.05,0,0,0.05,5,0)" xlink:href="#bf"/><use transform="matrix(0.05,0,0,0.05,15,0)" xlink:href="#bf"/><use transform="matrix(0.05,0,0,0.05,25,0)" xlink:href="#aW"/><use transform="matrix(0.05,0,0,0.05,35,0)" xlink:href="#aU"/><use transform="matrix(0.05,0,0,0.05,45,0)" xlink:href="#aY"/><use transform="matrix(0.05,0,0,0.05,50,0)" xlink:href="#bj"/><use transform="matrix(0.05,0,0,0.05,59,0)" xlink:href="#bd"/><use transform="matrix(0.05,0,0,0.05,69,0)" xlink:href="#aR"/></g><g id="t"><use transform="matrix(0.05,0,0,0.05,0,0)" xlink:href="#aX"/><use transform="matrix(0.05,0,0,0.05,5,0)" xlink:href="#bf"/><use transform="matrix(0.05,0,0,0.05,15,0)" xlink:href="#bf"/><use transform="matrix(0.05,0,0,0.05,25,0)" xlink:href="#aW"/><use transform="matrix(0.05,0,0,0.05,35,0)" xlink:href="#aU"/><use transform="matrix(0.05,0,0,0.05,45,0)" xlink:href="#aW"/><use transform="matrix(0.05,0,0,0.05,55,0)" xlink:href="#aR"/><use transform="matrix(0.05,0,0,0.05,65,0)" xlink:href="#aQ"/><use transform="matrix(0.05,0,0,0.05,74,0)" xlink:href="#bi"/><use transform="matrix(0.05,0,0,0.05,83,0)" xlink:href="#aS"/><use transform="matrix(0.05,0,0,0.05,88.95,0)" xlink:href="#aV"/><use transform="matrix(0.05,0,0,0.05,92.9,0)" xlink:href="#bd"/><use transform="matrix(0.05,0,0,0.05,102.9,0)" xlink:href="#aY"/><use transform="matrix(0.05,0,0,0.05,107.9,0)" xlink:href="#aV"/><use transform="matrix(0.05,0,0,0.05,111.85000000000001,0)" xlink:href="#bf"/><use transform="matrix(0.05,0,0,0.05,121.85000000000001,0)" xlink:href="#aZ"/></g><path d="M127-220V0H93v-220H8v-28h204v28h-85" id="bq"/><g id="u"><use transform="matrix(0.05,0,0,0.05,0,0)" xlink:href="#bq"/><use transform="matrix(0.05,0,0,0.05,8.950000000000001,0)" xlink:href="#bf"/><use transform="matrix(0.05,0,0,0.05,18.950000000000003,0)" xlink:href="#bf"/><use transform="matrix(0.05,0,0,0.05,28.950000000000003,0)" xlink:href="#bc"/><use transform="matrix(0.05,0,0,0.05,32.900000000000006,0)" xlink:href="#aQ"/></g><g id="v"><use transform="matrix(0.05,0,0,0.05,0,0)" xlink:href="#aY"/><use transform="matrix(0.05,0,0,0.05,5,0)" xlink:href="#bf"/><use transform="matrix(0.05,0,0,0.05,15,0)" xlink:href="#bf"/><use transform="matrix(0.05,0,0,0.05,25,0)" xlink:href="#bc"/><use transform="matrix(0.05,0,0,0.05,28.950000000000003,0)" xlink:href="#aU"/><use transform="matrix(0.05,0,0,0.05,38.95,0)" xlink:href="#aV"/><use transform="matrix(0.05,0,0,0.05,42.900000000000006,0)" xlink:href="#aW"/></g><g id="w"><use transform="matrix(0.05,0,0,0.05,0,0)" xlink:href="#aY"/><use transform="matrix(0.05,0,0,0.05,5,0)" xlink:href="#bf"/><use transform="matrix(0.05,0,0,0.05,15,0)" xlink:href="#bf"/><use transform="matrix(0.05,0,0,0.05,25,0)" xlink:href="#bc"/><use transform="matrix(0.05,0,0,0.05,28.950000000000003,0)" xlink:href="#aU"/><use transform="matrix(0.05,0,0,0.05,38.95,0)" xlink:href="#aW"/><use transform="matrix(0.05,0,0,0.05,48.95,0)" xlink:href="#aR"/><use transform="matrix(0.05,0,0,0.05,58.95,0)" xlink:href="#aQ"/><use transform="matrix(0.05,0,0,0.05,67.95,0)" xlink:href="#bi"/><use transform="matrix(0.05,0,0,0.05,76.95,0)" xlink:href="#aS"/><use transform="matrix(0.05,0,0,0.05,82.9,0)" xlink:href="#aV"/><use transform="matrix(0.05,0,0,0.05,86.85000000000001,0)" xlink:href="#bd"/><use transform="matrix(0.05,0,0,0.05,96.85000000000001,0)" xlink:href="#aY"/><use transform="matrix(0.05,0,0,0.05,101.85000000000001,0)" xlink:href="#aV"/><use transform="matrix(0.05,0,0,0.05,105.80000000000001,0)" xlink:href="#bf"/><use transform="matrix(0.05,0,0,0.05,115.80000000000001,0)" xlink:href="#aZ"/></g><path d="M197 0v-115H63V0H30v-248h33v105h134v-105h34V0h-34" id="br"/><path d="M108 0H70L1-190h34L89-25l56-165h34" id="bs"/><g id="x"><use transform="matrix(0.05,0,0,0.05,0,0)" xlink:href="#br"/><use transform="matrix(0.05,0,0,0.05,12.950000000000001,0)" xlink:href="#aR"/><use transform="matrix(0.05,0,0,0.05,22.950000000000003,0)" xlink:href="#ba"/><use transform="matrix(0.05,0,0,0.05,32.95,0)" xlink:href="#bs"/><use transform="matrix(0.05,0,0,0.05,41.95,0)" xlink:href="#bj"/></g><path d="M30 0v-248h187v28H63v79h144v27H63v87h162V0H30" id="bt"/><path d="M145-31C134-9 116 4 85 4 32 4 16-35 15-94c0-59 17-99 70-100 32-1 48 14 60 33 0-11-1-24 2-32h30l-1 268h-32zM93-21c41 0 51-33 51-76s-8-73-50-73c-40 0-46 35-46 75s5 74 45 74" id="bu"/><g id="y"><use transform="matrix(0.05,0,0,0.05,0,0)" xlink:href="#bt"/><use transform="matrix(0.05,0,0,0.05,12,0)" xlink:href="#bu"/><use transform="matrix(0.05,0,0,0.05,22,0)" xlink:href="#aT"/><use transform="matrix(0.05,0,0,0.05,32,0)" xlink:href="#aV"/><use transform="matrix(0.05,0,0,0.05,35.95,0)" xlink:href="#bd"/><use transform="matrix(0.05,0,0,0.05,45.95,0)" xlink:href="#bb"/><use transform="matrix(0.05,0,0,0.05,60.900000000000006,0)" xlink:href="#aR"/><use transform="matrix(0.05,0,0,0.05,70.9,0)" xlink:href="#aZ"/><use transform="matrix(0.05,0,0,0.05,80.9,0)" xlink:href="#aY"/></g><g id="z"><use transform="matrix(0.05,0,0,0.05,0,0)" xlink:href="#bl"/><use transform="matrix(0.05,0,0,0.05,10,0)" xlink:href="#aR"/><use transform="matrix(0.05,0,0,0.05,20,0)" xlink:href="#ba"/><use transform="matrix(0.05,0,0,0.05,30,0)" xlink:href="#bs"/><use transform="matrix(0.05,0,0,0.05,39,0)" xlink:href="#bj"/><use transform="matrix(0.05,0,0,0.05,48,0)" xlink:href="#aU"/><use transform="matrix(0.05,0,0,0.05,58,0)" xlink:href="#aV"/><use transform="matrix(0.05,0,0,0.05,61.95,0)" xlink:href="#aW"/></g><g id="A"><use transform="matrix(0.05,0,0,0.05,0,0)" xlink:href="#bl"/><use transform="matrix(0.05,0,0,0.05,10,0)" xlink:href="#aR"/><use transform="matrix(0.05,0,0,0.05,20,0)" xlink:href="#ba"/><use transform="matrix(0.05,0,0,0.05,30,0)" xlink:href="#bs"/><use transform="matrix(0.05,0,0,0.05,39,0)" xlink:href="#bj"/><use transform="matrix(0.05,0,0,0.05,48,0)" xlink:href="#aU"/><use transform="matrix(0.05,0,0,0.05,58,0)" xlink:href="#aW"/><use transform="matrix(0.05,0,0,0.05,68,0)" xlink:href="#aR"/><use transform="matrix(0.05,0,0,0.05,78,0)" xlink:href="#aQ"/><use transform="matrix(0.05,0,0,0.05,87,0)" xlink:href="#bi"/><use transform="matrix(0.05,0,0,0.05,96,0)" xlink:href="#aS"/><use transform="matrix(0.05,0,0,0.05,101.95,0)" xlink:href="#aV"/><use transform="matrix(0.05,0,0,0.05,105.9,0)" xlink:href="#bd"/><use transform="matrix(0.05,0,0,0.05,115.9,0)" xlink:href="#aY"/><use transform="matrix(0.05,0,0,0.05,120.9,0)" xlink:href="#aV"/><use transform="matrix(0.05,0,0,0.05,124.85000000000001,0)" xlink:href="#bf"/><use transform="matrix(0.05,0,0,0.05,134.85000000000002,0)" xlink:href="#aZ"/></g><g id="B"><use transform="matrix(0.05,0,0,0.05,0,0)" xlink:href="#bo"/><use transform="matrix(0.05,0,0,0.05,10.950000000000001,0)" xlink:href="#aT"/><use transform="matrix(0.05,0,0,0.05,20.950000000000003,0)" xlink:href="#aR"/><use transform="matrix(0.05,0,0,0.05,30.950000000000003,0)" xlink:href="#bc"/></g><g id="C"><use transform="matrix(0.05,0,0,0.05,0,0)" xlink:href="#aX"/><use transform="matrix(0.05,0,0,0.05,5,0)" xlink:href="#aT"/><use transform="matrix(0.05,0,0,0.05,15,0)" xlink:href="#aR"/><use transform="matrix(0.05,0,0,0.05,25,0)" xlink:href="#bc"/><use transform="matrix(0.05,0,0,0.05,28.950000000000003,0)" xlink:href="#aU"/><use transform="matrix(0.05,0,0,0.05,38.95,0)" xlink:href="#aV"/><use transform="matrix(0.05,0,0,0.05,42.900000000000006,0)" xlink:href="#aW"/></g><g id="D"><use transform="matrix(0.05,0,0,0.05,0,0)" xlink:href="#aX"/><use transform="matrix(0.05,0,0,0.05,5,0)" xlink:href="#aT"/><use transform="matrix(0.05,0,0,0.05,15,0)" xlink:href="#aR"/><use transform="matrix(0.05,0,0,0.05,25,0)" xlink:href="#bc"/><use transform="matrix(0.05,0,0,0.05,28.950000000000003,0)" xlink:href="#aU"/><use transform="matrix(0.05,0,0,0.05,38.95,0)" xlink:href="#aY"/><use transform="matrix(0.05,0,0,0.05,43.95,0)" xlink:href="#bj"/><use transform="matrix(0.05,0,0,0.05,52.95,0)" xlink:href="#bd"/><use transform="matrix(0.05,0,0,0.05,62.95,0)" xlink:href="#aR"/></g><g id="E"><use transform="matrix(0.05,0,0,0.05,0,0)" xlink:href="#aX"/><use transform="matrix(0.05,0,0,0.05,5,0)" xlink:href="#aT"/><use transform="matrix(0.05,0,0,0.05,15,0)" xlink:href="#aR"/><use transform="matrix(0.05,0,0,0.05,25,0)" xlink:href="#bc"/><use transform="matrix(0.05,0,0,0.05,28.950000000000003,0)" xlink:href="#aU"/><use transform="matrix(0.05,0,0,0.05,38.95,0)" xlink:href="#bc"/><use transform="matrix(0.05,0,0,0.05,42.900000000000006,0)" xlink:href="#aV"/><use transform="matrix(0.05,0,0,0.05,46.85000000000001,0)" xlink:href="#aY"/><use transform="matrix(0.05,0,0,0.05,51.85,0)" xlink:href="#aR"/><use transform="matrix(0.05,0,0,0.05,61.85,0)" xlink:href="#aS"/><use transform="matrix(0.05,0,0,0.05,67.80000000000001,0)" xlink:href="#aQ"/></g><g id="F"><use transform="matrix(0.05,0,0,0.05,0,0)" xlink:href="#br"/><use transform="matrix(0.05,0,0,0.05,12.950000000000001,0)" xlink:href="#aR"/><use transform="matrix(0.05,0,0,0.05,22.950000000000003,0)" xlink:href="#ba"/><use transform="matrix(0.05,0,0,0.05,32.95,0)" xlink:href="#bc"/><use transform="matrix(0.05,0,0,0.05,36.900000000000006,0)" xlink:href="#aY"/><use transform="matrix(0.05,0,0,0.05,41.900000000000006,0)" xlink:href="#bl"/></g><g id="G"><use transform="matrix(0.05,0,0,0.05,0,0)" xlink:href="#bl"/><use transform="matrix(0.05,0,0,0.05,10,0)" xlink:href="#aR"/><use transform="matrix(0.05,0,0,0.05,20,0)" xlink:href="#ba"/><use transform="matrix(0.05,0,0,0.05,30,0)" xlink:href="#bc"/><use transform="matrix(0.05,0,0,0.05,33.95,0)" xlink:href="#aY"/><use transform="matrix(0.05,0,0,0.05,38.95,0)" xlink:href="#bl"/><use transform="matrix(0.05,0,0,0.05,48.95,0)" xlink:href="#aU"/><use transform="matrix(0.05,0,0,0.05,58.95,0)" xlink:href="#aV"/><use transform="matrix(0.05,0,0,0.05,62.900000000000006,0)" xlink:href="#aW"/></g><g id="H"><use transform="matrix(0.05,0,0,0.05,0,0)" xlink:href="#bl"/><use transform="matrix(0.05,0,0,0.05,10,0)" xlink:href="#aR"/><use transform="matrix(0.05,0,0,0.05,20,0)" xlink:href="#ba"/><use transform="matrix(0.05,0,0,0.05,30,0)" xlink:href="#bc"/><use transform="matrix(0.05,0,0,0.05,33.95,0)" xlink:href="#aY"/><use transform="matrix(0.05,0,0,0.05,38.95,0)" xlink:href="#bl"/><use transform="matrix(0.05,0,0,0.05,48.95,0)" xlink:href="#aU"/><use transform="matrix(0.05,0,0,0.05,58.95,0)" xlink:href="#aY"/><use transform="matrix(0.05,0,0,0.05,63.95,0)" xlink:href="#bj"/><use transform="matrix(0.05,0,0,0.05,72.95,0)" xlink:href="#bd"/><use transform="matrix(0.05,0,0,0.05,82.95,0)" xlink:href="#aR"/></g><g id="I"><use transform="matrix(0.05,0,0,0.05,0,0)" xlink:href="#bl"/><use transform="matrix(0.05,0,0,0.05,10,0)" xlink:href="#aR"/><use transform="matrix(0.05,0,0,0.05,20,0)" xlink:href="#ba"/><use transform="matrix(0.05,0,0,0.05,30,0)" xlink:href="#bc"/><use transform="matrix(0.05,0,0,0.05,33.95,0)" xlink:href="#aY"/><use transform="matrix(0.05,0,0,0.05,38.95,0)" xlink:href="#bl"/><use transform="matrix(0.05,0,0,0.05,48.95,0)" xlink:href="#aU"/><use transform="matrix(0.05,0,0,0.05,58.95,0)" xlink:href="#aR"/><use transform="matrix(0.05,0,0,0.05,68.95,0)" xlink:href="#bp"/><use transform="matrix(0.05,0,0,0.05,77.95,0)" xlink:href="#bd"/><use transform="matrix(0.05,0,0,0.05,87.95,0)" xlink:href="#aU"/><use transform="matrix(0.05,0,0,0.05,97.95,0)" xlink:href="#aW"/><use transform="matrix(0.05,0,0,0.05,107.95,0)" xlink:href="#ba"/><use transform="matrix(0.05,0,0,0.05,117.95,0)" xlink:href="#aY"/><use transform="matrix(0.05,0,0,0.05,122.95,0)" xlink:href="#aR"/></g><g id="J"><use transform="matrix(0.05,0,0,0.05,0,0)" xlink:href="#bl"/><use transform="matrix(0.05,0,0,0.05,10,0)" xlink:href="#aR"/><use transform="matrix(0.05,0,0,0.05,20,0)" xlink:href="#ba"/><use transform="matrix(0.05,0,0,0.05,30,0)" xlink:href="#bc"/><use transform="matrix(0.05,0,0,0.05,33.95,0)" xlink:href="#aY"/><use transform="matrix(0.05,0,0,0.05,38.95,0)" xlink:href="#bl"/><use transform="matrix(0.05,0,0,0.05,48.95,0)" xlink:href="#aU"/><use transform="matrix(0.05,0,0,0.05,58.95,0)" xlink:href="#aW"/><use transform="matrix(0.05,0,0,0.05,68.95,0)" xlink:href="#aR"/><use transform="matrix(0.05,0,0,0.05,78.95,0)" xlink:href="#aQ"/><use transform="matrix(0.05,0,0,0.05,87.95,0)" xlink:href="#bi"/><use transform="matrix(0.05,0,0,0.05,96.95,0)" xlink:href="#aS"/><use transform="matrix(0.05,0,0,0.05,102.9,0)" xlink:href="#aV"/><use transform="matrix(0.05,0,0,0.05,106.85000000000001,0)" xlink:href="#bd"/><use transform="matrix(0.05,0,0,0.05,116.85000000000001,0)" xlink:href="#aY"/><use transform="matrix(0.05,0,0,0.05,121.85000000000001,0)" xlink:href="#aV"/><use transform="matrix(0.05,0,0,0.05,125.80000000000001,0)" xlink:href="#bf"/><use transform="matrix(0.05,0,0,0.05,135.8,0)" xlink:href="#aZ"/></g><path d="M160-131c35 5 61 23 61 61C221 17 115-2 30 0v-248c76 3 177-17 177 60 0 33-19 50-47 57zm-97-11c50-1 110 9 110-42 0-47-63-36-110-37v79zm0 115c55-2 124 14 124-45 0-56-70-42-124-44v89" id="bv"/><g id="K"><use transform="matrix(0.05,0,0,0.05,0,0)" xlink:href="#bv"/><use transform="matrix(0.05,0,0,0.05,12,0)" xlink:href="#ba"/><use transform="matrix(0.05,0,0,0.05,22,0)" xlink:href="#aY"/><use transform="matrix(0.05,0,0,0.05,27,0)" xlink:href="#aY"/><use transform="matrix(0.05,0,0,0.05,32,0)" xlink:href="#aR"/><use transform="matrix(0.05,0,0,0.05,42,0)" xlink:href="#aS"/><use transform="matrix(0.05,0,0,0.05,47.95,0)" xlink:href="#aV"/><use transform="matrix(0.05,0,0,0.05,51.900000000000006,0)" xlink:href="#aR"/><use transform="matrix(0.05,0,0,0.05,61.900000000000006,0)" xlink:href="#aQ"/></g><path d="M115-194c53 0 69 39 70 98 0 66-23 100-70 100C84 3 66-7 56-30L54 0H23l1-261h32v101c10-23 28-34 59-34zm-8 174c40 0 45-34 45-75 0-40-5-75-45-74-42 0-51 32-51 76 0 43 10 73 51 73" id="bw"/><g id="L"><use transform="matrix(0.05,0,0,0.05,0,0)" xlink:href="#bw"/><use transform="matrix(0.05,0,0,0.05,10,0)" xlink:href="#ba"/><use transform="matrix(0.05,0,0,0.05,20,0)" xlink:href="#aY"/><use transform="matrix(0.05,0,0,0.05,25,0)" xlink:href="#aY"/><use transform="matrix(0.05,0,0,0.05,30,0)" xlink:href="#aR"/><use transform="matrix(0.05,0,0,0.05,40,0)" xlink:href="#aS"/><use transform="matrix(0.05,0,0,0.05,45.95,0)" xlink:href="#aV"/><use transform="matrix(0.05,0,0,0.05,49.900000000000006,0)" xlink:href="#aR"/><use transform="matrix(0.05,0,0,0.05,59.900000000000006,0)" xlink:href="#aQ"/><use transform="matrix(0.05,0,0,0.05,68.9,0)" xlink:href="#aU"/><use transform="matrix(0.05,0,0,0.05,78.9,0)" xlink:href="#aV"/><use transform="matrix(0.05,0,0,0.05,82.85000000000001,0)" xlink:href="#aW"/></g><g id="M"><use transform="matrix(0.05,0,0,0.05,0,0)" xlink:href="#bw"/><use transform="matrix(0.05,0,0,0.05,10,0)" xlink:href="#ba"/><use transform="matrix(0.05,0,0,0.05,20,0)" xlink:href="#aY"/><use transform="matrix(0.05,0,0,0.05,25,0)" xlink:href="#aY"/><use transform="matrix(0.05,0,0,0.05,30,0)" xlink:href="#aR"/><use transform="matrix(0.05,0,0,0.05,40,0)" xlink:href="#aS"/><use transform="matrix(0.05,0,0,0.05,45.95,0)" xlink:href="#aV"/><use transform="matrix(0.05,0,0,0.05,49.900000000000006,0)" xlink:href="#aR"/><use transform="matrix(0.05,0,0,0.05,59.900000000000006,0)" xlink:href="#aQ"/><use transform="matrix(0.05,0,0,0.05,68.9,0)" xlink:href="#aU"/><use transform="matrix(0.05,0,0,0.05,78.9,0)" xlink:href="#bb"/><use transform="matrix(0.05,0,0,0.05,93.85000000000001,0)" xlink:href="#ba"/><use transform="matrix(0.05,0,0,0.05,103.85000000000001,0)" xlink:href="#aY"/><use transform="matrix(0.05,0,0,0.05,108.85000000000001,0)" xlink:href="#aR"/><use transform="matrix(0.05,0,0,0.05,118.85000000000001,0)" xlink:href="#aS"/><use transform="matrix(0.05,0,0,0.05,124.80000000000001,0)" xlink:href="#aV"/><use transform="matrix(0.05,0,0,0.05,128.75,0)" xlink:href="#ba"/><use transform="matrix(0.05,0,0,0.05,138.75,0)" xlink:href="#bc"/></g><g id="N"><use transform="matrix(0.05,0,0,0.05,0,0)" xlink:href="#bw"/><use transform="matrix(0.05,0,0,0.05,10,0)" xlink:href="#ba"/><use transform="matrix(0.05,0,0,0.05,20,0)" xlink:href="#aY"/><use transform="matrix(0.05,0,0,0.05,25,0)" xlink:href="#aY"/><use transform="matrix(0.05,0,0,0.05,30,0)" xlink:href="#aR"/><use transform="matrix(0.05,0,0,0.05,40,0)" xlink:href="#aS"/><use transform="matrix(0.05,0,0,0.05,45.95,0)" xlink:href="#aV"/><use transform="matrix(0.05,0,0,0.05,49.900000000000006,0)" xlink:href="#aR"/><use transform="matrix(0.05,0,0,0.05,59.900000000000006,0)" xlink:href="#aQ"/><use transform="matrix(0.05,0,0,0.05,68.9,0)" xlink:href="#aU"/><use transform="matrix(0.05,0,0,0.05,78.9,0)" xlink:href="#bs"/><use transform="matrix(0.05,0,0,0.05,87.9,0)" xlink:href="#bf"/><use transform="matrix(0.05,0,0,0.05,97.9,0)" xlink:href="#bc"/><use transform="matrix(0.05,0,0,0.05,101.85000000000001,0)" xlink:href="#aY"/><use transform="matrix(0.05,0,0,0.05,106.85000000000001,0)" xlink:href="#ba"/><use transform="matrix(0.05,0,0,0.05,116.85000000000001,0)" xlink:href="#bm"/><use transform="matrix(0.05,0,0,0.05,126.85000000000001,0)" xlink:href="#aR"/></g><g id="O"><use transform="matrix(0.05,0,0,0.05,0,0)" xlink:href="#bw"/><use transform="matrix(0.05,0,0,0.05,10,0)" xlink:href="#ba"/><use transform="matrix(0.05,0,0,0.05,20,0)" xlink:href="#aY"/><use transform="matrix(0.05,0,0,0.05,25,0)" xlink:href="#aY"/><use transform="matrix(0.05,0,0,0.05,30,0)" xlink:href="#aR"/><use transform="matrix(0.05,0,0,0.05,40,0)" xlink:href="#aS"/><use transform="matrix(0.05,0,0,0.05,45.95,0)" xlink:href="#bj"/><use transform="matrix(0.05,0,0,0.05,54.95,0)" xlink:href="#aU"/><use transform="matrix(0.05,0,0,0.05,64.95,0)" xlink:href="#aY"/><use transform="matrix(0.05,0,0,0.05,69.95,0)" xlink:href="#bj"/><use transform="matrix(0.05,0,0,0.05,78.95,0)" xlink:href="#bd"/><use transform="matrix(0.05,0,0,0.05,88.95,0)" xlink:href="#aR"/></g><g id="P"><use transform="matrix(0.05,0,0,0.05,0,0)" xlink:href="#bw"/><use transform="matrix(0.05,0,0,0.05,10,0)" xlink:href="#ba"/><use transform="matrix(0.05,0,0,0.05,20,0)" xlink:href="#aY"/><use transform="matrix(0.05,0,0,0.05,25,0)" xlink:href="#aY"/><use transform="matrix(0.05,0,0,0.05,30,0)" xlink:href="#aR"/><use transform="matrix(0.05,0,0,0.05,40,0)" xlink:href="#aS"/><use transform="matrix(0.05,0,0,0.05,45.95,0)" xlink:href="#aV"/><use transform="matrix(0.05,0,0,0.05,49.900000000000006,0)" xlink:href="#aR"/><use transform="matrix(0.05,0,0,0.05,59.900000000000006,0)" xlink:href="#aQ"/><use transform="matrix(0.05,0,0,0.05,68.9,0)" xlink:href="#aU"/><use transform="matrix(0.05,0,0,0.05,78.9,0)" xlink:href="#aW"/><use transform="matrix(0.05,0,0,0.05,88.9,0)" xlink:href="#aR"/><use transform="matrix(0.05,0,0,0.05,98.9,0)" xlink:href="#aQ"/><use transform="matrix(0.05,0,0,0.05,107.9,0)" xlink:href="#bi"/><use transform="matrix(0.05,0,0,0.05,116.9,0)" xlink:href="#aS"/><use transform="matrix(0.05,0,0,0.05,122.85000000000001,0)" xlink:href="#aV"/><use transform="matrix(0.05,0,0,0.05,126.80000000000001,0)" xlink:href="#bd"/><use transform="matrix(0.05,0,0,0.05,136.8,0)" xlink:href="#aY"/><use transform="matrix(0.05,0,0,0.05,141.8,0)" xlink:href="#aV"/><use transform="matrix(0.05,0,0,0.05,145.75,0)" xlink:href="#bf"/><use transform="matrix(0.05,0,0,0.05,155.75,0)" xlink:href="#aZ"/></g><path d="M185-189c-5-48-123-54-124 2 14 75 158 14 163 119 3 78-121 87-175 55-17-10-28-26-33-46l33-7c5 56 141 63 141-1 0-78-155-14-162-118-5-82 145-84 179-34 5 7 8 16 11 25" id="bx"/><g id="Q"><use transform="matrix(0.05,0,0,0.05,0,0)" xlink:href="#bx"/><use transform="matrix(0.05,0,0,0.05,12,0)" xlink:href="#aT"/><use transform="matrix(0.05,0,0,0.05,22,0)" xlink:href="#bd"/><use transform="matrix(0.05,0,0,0.05,32,0)" xlink:href="#bd"/><use transform="matrix(0.05,0,0,0.05,42,0)" xlink:href="#bc"/><use transform="matrix(0.05,0,0,0.05,45.95,0)" xlink:href="#aV"/><use transform="matrix(0.05,0,0,0.05,49.900000000000006,0)" xlink:href="#aR"/><use transform="matrix(0.05,0,0,0.05,59.900000000000006,0)" xlink:href="#aS"/><use transform="matrix(0.05,0,0,0.05,65.85000000000001,0)" xlink:href="#aQ"/></g><g id="R"><use transform="matrix(0.05,0,0,0.05,0,0)" xlink:href="#aQ"/><use transform="matrix(0.05,0,0,0.05,9,0)" xlink:href="#aT"/><use transform="matrix(0.05,0,0,0.05,19,0)" xlink:href="#bd"/><use transform="matrix(0.05,0,0,0.05,29,0)" xlink:href="#bd"/><use transform="matrix(0.05,0,0,0.05,39,0)" xlink:href="#bc"/><use transform="matrix(0.05,0,0,0.05,42.95,0)" xlink:href="#aV"/><use transform="matrix(0.05,0,0,0.05,46.900000000000006,0)" xlink:href="#aR"/><use transform="matrix(0.05,0,0,0.05,56.900000000000006,0)" xlink:href="#aS"/><use transform="matrix(0.05,0,0,0.05,62.85,0)" xlink:href="#aU"/><use transform="matrix(0.05,0,0,0.05,72.85000000000001,0)" xlink:href="#aV"/><use transform="matrix(0.05,0,0,0.05,76.80000000000001,0)" xlink:href="#aW"/></g><g id="S"><use transform="matrix(0.05,0,0,0.05,0,0)" xlink:href="#bx"/><use transform="matrix(0.05,0,0,0.05,12,0)" xlink:href="#aT"/><use transform="matrix(0.05,0,0,0.05,22,0)" xlink:href="#bd"/><use transform="matrix(0.05,0,0,0.05,32,0)" xlink:href="#bd"/><use transform="matrix(0.05,0,0,0.05,42,0)" xlink:href="#bc"/><use transform="matrix(0.05,0,0,0.05,45.95,0)" xlink:href="#aV"/><use transform="matrix(0.05,0,0,0.05,49.900000000000006,0)" xlink:href="#aR"/><use transform="matrix(0.05,0,0,0.05,59.900000000000006,0)" xlink:href="#aQ"/></g><g id="T"><use transform="matrix(0.05,0,0,0.05,0,0)" xlink:href="#bh"/><use transform="matrix(0.05,0,0,0.05,12.950000000000001,0)" xlink:href="#aR"/><use transform="matrix(0.05,0,0,0.05,22.950000000000003,0)" xlink:href="#aQ"/><use transform="matrix(0.05,0,0,0.05,31.950000000000003,0)" xlink:href="#bf"/><use transform="matrix(0.05,0,0,0.05,41.95,0)" xlink:href="#aT"/><use transform="matrix(0.05,0,0,0.05,51.95,0)" xlink:href="#aS"/><use transform="matrix(0.05,0,0,0.05,57.900000000000006,0)" xlink:href="#bi"/><use transform="matrix(0.05,0,0,0.05,66.9,0)" xlink:href="#aR"/><use transform="matrix(0.05,0,0,0.05,76.9,0)" xlink:href="#aQ"/></g><g id="U"><use transform="matrix(0.05,0,0,0.05,0,0)" xlink:href="#aS"/><use transform="matrix(0.05,0,0,0.05,5.95,0)" xlink:href="#aR"/><use transform="matrix(0.05,0,0,0.05,15.949999999999998,0)" xlink:href="#aQ"/><use transform="matrix(0.05,0,0,0.05,24.95,0)" xlink:href="#bf"/><use transform="matrix(0.05,0,0,0.05,34.95,0)" xlink:href="#aT"/><use transform="matrix(0.05,0,0,0.05,44.95,0)" xlink:href="#aS"/><use transform="matrix(0.05,0,0,0.05,50.900000000000006,0)" xlink:href="#bi"/><use transform="matrix(0.05,0,0,0.05,59.900000000000006,0)" xlink:href="#aR"/><use transform="matrix(0.05,0,0,0.05,69.9,0)" xlink:href="#aU"/><use transform="matrix(0.05,0,0,0.05,79.9,0)" xlink:href="#aV"/><use transform="matrix(0.05,0,0,0.05,83.85000000000001,0)" xlink:href="#aW"/></g><g id="V"><use transform="matrix(0.05,0,0,0.05,0,0)" xlink:href="#aS"/><use transform="matrix(0.05,0,0,0.05,5.95,0)" xlink:href="#aR"/><use transform="matrix(0.05,0,0,0.05,15.949999999999998,0)" xlink:href="#aQ"/><use transform="matrix(0.05,0,0,0.05,24.95,0)" xlink:href="#bf"/><use transform="matrix(0.05,0,0,0.05,34.95,0)" xlink:href="#aT"/><use transform="matrix(0.05,0,0,0.05,44.95,0)" xlink:href="#aS"/><use transform="matrix(0.05,0,0,0.05,50.900000000000006,0)" xlink:href="#bi"/><use transform="matrix(0.05,0,0,0.05,59.900000000000006,0)" xlink:href="#aR"/><use transform="matrix(0.05,0,0,0.05,69.9,0)" xlink:href="#aU"/><use transform="matrix(0.05,0,0,0.05,79.9,0)" xlink:href="#aZ"/><use transform="matrix(0.05,0,0,0.05,89.9,0)" xlink:href="#ba"/><use transform="matrix(0.05,0,0,0.05,99.9,0)" xlink:href="#bb"/><use transform="matrix(0.05,0,0,0.05,114.85000000000001,0)" xlink:href="#aR"/></g><g id="W"><use transform="matrix(0.05,0,0,0.05,0,0)" xlink:href="#aS"/><use transform="matrix(0.05,0,0,0.05,5.95,0)" xlink:href="#aR"/><use transform="matrix(0.05,0,0,0.05,15.949999999999998,0)" xlink:href="#aQ"/><use transform="matrix(0.05,0,0,0.05,24.95,0)" xlink:href="#bf"/><use transform="matrix(0.05,0,0,0.05,34.95,0)" xlink:href="#aT"/><use transform="matrix(0.05,0,0,0.05,44.95,0)" xlink:href="#aS"/><use transform="matrix(0.05,0,0,0.05,50.900000000000006,0)" xlink:href="#bi"/><use transform="matrix(0.05,0,0,0.05,59.900000000000006,0)" xlink:href="#aR"/><use transform="matrix(0.05,0,0,0.05,69.9,0)" xlink:href="#aU"/><use transform="matrix(0.05,0,0,0.05,79.9,0)" xlink:href="#bi"/><use transform="matrix(0.05,0,0,0.05,88.9,0)" xlink:href="#ba"/><use transform="matrix(0.05,0,0,0.05,98.9,0)" xlink:href="#aY"/><use transform="matrix(0.05,0,0,0.05,103.9,0)" xlink:href="#aR"/><use transform="matrix(0.05,0,0,0.05,113.9,0)" xlink:href="#bm"/><use transform="matrix(0.05,0,0,0.05,123.9,0)" xlink:href="#bf"/><use transform="matrix(0.05,0,0,0.05,133.9,0)" xlink:href="#aS"/><use transform="matrix(0.05,0,0,0.05,139.85,0)" xlink:href="#bj"/></g><g id="X"><use transform="matrix(0.05,0,0,0.05,0,0)" xlink:href="#bg"/><use transform="matrix(0.05,0,0,0.05,12,0)" xlink:href="#ba"/><use transform="matrix(0.05,0,0,0.05,22,0)" xlink:href="#bj"/><use transform="matrix(0.05,0,0,0.05,31,0)" xlink:href="#aQ"/></g><path d="M190 0L58-211 59 0H30v-248h39L202-35l-2-213h31V0h-41" id="by"/><use transform="matrix(0.05,0,0,0.05,0,0)" xlink:href="#by" id="Y"/><g id="Z"><use transform="matrix(0.05,0,0,0.05,0,0)" xlink:href="#bg"/><use transform="matrix(0.05,0,0,0.05,12,0)" xlink:href="#ba"/><use transform="matrix(0.05,0,0,0.05,22,0)" xlink:href="#bj"/><use transform="matrix(0.05,0,0,0.05,31,0)" xlink:href="#bb"/><use transform="matrix(0.05,0,0,0.05,45.95,0)" xlink:href="#aR"/><use transform="matrix(0.05,0,0,0.05,55.95,0)" xlink:href="#aZ"/><use transform="matrix(0.05,0,0,0.05,65.95,0)" xlink:href="#aY"/></g><g id="aa"><use transform="matrix(0.05,0,0,0.05,0,0)" xlink:href="#bd"/><use transform="matrix(0.05,0,0,0.05,10,0)" xlink:href="#ba"/><use transform="matrix(0.05,0,0,0.05,20,0)" xlink:href="#bj"/><use transform="matrix(0.05,0,0,0.05,29,0)" xlink:href="#bb"/><use transform="matrix(0.05,0,0,0.05,43.95,0)" xlink:href="#aR"/><use transform="matrix(0.05,0,0,0.05,53.95,0)" xlink:href="#aZ"/><use transform="matrix(0.05,0,0,0.05,63.95,0)" xlink:href="#aY"/><use transform="matrix(0.05,0,0,0.05,68.95,0)" xlink:href="#aU"/><use transform="matrix(0.05,0,0,0.05,78.95,0)" xlink:href="#aV"/><use transform="matrix(0.05,0,0,0.05,82.9,0)" xlink:href="#aW"/></g><g id="ab"><use transform="matrix(0.05,0,0,0.05,0,0)" xlink:href="#bd"/><use transform="matrix(0.05,0,0,0.05,10,0)" xlink:href="#ba"/><use transform="matrix(0.05,0,0,0.05,20,0)" xlink:href="#bj"/><use transform="matrix(0.05,0,0,0.05,29,0)" xlink:href="#bb"/><use transform="matrix(0.05,0,0,0.05,43.95,0)" xlink:href="#aR"/><use transform="matrix(0.05,0,0,0.05,53.95,0)" xlink:href="#aZ"/><use transform="matrix(0.05,0,0,0.05,63.95,0)" xlink:href="#aY"/><use transform="matrix(0.05,0,0,0.05,68.95,0)" xlink:href="#aU"/><use transform="matrix(0.05,0,0,0.05,78.95,0)" xlink:href="#aW"/><use transform="matrix(0.05,0,0,0.05,88.95,0)" xlink:href="#ba"/><use transform="matrix(0.05,0,0,0.05,98.95,0)" xlink:href="#aY"/><use transform="matrix(0.05,0,0,0.05,103.95,0)" xlink:href="#aR"/></g><g id="ac"><use transform="matrix(0.05,0,0,0.05,0,0)" xlink:href="#bd"/><use transform="matrix(0.05,0,0,0.05,10,0)" xlink:href="#ba"/><use transform="matrix(0.05,0,0,0.05,20,0)" xlink:href="#bj"/><use transform="matrix(0.05,0,0,0.05,29,0)" xlink:href="#bb"/><use transform="matrix(0.05,0,0,0.05,43.95,0)" xlink:href="#aR"/><use transform="matrix(0.05,0,0,0.05,53.95,0)" xlink:href="#aZ"/><use transform="matrix(0.05,0,0,0.05,63.95,0)" xlink:href="#aY"/><use transform="matrix(0.05,0,0,0.05,68.95,0)" xlink:href="#aU"/><use transform="matrix(0.05,0,0,0.05,78.95,0)" xlink:href="#ba"/><use transform="matrix(0.05,0,0,0.05,88.95,0)" xlink:href="#bb"/><use transform="matrix(0.05,0,0,0.05,103.9,0)" xlink:href="#bf"/><use transform="matrix(0.05,0,0,0.05,113.9,0)" xlink:href="#aT"/><use transform="matrix(0.05,0,0,0.05,123.9,0)" xlink:href="#aZ"/><use transform="matrix(0.05,0,0,0.05,133.9,0)" xlink:href="#aY"/></g><g id="ad"><use transform="matrix(0.05,0,0,0.05,0,0)" xlink:href="#bh"/><use transform="matrix(0.05,0,0,0.05,12.950000000000001,0)" xlink:href="#aR"/><use transform="matrix(0.05,0,0,0.05,22.950000000000003,0)" xlink:href="#aQ"/><use transform="matrix(0.05,0,0,0.05,31.950000000000003,0)" xlink:href="#aR"/><use transform="matrix(0.05,0,0,0.05,41.95,0)" xlink:href="#aS"/><use transform="matrix(0.05,0,0,0.05,47.900000000000006,0)" xlink:href="#bs"/><use transform="matrix(0.05,0,0,0.05,56.900000000000006,0)" xlink:href="#ba"/><use transform="matrix(0.05,0,0,0.05,66.9,0)" xlink:href="#aY"/><use transform="matrix(0.05,0,0,0.05,71.9,0)" xlink:href="#aV"/><use transform="matrix(0.05,0,0,0.05,75.85000000000001,0)" xlink:href="#bf"/><use transform="matrix(0.05,0,0,0.05,85.85000000000001,0)" xlink:href="#aZ"/></g><g id="ae"><use transform="matrix(0.05,0,0,0.05,0,0)" xlink:href="#aS"/><use transform="matrix(0.05,0,0,0.05,5.95,0)" xlink:href="#aR"/><use transform="matrix(0.05,0,0,0.05,15.949999999999998,0)" xlink:href="#aQ"/><use transform="matrix(0.05,0,0,0.05,24.95,0)" xlink:href="#aR"/><use transform="matrix(0.05,0,0,0.05,34.95,0)" xlink:href="#aS"/><use transform="matrix(0.05,0,0,0.05,40.900000000000006,0)" xlink:href="#bs"/><use transform="matrix(0.05,0,0,0.05,49.900000000000006,0)" xlink:href="#ba"/><use transform="matrix(0.05,0,0,0.05,59.900000000000006,0)" xlink:href="#aY"/><use transform="matrix(0.05,0,0,0.05,64.9,0)" xlink:href="#aV"/><use transform="matrix(0.05,0,0,0.05,68.85000000000001,0)" xlink:href="#bf"/><use transform="matrix(0.05,0,0,0.05,78.85000000000001,0)" xlink:href="#aZ"/><use transform="matrix(0.05,0,0,0.05,88.85000000000001,0)" xlink:href="#aU"/><use transform="matrix(0.05,0,0,0.05,98.85000000000001,0)" xlink:href="#aV"/><use transform="matrix(0.05,0,0,0.05,102.80000000000001,0)" xlink:href="#aW"/></g><g id="af"><use transform="matrix(0.05,0,0,0.05,0,0)" xlink:href="#bd"/><use transform="matrix(0.05,0,0,0.05,10,0)" xlink:href="#bc"/><use transform="matrix(0.05,0,0,0.05,13.949999999999998,0)" xlink:href="#ba"/><use transform="matrix(0.05,0,0,0.05,23.95,0)" xlink:href="#bi"/><use transform="matrix(0.05,0,0,0.05,32.95,0)" xlink:href="#aR"/></g><g id="ag"><use transform="matrix(0.05,0,0,0.05,0,0)" xlink:href="#aS"/><use transform="matrix(0.05,0,0,0.05,5.95,0)" xlink:href="#aR"/><use transform="matrix(0.05,0,0,0.05,15.949999999999998,0)" xlink:href="#bu"/><use transform="matrix(0.05,0,0,0.05,25.950000000000003,0)" xlink:href="#aT"/><use transform="matrix(0.05,0,0,0.05,35.95,0)" xlink:href="#aR"/><use transform="matrix(0.05,0,0,0.05,45.95,0)" xlink:href="#aQ"/><use transform="matrix(0.05,0,0,0.05,54.95,0)" xlink:href="#aY"/></g><g id="ah"><use transform="matrix(0.05,0,0,0.05,0,0)" xlink:href="#bd"/><use transform="matrix(0.05,0,0,0.05,10,0)" xlink:href="#bc"/><use transform="matrix(0.05,0,0,0.05,13.949999999999998,0)" xlink:href="#ba"/><use transform="matrix(0.05,0,0,0.05,23.95,0)" xlink:href="#bi"/><use transform="matrix(0.05,0,0,0.05,32.95,0)" xlink:href="#aR"/></g><g id="ai"><use transform="matrix(0.05,0,0,0.05,0,0)" xlink:href="#aS"/><use transform="matrix(0.05,0,0,0.05,5.95,0)" xlink:href="#aR"/><use transform="matrix(0.05,0,0,0.05,15.949999999999998,0)" xlink:href="#aQ"/><use transform="matrix(0.05,0,0,0.05,24.95,0)" xlink:href="#aR"/><use transform="matrix(0.05,0,0,0.05,34.95,0)" xlink:href="#aS"/><use transform="matrix(0.05,0,0,0.05,40.900000000000006,0)" xlink:href="#bs"/><use transform="matrix(0.05,0,0,0.05,49.900000000000006,0)" xlink:href="#ba"/><use transform="matrix(0.05,0,0,0.05,59.900000000000006,0)" xlink:href="#aY"/><use transform="matrix(0.05,0,0,0.05,64.9,0)" xlink:href="#aV"/><use transform="matrix(0.05,0,0,0.05,68.85000000000001,0)" xlink:href="#bf"/><use transform="matrix(0.05,0,0,0.05,78.85000000000001,0)" xlink:href="#aZ"/></g><g id="aj"><use transform="matrix(0.05,0,0,0.05,0,0)" xlink:href="#bh"/><use transform="matrix(0.05,0,0,0.05,12.950000000000001,0)" xlink:href="#aR"/><use transform="matrix(0.05,0,0,0.05,22.950000000000003,0)" xlink:href="#bu"/><use transform="matrix(0.05,0,0,0.05,32.95,0)" xlink:href="#aT"/><use transform="matrix(0.05,0,0,0.05,42.95,0)" xlink:href="#aR"/><use transform="matrix(0.05,0,0,0.05,52.95,0)" xlink:href="#aQ"/><use transform="matrix(0.05,0,0,0.05,61.95,0)" xlink:href="#aY"/></g><g id="ak"><use transform="matrix(0.05,0,0,0.05,0,0)" xlink:href="#aS"/><use transform="matrix(0.05,0,0,0.05,5.95,0)" xlink:href="#aR"/><use transform="matrix(0.05,0,0,0.05,15.949999999999998,0)" xlink:href="#bu"/><use transform="matrix(0.05,0,0,0.05,25.950000000000003,0)" xlink:href="#aT"/><use transform="matrix(0.05,0,0,0.05,35.95,0)" xlink:href="#aR"/><use transform="matrix(0.05,0,0,0.05,45.95,0)" xlink:href="#aQ"/><use transform="matrix(0.05,0,0,0.05,54.95,0)" xlink:href="#aY"/><use transform="matrix(0.05,0,0,0.05,59.95,0)" xlink:href="#aU"/><use transform="matrix(0.05,0,0,0.05,69.95,0)" xlink:href="#aV"/><use transform="matrix(0.05,0,0,0.05,73.9,0)" xlink:href="#aW"/></g><path d="M27 0v-27h64v-190l-56 39v-29l58-41h29v221h61V0H27" id="bz"/><use transform="matrix(0.05,0,0,0.05,0,0)" xlink:href="#bz" id="al"/><path d="M205 0l-28-72H64L36 0H1l101-248h38L239 0h-34zm-38-99l-47-123c-12 45-31 82-46 123h93" id="bA"/><g id="am"><use transform="matrix(0.05,0,0,0.05,0,0)" xlink:href="#bA"/><use transform="matrix(0.05,0,0,0.05,12,0)" xlink:href="#aW"/><use transform="matrix(0.05,0,0,0.05,22,0)" xlink:href="#bb"/><use transform="matrix(0.05,0,0,0.05,36.95,0)" xlink:href="#aV"/><use transform="matrix(0.05,0,0,0.05,40.900000000000006,0)" xlink:href="#aZ"/><use transform="matrix(0.05,0,0,0.05,50.900000000000006,0)" xlink:href="#aV"/><use transform="matrix(0.05,0,0,0.05,54.85,0)" xlink:href="#aQ"/><use transform="matrix(0.05,0,0,0.05,63.85,0)" xlink:href="#aY"/><use transform="matrix(0.05,0,0,0.05,68.85000000000001,0)" xlink:href="#aS"/><use transform="matrix(0.05,0,0,0.05,74.80000000000001,0)" xlink:href="#ba"/><use transform="matrix(0.05,0,0,0.05,84.80000000000001,0)" xlink:href="#aY"/><use transform="matrix(0.05,0,0,0.05,89.80000000000001,0)" xlink:href="#bf"/><use transform="matrix(0.05,0,0,0.05,99.80000000000001,0)" xlink:href="#aS"/></g><g id="an"><use transform="matrix(0.05,0,0,0.05,0,0)" xlink:href="#ba"/><use transform="matrix(0.05,0,0,0.05,10,0)" xlink:href="#aW"/><use transform="matrix(0.05,0,0,0.05,20,0)" xlink:href="#bb"/><use transform="matrix(0.05,0,0,0.05,34.95,0)" xlink:href="#aV"/><use transform="matrix(0.05,0,0,0.05,38.900000000000006,0)" xlink:href="#aZ"/><use transform="matrix(0.05,0,0,0.05,48.900000000000006,0)" xlink:href="#aU"/><use transform="matrix(0.05,0,0,0.05,58.900000000000006,0)" xlink:href="#aV"/><use transform="matrix(0.05,0,0,0.05,62.85,0)" xlink:href="#aW"/></g><g id="ao"><use transform="matrix(0.05,0,0,0.05,0,0)" xlink:href="#bk"/><use transform="matrix(0.05,0,0,0.05,12.950000000000001,0)" xlink:href="#aT"/><use transform="matrix(0.05,0,0,0.05,22.950000000000003,0)" xlink:href="#aQ"/><use transform="matrix(0.05,0,0,0.05,31.950000000000003,0)" xlink:href="#aY"/><use transform="matrix(0.05,0,0,0.05,36.95,0)" xlink:href="#bf"/><use transform="matrix(0.05,0,0,0.05,46.95,0)" xlink:href="#bb"/><use transform="matrix(0.05,0,0,0.05,61.900000000000006,0)" xlink:href="#aR"/><use transform="matrix(0.05,0,0,0.05,71.9,0)" xlink:href="#aS"/></g><g id="ap"><use transform="matrix(0.05,0,0,0.05,0,0)" xlink:href="#bi"/><use transform="matrix(0.05,0,0,0.05,9,0)" xlink:href="#aT"/><use transform="matrix(0.05,0,0,0.05,19,0)" xlink:href="#aQ"/><use transform="matrix(0.05,0,0,0.05,28,0)" xlink:href="#aY"/><use transform="matrix(0.05,0,0,0.05,33,0)" xlink:href="#bf"/><use transform="matrix(0.05,0,0,0.05,43,0)" xlink:href="#bb"/><use transform="matrix(0.05,0,0,0.05,57.95,0)" xlink:href="#aR"/><use transform="matrix(0.05,0,0,0.05,67.95,0)" xlink:href="#aS"/><use transform="matrix(0.05,0,0,0.05,73.9,0)" xlink:href="#aU"/><use transform="matrix(0.05,0,0,0.05,83.9,0)" xlink:href="#aV"/><use transform="matrix(0.05,0,0,0.05,87.85000000000001,0)" xlink:href="#aW"/></g><g id="aq"><use transform="matrix(0.05,0,0,0.05,0,0)" xlink:href="#bg"/><use transform="matrix(0.05,0,0,0.05,12,0)" xlink:href="#aS"/><use transform="matrix(0.05,0,0,0.05,17.95,0)" xlink:href="#aV"/><use transform="matrix(0.05,0,0,0.05,21.9,0)" xlink:href="#bi"/><use transform="matrix(0.05,0,0,0.05,30.899999999999995,0)" xlink:href="#aR"/></g><path d="M266 0h-40l-56-210L115 0H75L2-248h35L96-30l15-64 43-154h32l59 218 59-218h35" id="bB"/><g id="ar"><use transform="matrix(0.05,0,0,0.05,0,0)" xlink:href="#bB"/><use transform="matrix(0.05,0,0,0.05,16.3,0)" xlink:href="#ba"/><use transform="matrix(0.05,0,0,0.05,26.3,0)" xlink:href="#aY"/><use transform="matrix(0.05,0,0,0.05,31.3,0)" xlink:href="#aR"/><use transform="matrix(0.05,0,0,0.05,41.3,0)" xlink:href="#aS"/></g><g id="as"><use transform="matrix(0.05,0,0,0.05,0,0)" xlink:href="#be"/><use transform="matrix(0.05,0,0,0.05,12.950000000000001,0)" xlink:href="#ba"/><use transform="matrix(0.05,0,0,0.05,22.950000000000003,0)" xlink:href="#aY"/><use transform="matrix(0.05,0,0,0.05,27.950000000000003,0)" xlink:href="#aR"/><use transform="matrix(0.05,0,0,0.05,37.95,0)" xlink:href="#aS"/><use transform="matrix(0.05,0,0,0.05,43.900000000000006,0)" xlink:href="#aU"/><use transform="matrix(0.05,0,0,0.05,53.900000000000006,0)" xlink:href="#aV"/><use transform="matrix(0.05,0,0,0.05,57.85,0)" xlink:href="#aW"/></g><g id="at"><use transform="matrix(0.05,0,0,0.05,0,0)" xlink:href="#be"/><use transform="matrix(0.05,0,0,0.05,12.950000000000001,0)" xlink:href="#ba"/><use transform="matrix(0.05,0,0,0.05,22.950000000000003,0)" xlink:href="#aY"/><use transform="matrix(0.05,0,0,0.05,27.950000000000003,0)" xlink:href="#aR"/><use transform="matrix(0.05,0,0,0.05,37.95,0)" xlink:href="#aS"/><use transform="matrix(0.05,0,0,0.05,43.900000000000006,0)" xlink:href="#aU"/><use transform="matrix(0.05,0,0,0.05,53.900000000000006,0)" xlink:href="#bf"/><use transform="matrix(0.05,0,0,0.05,63.900000000000006,0)" xlink:href="#bn"/></g><g id="au"><use transform="matrix(0.05,0,0,0.05,0,0)" xlink:href="#be"/><use transform="matrix(0.05,0,0,0.05,12.950000000000001,0)" xlink:href="#ba"/><use transform="matrix(0.05,0,0,0.05,22.950000000000003,0)" xlink:href="#aY"/><use transform="matrix(0.05,0,0,0.05,27.950000000000003,0)" xlink:href="#aR"/><use transform="matrix(0.05,0,0,0.05,37.95,0)" xlink:href="#aS"/><use transform="matrix(0.05,0,0,0.05,43.900000000000006,0)" xlink:href="#aU"/><use transform="matrix(0.05,0,0,0.05,53.900000000000006,0)" xlink:href="#aY"/><use transform="matrix(0.05,0,0,0.05,58.900000000000006,0)" xlink:href="#bj"/><use transform="matrix(0.05,0,0,0.05,67.9,0)" xlink:href="#bd"/><use transform="matrix(0.05,0,0,0.05,77.9,0)" xlink:href="#aR"/></g><path d="M33 0v-248h34V0H33" id="bC"/><g id="av"><use transform="matrix(0.05,0,0,0.05,0,0)" xlink:href="#bC"/><use transform="matrix(0.05,0,0,0.05,5,0)" xlink:href="#bi"/><use transform="matrix(0.05,0,0,0.05,14,0)" xlink:href="#aR"/></g><g id="aw"><use transform="matrix(0.05,0,0,0.05,0,0)" xlink:href="#aV"/><use transform="matrix(0.05,0,0,0.05,3.95,0)" xlink:href="#bi"/><use transform="matrix(0.05,0,0,0.05,12.949999999999998,0)" xlink:href="#aR"/><use transform="matrix(0.05,0,0,0.05,22.95,0)" xlink:href="#aU"/><use transform="matrix(0.05,0,0,0.05,32.95,0)" xlink:href="#aV"/><use transform="matrix(0.05,0,0,0.05,36.900000000000006,0)" xlink:href="#aW"/></g><g id="ax"><use transform="matrix(0.05,0,0,0.05,0,0)" xlink:href="#aV"/><use transform="matrix(0.05,0,0,0.05,3.95,0)" xlink:href="#bi"/><use transform="matrix(0.05,0,0,0.05,12.949999999999998,0)" xlink:href="#aR"/><use transform="matrix(0.05,0,0,0.05,22.95,0)" xlink:href="#aU"/><use transform="matrix(0.05,0,0,0.05,32.95,0)" xlink:href="#aW"/><use transform="matrix(0.05,0,0,0.05,42.95,0)" xlink:href="#aR"/><use transform="matrix(0.05,0,0,0.05,52.95,0)" xlink:href="#aQ"/><use transform="matrix(0.05,0,0,0.05,61.95,0)" xlink:href="#bi"/><use transform="matrix(0.05,0,0,0.05,70.95,0)" xlink:href="#aS"/><use transform="matrix(0.05,0,0,0.05,76.9,0)" xlink:href="#aV"/><use transform="matrix(0.05,0,0,0.05,80.85000000000001,0)" xlink:href="#bd"/><use transform="matrix(0.05,0,0,0.05,90.85000000000001,0)" xlink:href="#aY"/><use transform="matrix(0.05,0,0,0.05,95.85000000000001,0)" xlink:href="#aV"/><use transform="matrix(0.05,0,0,0.05,99.80000000000001,0)" xlink:href="#bf"/><use transform="matrix(0.05,0,0,0.05,109.80000000000001,0)" xlink:href="#aZ"/></g><path d="M143 0L79-87 56-68V0H24v-261h32v163l83-92h37l-77 82L181 0h-38" id="bD"/><g id="ay"><use transform="matrix(0.05,0,0,0.05,0,0)" xlink:href="#aQ"/><use transform="matrix(0.05,0,0,0.05,9,0)" xlink:href="#aY"/><use transform="matrix(0.05,0,0,0.05,14,0)" xlink:href="#bf"/><use transform="matrix(0.05,0,0,0.05,24,0)" xlink:href="#bi"/><use transform="matrix(0.05,0,0,0.05,33,0)" xlink:href="#bD"/></g><g id="az"><use transform="matrix(0.05,0,0,0.05,0,0)" xlink:href="#bk"/><use transform="matrix(0.05,0,0,0.05,12.950000000000001,0)" xlink:href="#ba"/><use transform="matrix(0.05,0,0,0.05,22.950000000000003,0)" xlink:href="#aS"/><use transform="matrix(0.05,0,0,0.05,28.900000000000002,0)" xlink:href="#aW"/></g><g id="aA"><use transform="matrix(0.05,0,0,0.05,0,0)" xlink:href="#bi"/><use transform="matrix(0.05,0,0,0.05,9,0)" xlink:href="#ba"/><use transform="matrix(0.05,0,0,0.05,19,0)" xlink:href="#aS"/><use transform="matrix(0.05,0,0,0.05,24.95,0)" xlink:href="#aW"/><use transform="matrix(0.05,0,0,0.05,34.95,0)" xlink:href="#aU"/><use transform="matrix(0.05,0,0,0.05,44.95,0)" xlink:href="#aV"/><use transform="matrix(0.05,0,0,0.05,48.900000000000006,0)" xlink:href="#aW"/></g><g id="aB"><use transform="matrix(0.05,0,0,0.05,0,0)" xlink:href="#bi"/><use transform="matrix(0.05,0,0,0.05,9,0)" xlink:href="#ba"/><use transform="matrix(0.05,0,0,0.05,19,0)" xlink:href="#aS"/><use transform="matrix(0.05,0,0,0.05,24.95,0)" xlink:href="#aW"/><use transform="matrix(0.05,0,0,0.05,34.95,0)" xlink:href="#aU"/><use transform="matrix(0.05,0,0,0.05,44.95,0)" xlink:href="#aY"/><use transform="matrix(0.05,0,0,0.05,49.95,0)" xlink:href="#bj"/><use transform="matrix(0.05,0,0,0.05,58.95,0)" xlink:href="#bd"/><use transform="matrix(0.05,0,0,0.05,68.95,0)" xlink:href="#aR"/></g><g id="aC"><use transform="matrix(0.05,0,0,0.05,0,0)" xlink:href="#bi"/><use transform="matrix(0.05,0,0,0.05,9,0)" xlink:href="#ba"/><use transform="matrix(0.05,0,0,0.05,19,0)" xlink:href="#aS"/><use transform="matrix(0.05,0,0,0.05,24.95,0)" xlink:href="#aW"/><use transform="matrix(0.05,0,0,0.05,34.95,0)" xlink:href="#aU"/><use transform="matrix(0.05,0,0,0.05,44.95,0)" xlink:href="#aZ"/><use transform="matrix(0.05,0,0,0.05,54.95,0)" xlink:href="#aT"/><use transform="matrix(0.05,0,0,0.05,64.95,0)" xlink:href="#bb"/><use transform="matrix(0.05,0,0,0.05,79.9,0)" xlink:href="#bw"/><use transform="matrix(0.05,0,0,0.05,89.9,0)" xlink:href="#aR"/><use transform="matrix(0.05,0,0,0.05,99.9,0)" xlink:href="#aS"/></g><g id="aD"><use transform="matrix(0.05,0,0,0.05,0,0)" xlink:href="#bi"/><use transform="matrix(0.05,0,0,0.05,9,0)" xlink:href="#ba"/><use transform="matrix(0.05,0,0,0.05,19,0)" xlink:href="#aS"/><use transform="matrix(0.05,0,0,0.05,24.95,0)" xlink:href="#aW"/><use transform="matrix(0.05,0,0,0.05,34.95,0)" xlink:href="#aU"/><use transform="matrix(0.05,0,0,0.05,44.95,0)" xlink:href="#aQ"/><use transform="matrix(0.05,0,0,0.05,53.95,0)" xlink:href="#aR"/><use transform="matrix(0.05,0,0,0.05,63.95,0)" xlink:href="#bi"/><use transform="matrix(0.05,0,0,0.05,72.95,0)" xlink:href="#aT"/><use transform="matrix(0.05,0,0,0.05,82.95,0)" xlink:href="#aS"/><use transform="matrix(0.05,0,0,0.05,88.9,0)" xlink:href="#aV"/><use transform="matrix(0.05,0,0,0.05,92.85000000000001,0)" xlink:href="#aY"/><use transform="matrix(0.05,0,0,0.05,97.85000000000001,0)" xlink:href="#bj"/><use transform="matrix(0.05,0,0,0.05,106.85000000000001,0)" xlink:href="#aU"/><use transform="matrix(0.05,0,0,0.05,116.85000000000001,0)" xlink:href="#bi"/><use transform="matrix(0.05,0,0,0.05,125.85000000000001,0)" xlink:href="#bf"/><use transform="matrix(0.05,0,0,0.05,135.85000000000002,0)" xlink:href="#aW"/><use transform="matrix(0.05,0,0,0.05,145.85000000000002,0)" xlink:href="#aR"/></g><g id="aE"><use transform="matrix(0.05,0,0,0.05,0,0)" xlink:href="#bA"/><use transform="matrix(0.05,0,0,0.05,12,0)" xlink:href="#aW"/><use transform="matrix(0.05,0,0,0.05,22,0)" xlink:href="#aW"/><use transform="matrix(0.05,0,0,0.05,32,0)" xlink:href="#aS"/><use transform="matrix(0.05,0,0,0.05,37.95,0)" xlink:href="#aR"/><use transform="matrix(0.05,0,0,0.05,47.95,0)" xlink:href="#aQ"/><use transform="matrix(0.05,0,0,0.05,56.95,0)" xlink:href="#aQ"/></g><g id="aF"><use transform="matrix(0.05,0,0,0.05,0,0)" xlink:href="#ba"/><use transform="matrix(0.05,0,0,0.05,10,0)" xlink:href="#aW"/><use transform="matrix(0.05,0,0,0.05,20,0)" xlink:href="#aW"/><use transform="matrix(0.05,0,0,0.05,30,0)" xlink:href="#aS"/><use transform="matrix(0.05,0,0,0.05,35.95,0)" xlink:href="#aR"/><use transform="matrix(0.05,0,0,0.05,45.95,0)" xlink:href="#aQ"/><use transform="matrix(0.05,0,0,0.05,54.95,0)" xlink:href="#aQ"/><use transform="matrix(0.05,0,0,0.05,63.95,0)" xlink:href="#aU"/><use transform="matrix(0.05,0,0,0.05,73.95,0)" xlink:href="#aV"/><use transform="matrix(0.05,0,0,0.05,77.9,0)" xlink:href="#aW"/></g><g id="aG"><use transform="matrix(0.05,0,0,0.05,0,0)" xlink:href="#aT"/><use transform="matrix(0.05,0,0,0.05,10,0)" xlink:href="#aQ"/><use transform="matrix(0.05,0,0,0.05,19,0)" xlink:href="#aR"/><use transform="matrix(0.05,0,0,0.05,29,0)" xlink:href="#aS"/><use transform="matrix(0.05,0,0,0.05,34.95,0)" xlink:href="#aU"/><use transform="matrix(0.05,0,0,0.05,44.95,0)" xlink:href="#bi"/><use transform="matrix(0.05,0,0,0.05,53.95,0)" xlink:href="#bf"/><use transform="matrix(0.05,0,0,0.05,63.95,0)" xlink:href="#aT"/><use transform="matrix(0.05,0,0,0.05,73.95,0)" xlink:href="#aZ"/><use transform="matrix(0.05,0,0,0.05,83.95,0)" xlink:href="#aY"/><use transform="matrix(0.05,0,0,0.05,88.95,0)" xlink:href="#aS"/><use transform="matrix(0.05,0,0,0.05,94.9,0)" xlink:href="#bj"/></g><g id="aH"><use transform="matrix(0.05,0,0,0.05,0,0)" xlink:href="#aT"/><use transform="matrix(0.05,0,0,0.05,10,0)" xlink:href="#aQ"/><use transform="matrix(0.05,0,0,0.05,19,0)" xlink:href="#aR"/><use transform="matrix(0.05,0,0,0.05,29,0)" xlink:href="#aS"/><use transform="matrix(0.05,0,0,0.05,34.95,0)" xlink:href="#aU"/><use transform="matrix(0.05,0,0,0.05,44.95,0)" xlink:href="#bi"/><use transform="matrix(0.05,0,0,0.05,53.95,0)" xlink:href="#aV"/><use transform="matrix(0.05,0,0,0.05,57.900000000000006,0)" xlink:href="#aY"/><use transform="matrix(0.05,0,0,0.05,62.900000000000006,0)" xlink:href="#bj"/></g><g id="aI"><use transform="matrix(0.05,0,0,0.05,0,0)" xlink:href="#aT"/><use transform="matrix(0.05,0,0,0.05,10,0)" xlink:href="#aQ"/><use transform="matrix(0.05,0,0,0.05,19,0)" xlink:href="#aR"/><use transform="matrix(0.05,0,0,0.05,29,0)" xlink:href="#aS"/><use transform="matrix(0.05,0,0,0.05,34.95,0)" xlink:href="#aU"/><use transform="matrix(0.05,0,0,0.05,44.95,0)" xlink:href="#aQ"/><use transform="matrix(0.05,0,0,0.05,53.95,0)" xlink:href="#aY"/><use transform="matrix(0.05,0,0,0.05,58.95,0)" xlink:href="#aR"/><use transform="matrix(0.05,0,0,0.05,68.95,0)" xlink:href="#aR"/><use transform="matrix(0.05,0,0,0.05,78.95,0)" xlink:href="#aY"/><use transform="matrix(0.05,0,0,0.05,83.95,0)" xlink:href="#aU"/><use transform="matrix(0.05,0,0,0.05,93.95,0)" xlink:href="#ba"/><use transform="matrix(0.05,0,0,0.05,103.95,0)" xlink:href="#aW"/><use transform="matrix(0.05,0,0,0.05,113.95,0)" xlink:href="#aW"/><use transform="matrix(0.05,0,0,0.05,123.95,0)" xlink:href="#aS"/><use transform="matrix(0.05,0,0,0.05,129.9,0)" xlink:href="#aR"/><use transform="matrix(0.05,0,0,0.05,139.9,0)" xlink:href="#aQ"/><use transform="matrix(0.05,0,0,0.05,148.9,0)" xlink:href="#aQ"/></g><g id="aJ"><use transform="matrix(0.05,0,0,0.05,0,0)" xlink:href="#aT"/><use transform="matrix(0.05,0,0,0.05,10,0)" xlink:href="#aQ"/><use transform="matrix(0.05,0,0,0.05,19,0)" xlink:href="#aR"/><use transform="matrix(0.05,0,0,0.05,29,0)" xlink:href="#aS"/><use transform="matrix(0.05,0,0,0.05,34.95,0)" xlink:href="#aU"/><use transform="matrix(0.05,0,0,0.05,44.95,0)" xlink:href="#bn"/><use transform="matrix(0.05,0,0,0.05,53.95,0)" xlink:href="#aV"/><use transform="matrix(0.05,0,0,0.05,57.900000000000006,0)" xlink:href="#bd"/><use transform="matrix(0.05,0,0,0.05,67.9,0)" xlink:href="#bi"/><use transform="matrix(0.05,0,0,0.05,76.9,0)" xlink:href="#bf"/><use transform="matrix(0.05,0,0,0.05,86.9,0)" xlink:href="#aW"/><use transform="matrix(0.05,0,0,0.05,96.9,0)" xlink:href="#aR"/></g><g id="aK"><use transform="matrix(0.05,0,0,0.05,0,0)" xlink:href="#bA"/><use transform="matrix(0.05,0,0,0.05,12,0)" xlink:href="#aY"/><use transform="matrix(0.05,0,0,0.05,17,0)" xlink:href="#bl"/><use transform="matrix(0.05,0,0,0.05,27,0)" xlink:href="#bb"/><use transform="matrix(0.05,0,0,0.05,41.95,0)" xlink:href="#bf"/><use transform="matrix(0.05,0,0,0.05,51.95,0)" xlink:href="#bw"/><use transform="matrix(0.05,0,0,0.05,61.95,0)" xlink:href="#aV"/><use transform="matrix(0.05,0,0,0.05,65.9,0)" xlink:href="#bc"/></g><g id="aL"><use transform="matrix(0.05,0,0,0.05,0,0)" xlink:href="#ba"/><use transform="matrix(0.05,0,0,0.05,10,0)" xlink:href="#aY"/><use transform="matrix(0.05,0,0,0.05,15,0)" xlink:href="#bl"/><use transform="matrix(0.05,0,0,0.05,25,0)" xlink:href="#bb"/><use transform="matrix(0.05,0,0,0.05,39.95,0)" xlink:href="#bf"/><use transform="matrix(0.05,0,0,0.05,49.95,0)" xlink:href="#bw"/><use transform="matrix(0.05,0,0,0.05,59.95,0)" xlink:href="#aV"/><use transform="matrix(0.05,0,0,0.05,63.900000000000006,0)" xlink:href="#bc"/><use transform="matrix(0.05,0,0,0.05,67.85000000000001,0)" xlink:href="#aU"/><use transform="matrix(0.05,0,0,0.05,77.85000000000001,0)" xlink:href="#aV"/><use transform="matrix(0.05,0,0,0.05,81.80000000000001,0)" xlink:href="#aW"/></g><g id="aM"><use transform="matrix(0.05,0,0,0.05,0,0)" xlink:href="#ba"/><use transform="matrix(0.05,0,0,0.05,10,0)" xlink:href="#aY"/><use transform="matrix(0.05,0,0,0.05,15,0)" xlink:href="#bl"/><use transform="matrix(0.05,0,0,0.05,25,0)" xlink:href="#bb"/><use transform="matrix(0.05,0,0,0.05,39.95,0)" xlink:href="#bf"/><use transform="matrix(0.05,0,0,0.05,49.95,0)" xlink:href="#bw"/><use transform="matrix(0.05,0,0,0.05,59.95,0)" xlink:href="#aV"/><use transform="matrix(0.05,0,0,0.05,63.900000000000006,0)" xlink:href="#bc"/><use transform="matrix(0.05,0,0,0.05,67.85000000000001,0)" xlink:href="#aU"/><use transform="matrix(0.05,0,0,0.05,77.85000000000001,0)" xlink:href="#aY"/><use transform="matrix(0.05,0,0,0.05,82.85000000000001,0)" xlink:href="#aS"/><use transform="matrix(0.05,0,0,0.05,88.80000000000001,0)" xlink:href="#ba"/><use transform="matrix(0.05,0,0,0.05,98.80000000000001,0)" xlink:href="#aZ"/><use transform="matrix(0.05,0,0,0.05,108.80000000000001,0)" xlink:href="#aQ"/><use transform="matrix(0.05,0,0,0.05,117.80000000000001,0)" xlink:href="#ba"/><use transform="matrix(0.05,0,0,0.05,127.80000000000001,0)" xlink:href="#bi"/><use transform="matrix(0.05,0,0,0.05,136.8,0)" xlink:href="#aY"/><use transform="matrix(0.05,0,0,0.05,141.8,0)" xlink:href="#aV"/><use transform="matrix(0.05,0,0,0.05,145.75,0)" xlink:href="#bf"/><use transform="matrix(0.05,0,0,0.05,155.75,0)" xlink:href="#aZ"/><use transform="matrix(0.05,0,0,0.05,165.75,0)" xlink:href="#aU"/><use transform="matrix(0.05,0,0,0.05,175.75,0)" xlink:href="#aZ"/><use transform="matrix(0.05,0,0,0.05,185.75,0)" xlink:href="#aT"/><use transform="matrix(0.05,0,0,0.05,195.75,0)" xlink:href="#bb"/></g><g id="aN"><use transform="matrix(0.05,0,0,0.05,0,0)" xlink:href="#ba"/><use transform="matrix(0.05,0,0,0.05,10,0)" xlink:href="#aY"/><use transform="matrix(0.05,0,0,0.05,15,0)" xlink:href="#bl"/><use transform="matrix(0.05,0,0,0.05,25,0)" xlink:href="#bb"/><use transform="matrix(0.05,0,0,0.05,39.95,0)" xlink:href="#bf"/><use transform="matrix(0.05,0,0,0.05,49.95,0)" xlink:href="#bw"/><use transform="matrix(0.05,0,0,0.05,59.95,0)" xlink:href="#aV"/><use transform="matrix(0.05,0,0,0.05,63.900000000000006,0)" xlink:href="#bc"/><use transform="matrix(0.05,0,0,0.05,67.85000000000001,0)" xlink:href="#aU"/><use transform="matrix(0.05,0,0,0.05,77.85000000000001,0)" xlink:href="#bd"/><use transform="matrix(0.05,0,0,0.05,87.85000000000001,0)" xlink:href="#bl"/><use transform="matrix(0.05,0,0,0.05,97.85000000000001,0)" xlink:href="#bf"/><use transform="matrix(0.05,0,0,0.05,107.85000000000001,0)" xlink:href="#aZ"/><use transform="matrix(0.05,0,0,0.05,117.85000000000001,0)" xlink:href="#aR"/><use transform="matrix(0.05,0,0,0.05,127.85000000000001,0)" xlink:href="#aU"/><use transform="matrix(0.05,0,0,0.05,137.85000000000002,0)" xlink:href="#aZ"/><use transform="matrix(0.05,0,0,0.05,147.85000000000002,0)" xlink:href="#aT"/><use transform="matrix(0.05,0,0,0.05,157.85000000000002,0)" xlink:href="#bb"/><use transform="matrix(0.05,0,0,0.05,172.8,0)" xlink:href="#bw"/><use transform="matrix(0.05,0,0,0.05,182.8,0)" xlink:href="#aR"/><use transform="matrix(0.05,0,0,0.05,192.8,0)" xlink:href="#aS"/></g><g id="aO"><use transform="matrix(0.05,0,0,0.05,0,0)" xlink:href="#bh"/><use transform="matrix(0.05,0,0,0.05,12.950000000000001,0)" xlink:href="#aR"/><use transform="matrix(0.05,0,0,0.05,22.950000000000003,0)" xlink:href="#bu"/><use transform="matrix(0.05,0,0,0.05,32.95,0)" xlink:href="#aT"/><use transform="matrix(0.05,0,0,0.05,42.95,0)" xlink:href="#aR"/><use transform="matrix(0.05,0,0,0.05,52.95,0)" xlink:href="#aQ"/><use transform="matrix(0.05,0,0,0.05,61.95,0)" xlink:href="#aY"/><use transform="matrix(0.05,0,0,0.05,66.95,0)" xlink:href="#aR"/><use transform="matrix(0.05,0,0,0.05,76.95,0)" xlink:href="#aW"/></g></defs></g></svg>